<svg xmlns="http://www.w3.org/2000/svg" viewBox="0 0 917 137" width="917" height="137"><rect width="137" height="137" rx="31" fill="#35e3b3"/><path d="M104.08507843137255 59.909294117647065Q104.08507843137255 64.65862745098039 101.50088235294118 67.31266666666667Q98.9166862745098 69.96670588235295 94.02766666666666 69.96670588235295H52.6106862745098V62.84270588235295H71.25880392156863Q75.03033333333333 62.84270588235295 75.03033333333333 59.28070588235295Q75.03033333333333 50.34078431372549 72.96996078431371 46.49941176470588Q70.90958823529411 42.65803921568628 67.62696078431372 42.65803921568628Q65.18245098039215 42.65803921568628 63.226843137254896 44.47396078431373Q61.271235294117645 46.289882352941184 60.11882352941176 50.06141176470589Q58.96641176470588 53.83294117647059 58.96641176470588 59.62992156862746Q58.96641176470588 72.41121568627452 64.69354901960784 78.31296078431373Q70.4206862745098 84.21470588235294 80.33841176470588 84.21470588235294Q85.01790196078431 84.21470588235294 88.82435294117647 83.09721568627452Q92.63080392156863 81.97972549019609 96.19280392156863 78.69709803921569Q98.14841176470588 76.88117647058824 99.16113725490196 76.28750980392158Q100.17386274509803 75.69384313725492 101.15166666666667 75.69384313725492Q102.5485294117647 75.69384313725492 103.17711764705882 77.0557843137255Q103.80570588235294 78.41772549019609 103.80570588235294 80.37333333333335Q103.80570588235294 86.65921568627452 99.58019607843137 92.10698039215688Q95.3546862745098 97.55474509803923 87.88147058823529 100.83737254901962Q80.40825490196079 104.12000000000002 70.4206862745098 104.12000000000002Q59.804529411764705 104.12000000000002 51.318588235294115 99.89449019607845Q42.832647058823525 95.66898039215688 37.87378431372548 88.09100000000001Q32.91492156862744 80.51301960784315 32.91492156862744 70.38576470588237Q32.91492156862744 59.07117647058824 37.45472549019607 50.65507843137256Q41.994529411764695 42.23898039215687 50.655078431372544 37.55949019607843Q59.31562745098039 32.879999999999995 71.53817647058823 32.879999999999995Q82.36386274509803 32.879999999999995 89.59262745098039 36.3721568627451Q96.82139215686274 39.8643137254902 100.45323529411765 45.975588235294126Q104.08507843137255 52.086862745098045 104.08507843137255 59.909294117647065Z" fill="#11151a"/><path d="M250.28243805994873 79.41034701186982Q250.28243805994873 83.53091385468015 247.9255896700635 85.79410087329614Q245.56874128017824 88.05728789191213 241.0111197936493 88.05728789191213H192.39055549397315V82.06375084357376H224.31057755707502Q228.27511673995065 82.06375084357376 228.27511673995065 78.48943323711674Q228.27511673995065 68.18781607020213 224.48996935402212 62.84965140089152Q220.7048219680936 57.5114867315809 214.47688141672114 57.5114867315809Q209.59129508583322 57.5114867315809 205.84516414154973 60.44593660039151Q202.09903319726624 63.38038646920212 199.98403339627657 68.92147855237698Q197.86903359528694 74.46257063555184 197.86903359528694 82.22006430334957Q197.86903359528694 97.34473479591267 204.95532633618893 104.87588451619618Q212.04161907709096 112.40703423647967 223.77923754576733 112.40703423647967Q230.6626790860961 112.40703423647967 235.8681659424924 109.67545938489577Q241.0736527988887 106.94388453331187 243.99237414977577 101.9022610158279Q245.33465215696936 100.31022252747009 246.15407840813688 99.78734695479059Q246.9735046593044 99.26447138211108 247.8787851827476 99.26447138211108Q249.12744468864815 99.26447138211108 249.67373203164695 100.38045307509731Q250.22001937464574 101.49643476808353 250.1888005053329 103.02602599115426Q249.84539294289146 109.64399758571795 245.4984535725828 115.24741308758207Q241.15151420227414 120.8508285894462 233.73754241685427 124.15980486006667Q226.3235706314344 127.46878113068715 216.6620117353936 127.46878113068715Q205.42394280902977 127.46878113068715 196.69104286343668 122.82526250190634Q187.95814291784362 118.18174387312554 182.9790714589218 109.8077990013314Q178.0 101.43385412953725 178.0 90.18014242520218Q178.0 78.3801814845138 182.72934908440308 69.2882597784922Q187.45869816880617 60.19633807247061 196.27743809668289 54.99871547503607Q205.09617802455958 49.80109287760153 217.34875064698545 49.80109287760153Q227.7907241158794 49.80109287760153 235.13447011700276 53.57833789792279Q242.4782161181261 57.35558291824405 246.38032708903742 64.0438088770884Q250.28243805994873 70.73203483593272 250.28243805994873 79.41034701186982ZM291.4262594024313 55.17031922631239V113.04677812752826Q291.4262594024313 115.43483586006498 292.11304594732997 116.55863894203681Q292.7998324922287 117.68244202400864 294.18900072669055 118.18190582636885L297.02982256754666 119.00915346652198Q299.51156548800606 119.97685267526816 299.51156548800606 122.08395963731193Q299.51156548800606 125.53334460654929 295.188109337977 125.53334460654929H264.9859729599442Q262.81644731259746 125.53334460654929 261.79411270088843 124.66709481474317Q260.7717780891794 123.80084502293705 260.7717780891794 122.27125379986633Q260.7717780891794 121.16307444254298 261.47415501541184 120.30462698639973Q262.1765319416442 119.44617953025647 263.61249513676046 118.99354879519623L266.71866307678386 118.18190582636885Q268.1390501805585 117.69804669533438 268.8258367254572 116.58205071235611Q269.5126232703559 115.46605472937783 269.5126232703559 113.07799699684111V68.26558220697382Q269.5126232703559 66.3145505381716 268.89609108973787 65.45609355536698Q268.27955890911977 64.59763657256235 266.92161907063223 64.36351886936937L262.8320519839232 64.03575408489918Q261.3804745908198 63.707989300429 260.748337738876 63.01342899985153Q260.1162008869322 62.31886869927406 260.1162008869322 61.195084670624965Q260.1162008869322 59.96204888937294 260.8966106964547 59.13481553921186Q261.67702050597717 58.30758218905078 263.7529085987081 57.60521955281044L278.268606316451 52.25159787542535Q281.20294186532516 51.2058562567277 283.0447074915324 50.70639721769818Q284.8864731177396 50.206938178668665 286.4316690121361 50.206938178668665Q288.89775010130154 50.206938178668665 290.16200475186645 51.580449345167175Q291.4262594024313 52.953960511665684 291.4262594024313 55.17031922631239ZM288.99135907593325 72.58928605019857 285.4482984454346 68.89015012645837 288.55442827881245 66.20546073881196Q298.3252675074403 57.37113995626294 305.34123443410135 53.586116416932235Q312.3572013607625 49.80109287760153 318.6317939728689 49.80109287760153Q328.26220068622644 49.80109287760153 333.6158890502411 56.23176078294947Q338.9695774142558 62.66242868829741 340.0777853515633 73.35421979832381L344.4794268114644 112.82824604233826Q344.76037758195736 115.34117925212641 345.3691264802353 116.53522240838683Q345.97787537851326 117.72926556464724 347.3514389416493 118.2131246956817L350.17663705785696 118.99354879519623Q351.61260025297327 119.44617953025647 352.31497717920564 120.30462698639973Q353.017354105438 121.16307444254298 353.017354105438 122.27125379986633Q353.017354105438 123.80084502293705 352.02623836304184 124.66709481474317Q351.03512262064567 125.53334460654929 348.8031592346732 125.53334460654929H318.3044674148218Q313.98101126479264 125.53334460654929 313.98101126479264 122.08395963731193Q313.98101126479264 119.97685267526816 316.4627541852521 119.00915346652198L319.3972326340468 118.18190582636885Q320.91127634576003 117.68244202400864 321.7229288412488 116.49620120341109Q322.5345813367376 115.30996038281356 322.2536305662446 112.82824604233826L318.22657743145226 76.63191527633252Q317.446134278615 69.76406888066816 314.72240463267013 66.3691668878117Q311.9986749867253 62.97426489495524 306.78536197801265 62.97426489495524Q303.4919189287576 62.97426489495524 299.8316613100726 64.69904311952627Q296.1714036913875 66.42382134409728 292.1599075946141 69.77974023862349ZM392.92857789309164 120.36708377834817Q398.28234247039734 120.36708377834817 401.22458991154014 117.68238010070974Q404.16683735268293 114.99767642307128 404.16683735268293 110.92378069431761Q404.16683735268293 108.37954287526428 403.0429961640656 106.25675026527313Q401.9191549754483 104.13395765528196 398.6803378024947 102.42479839202875Q395.4415206295412 100.71563912877552 389.2448751607725 99.23279523305241Q377.28892466679497 96.7822616552445 370.6865958502025 93.04404736656033Q364.08426703361 89.30583307787617 361.5244864665298 84.3657828239301Q358.96470589944965 79.42573256998404 358.96470589944965 73.54139011428038Q358.96470589944965 62.63117171233907 366.64400949404467 56.23174172962673Q374.3233130886397 49.832311746914385 388.91708179631826 49.832311746914385Q394.08344741779445 49.832311746914385 397.4002355507391 50.70638292770612Q400.71702368368386 51.58045410849786 402.8475805226924 52.47013472394602Q404.978137361701 53.359815339394174 406.5545902320558 53.359815339394174Q408.2871183956521 53.359815339394174 409.19239891909535 52.47013472394602Q410.09767944253855 51.58045410849786 411.00295520265104 50.6907734930497Q411.9082309627636 49.80109287760153 413.57831186107285 49.80109287760153Q414.70209588972193 49.80109287760153 415.6697998617988 50.55808615347403Q416.6375038338757 51.315079429346525 417.19939584820025 53.46900040536751L422.38148046093863 69.07757766227195Q423.28675145772047 71.80898579728185 422.9355701396003 73.54929247988764Q422.58438882148016 75.28959916249343 420.7894514992422 76.0075759967209Q418.97890950567853 76.6475104209969 417.66782655114434 75.99976889772734Q416.35674359661016 75.35202737445778 415.1705313559968 73.57270425020695Q411.67423710616845 67.40730623073526 407.6940694353136 63.778324641331295Q403.7139017644588 60.14934305192733 399.2732772062275 58.50265487061462Q394.8326526479961 56.85596668930191 390.1032749836089 56.85596668930191Q383.48518906910874 56.85596668930191 380.1527343415394 59.61091044122894Q376.82027961397 62.36585419315597 376.82027961397 66.9236090529441Q376.82027961397 69.63952683656471 378.2016502760996 71.84816895550088Q379.5830209382292 74.05681107443706 383.4383512384781 75.8908458149417Q387.293681538727 77.72488055544633 394.4892355588933 79.36379974441098Q404.7283292472299 81.6270391596645 410.66731663255774 85.08429791452502Q416.6063040178856 88.54155666938553 419.1894915919544 93.40355975004947Q421.7726791660232 98.2655628307134 421.7726791660232 104.883505845293Q421.7726791660232 111.51704400453696 418.3154442278161 116.65219075670029Q414.858209289609 121.78733750886363 408.65390438509803 124.64366875443181Q402.44959948058704 127.5 394.2864319916269 127.5Q389.24493232074076 127.5 386.1622714176504 126.5088604409504Q383.07961051456004 125.51772088190081 381.0505126191529 124.54219075750764Q379.0214147237458 123.56666063311447 377.11718754225944 123.56666063311447Q375.44709711728876 123.56666063311447 374.3155059896461 124.54219075750764Q373.18391486200346 125.51772088190081 372.16158501362514 126.5088604409504Q371.1392551652468 127.5 369.6876872988048 127.5Q368.5014750581914 127.5 367.7132676763367 126.64155730718744Q366.925060294482 125.78311461437488 366.53485777138616 123.78528798491817L363.49116567663395 108.80105953428674Q362.8824405950095 105.7106296388483 363.2726383547747 104.16541469112909Q363.6628361145399 102.62019974340987 365.2080415355977 102.04270305775958Q366.9249364478842 101.34034042151924 368.24382173808124 102.15196910035458Q369.5627070282783 102.96359777918991 370.9830464987461 105.22679908779796Q375.71237652982643 113.37444764538472 381.40167488395036 116.87076571186645Q387.0909732380743 120.36708377834817 392.92857789309164 120.36708377834817ZM506.02741547086214 79.41034701186982Q506.02741547086214 83.53091385468015 503.67056708097687 85.79410087329614Q501.31371869109165 88.05728789191213 496.7560972045627 88.05728789191213H448.1355329048866V82.06375084357376H480.0555549679884Q484.02009415086405 82.06375084357376 484.02009415086405 78.48943323711674Q484.02009415086405 68.18781607020213 480.23494676493556 62.84965140089152Q476.449799379007 57.5114867315809 470.22185882763455 57.5114867315809Q465.33627249674663 57.5114867315809 461.59014155246314 60.44593660039151Q457.84401060817964 63.38038646920212 455.72901080719 68.92147855237698Q453.61401100620037 74.46257063555184 453.61401100620037 82.22006430334957Q453.61401100620037 97.34473479591267 460.70030374710234 104.87588451619618Q467.78659648800436 112.40703423647967 479.52421495668074 112.40703423647967Q486.4076564970095 112.40703423647967 491.6131433534058 109.67545938489577Q496.8186302098021 106.94388453331187 499.73735156068915 101.9022610158279Q501.07962956788276 100.31022252747009 501.8990558190503 99.78734695479059Q502.7184820702178 99.26447138211108 503.623762593661 99.26447138211108Q504.87242209956156 99.26447138211108 505.4187094425604 100.38045307509731Q505.96499678555915 101.49643476808353 505.9337779162463 103.02602599115426Q505.5903703538049 109.64399758571795 501.2434309834962 115.24741308758207Q496.89649161318755 120.8508285894462 489.48251982776765 124.15980486006667Q482.0685480423478 127.46878113068715 472.406989146307 127.46878113068715Q461.1689202199432 127.46878113068715 452.4360202743501 122.82526250190634Q443.70312032875705 118.18174387312554 438.7240488698352 109.8077990013314Q433.7449774109134 101.43385412953725 433.7449774109134 90.18014242520218Q433.7449774109134 78.3801814845138 438.4743264953165 69.2882597784922Q443.2036755797196 60.19633807247061 452.0224155075963 54.99871547503607Q460.841155435473 49.80109287760153 473.0937280578989 49.80109287760153Q483.5357015267928 49.80109287760153 490.87944752791617 53.57833789792279Q498.2231935290395 57.35558291824405 502.12530449995086 64.0438088770884Q506.02741547086214 70.73203483593272 506.02741547086214 79.41034701186982ZM547.1712368133446 55.17031922631239V113.01555925821539Q547.1712368133446 115.43483586006498 547.8580233582434 116.55863894203681Q548.5448099031421 117.68244202400864 549.933978137604 118.18190582636885L552.8216235190987 119.00915346652198Q555.2565428989194 119.97685267526816 555.2565428989194 122.08395963731193Q555.2565428989194 125.53334460654929 550.9330867488904 125.53334460654929H520.7309503708576Q518.5614247235109 125.53334460654929 517.5390901118019 124.66709481474317Q516.5167555000928 123.80084502293705 516.5167555000928 122.27125379986633Q516.5167555000928 121.16307444254298 517.2191324263252 120.30462698639973Q517.9215093525577 119.44617953025647 519.357472547674 118.99354879519623L522.4636404876973 118.18190582636885Q523.884027591472 117.69804669533438 524.5708141363707 116.58205071235611Q525.2576006812694 115.46605472937783 525.2576006812694 113.04677812752826V68.34362461692527Q525.2576006812694 66.28333166885875 524.6410685006513 65.44048412071055Q524.0245363200331 64.59763657256235 522.6665964815456 64.36351886936937L518.5770293948367 64.03575408489918Q517.1254520017333 63.707989300429 516.4933151497894 63.01342899985153Q515.8611782978455 62.31886869927406 515.8611782978455 61.195084670624965Q515.8611782978455 59.96204888937294 516.6571975420245 59.13481553921186Q517.4532167862035 58.30758218905078 519.4978860096214 57.60521955281044L534.0135837273644 52.25159787542535Q536.9479192762385 51.12781384677625 538.7896849024457 50.66737601272246Q540.631450528653 50.206938178668665 542.1766464230495 50.206938178668665Q544.642727512215 50.206938178668665 545.9069821627797 51.580449345167175Q547.1712368133446 52.953960511665684 547.1712368133446 55.17031922631239ZM544.7363364868467 72.58928605019857 541.193275856348 68.89015012645837 544.2994056897259 66.20546073881196Q554.1639015262923 57.12140805508284 561.4296098807949 53.461250466342186Q568.6953182352975 49.80109287760153 575.1572145366196 49.80109287760153Q585.1934474977215 49.80109287760153 591.2183129719785 56.19273957797374Q597.2431784462354 62.58438627834595 597.2431784462354 73.43226220827526V112.82824604233826Q597.2431784462354 115.34117925212641 597.9924027297599 116.51181063806752Q598.7416270132843 117.68244202400864 600.2244518556847 118.2131246956817L602.8779604806637 119.04037233583483Q605.2504421218588 120.00807154458103 605.2504421218588 122.08395963731193Q605.2504421218588 125.53334460654929 600.9894237104554 125.53334460654929H571.3803791627372Q567.0569230127082 125.53334460654929 567.0569230127082 122.08395963731193Q567.0569230127082 119.97685267526816 569.4606235232161 119.00915346652198L572.5043632512752 118.18190582636885Q573.9871880936755 117.68244202400864 574.6583652039178 116.49620120341109Q575.3295423141601 115.30996038281356 575.3295423141601 112.85946491165112V76.60069640701967Q575.3295423141601 69.81089242130676 572.098517950208 66.392578658131Q568.8674935862559 62.97426489495524 563.2327401318119 62.97426489495524Q559.7519933933411 62.97426489495524 555.9044273221095 64.62880304523767Q552.0568612508781 66.28334119552011 547.9048850055275 69.77974023862349ZM594.8082781197375 72.58928605019857 591.2339986199258 68.89015012645837 594.2933049126652 66.20546073881196Q604.0017159293286 57.417963496901535 610.9006240043932 53.609528187251534Q617.7995320794579 49.80109287760153 624.0116964796 49.80109287760153Q633.6421031929574 49.80109287760153 638.9645726876593 56.23176078294947Q644.2870421823611 62.66242868829741 645.3952501196686 73.43226220827526L649.7968915795698 112.82824604233826Q650.0778423500626 115.34117925212641 650.6865912483406 116.53522240838683Q651.2953401466186 117.72926556464724 652.7781649890189 118.2131246956817L655.5253206952751 118.99354879519623Q656.9612838903914 119.44617953025647 657.6636608166239 120.30462698639973Q658.3660377428562 121.16307444254298 658.3660377428562 122.27125379986633Q658.3660377428562 123.80084502293705 657.3749220004601 124.66709481474317Q656.3838062580639 125.53334460654929 654.0738004621401 125.53334460654929H623.7311934621914Q619.3765184428495 125.53334460654929 619.3765184428495 122.08395963731193Q619.3765184428495 119.97685267526816 621.7802189533575 119.00915346652198L624.7459162714649 118.18190582636885Q626.2599599831782 117.68244202400864 627.0560030440106 116.49620120341109Q627.8520461048429 115.30996038281356 627.5710953343499 112.85946491165112L623.5440421995576 76.60069640701967Q622.7635990467203 69.81089242130676 620.0554788354318 66.392578658131Q617.3473586241435 62.97426489495524 612.0560032054793 62.97426489495524Q608.9030307781402 62.97426489495524 605.4222649863466 64.68343368486984Q601.9414991945531 66.39260247478443 597.9768266384183 69.77974023862349ZM692.0178925232743 14.494599916956574V117.18264478850045L682.9964490580755 124.79978215431883Q679.0788763157591 126.31376870606383 677.408823997434 126.84445137773689Q675.7387716791088 127.37513404940995 674.0999191767737 127.37513404940995Q672.33621025051 127.37513404940995 671.2202333208545 126.33719476637518Q670.104256391199 125.29925548334042 670.104256391199 123.20776271928376V27.636686438256618Q670.104256391199 25.607612359502937 669.487724210581 24.764764811354745Q668.8711920299629 23.921917263206552 667.5132521914752 23.68779956001356L663.4236851047663 23.32881590623053Q661.9721077116628 23.00105112176034 661.3789920646948 22.322100255839295Q660.7858764177267 21.64314938991825 660.7858764177267 20.488146491956314Q660.7858764177267 19.255110710704272 661.5272650222735 18.443486795199625Q662.2686536268202 17.631862879694978 664.3445417195511 16.89828137414179L678.860239437294 11.575878566069534Q681.935045608084 10.452094537420436 683.7377900293155 9.976047268710218Q685.540534450547 9.5 686.8360079704247 9.5Q689.4425596815059 9.5 690.7302261023901 10.87351116649851Q692.0178925232743 12.24702233299702 692.0178925232743 14.494599916956574ZM687.6007702386453 74.69641206556507 684.0733714394406 70.18560459301335Q690.2699121149342 60.602069053601284 698.3238754845983 55.20158096560141Q706.3778388542623 49.80109287760153 716.1955206768515 49.80109287760153Q725.4201297224488 49.80109287760153 732.654657314284 54.53046101532735Q739.8891849061192 59.25982915305316 744.0800585098477 67.54792927923299Q748.2709321135762 75.8360294054128 748.2709321135762 86.65269599269064Q748.2709321135762 99.12385786027473 743.315253371651 108.27040544259779Q738.3595746297258 117.41695302492086 729.8763970586515 122.44286707780401Q721.3932194875771 127.46878113068715 710.8107182367991 127.46878113068715Q701.5392856505632 127.46878113068715 694.367176744031 123.09838235675232Q687.1950678374988 118.72798358281749 682.5281564917213 110.42425973198918L687.8816829024928 105.96030438006018Q691.7057800434368 112.31303466873175 696.4898788507392 115.47381419506453Q701.2739776580415 118.63459372139731 706.8307077558569 118.63459372139731Q712.1845199664695 118.63459372139731 716.3910935081374 115.4816498740422Q720.5976670498053 112.32870602668709 723.0092318192751 105.74968895046952Q725.4207965887448 99.17067187425195 725.4207965887448 89.0407346719046Q725.4207965887448 79.47268948388182 723.0560648865751 73.24485372578442Q720.6913331844053 67.01701796768702 716.6018280209952 63.92650233229625Q712.5123228575851 60.83598669690548 707.3145954668755 60.83598669690548Q701.6486326697799 60.83598669690548 696.6850515622473 64.24646954443425Q691.7214704547148 67.65695239196302 687.6007702386453 74.69641206556507ZM789.4148773026567 14.494599916956574V113.04677812752826Q789.4148773026567 115.43483586006498 790.1016638475553 116.58205071235611Q790.788450392454 117.72926556464724 792.1776186269159 118.18190582636885L795.1901299590007 118.96232992588338Q796.6573120234298 119.41496066094362 797.3752983843186 120.27340811708686Q798.0932847452075 121.13185557323011 798.0932847452075 122.27125379986633Q798.0932847452075 123.80084502293705 797.055340698842 124.66709481474317Q796.0173966524766 125.53334460654929 793.816652135817 125.53334460654929H763.052633270121Q760.8831076227743 125.53334460654929 759.8217518060895 124.66709481474317Q758.7603959894047 123.80084502293705 758.7603959894047 122.27125379986633Q758.7603959894047 121.16307444254298 759.4627729156372 120.30462698639973Q760.1651498418696 119.44617953025647 761.6791554469373 118.99354879519623L764.7072809770092 118.18190582636885Q766.1276680807839 117.69804669533438 766.8144546256826 116.58205071235611Q767.5012411705812 115.46605472937783 767.5012411705812 113.07799699684111V27.636686438256618Q767.5012411705812 25.607612359502937 766.8847089899632 24.764764811354745Q766.2681768093452 23.921917263206552 764.9102369708576 23.68779956001356L760.8206698841485 23.32881590623053Q759.3690924910452 23.00105112176034 758.7759768440771 22.322100255839295Q758.182861197109 21.64314938991825 758.182861197109 20.488146491956314Q758.182861197109 19.255110710704272 758.9242498016557 18.443486795199625Q759.6656384062024 17.631862879694978 761.7415264989335 16.89828137414179L776.2572242166764 11.575878566069534Q779.3320303874663 10.452094537420436 781.1503842433542 9.976047268710218Q782.9687380992422 9.5 784.2329927498071 9.5Q786.8395444608883 9.5 788.1272108817725 10.87351116649851Q789.4148773026567 12.24702233299702 789.4148773026567 14.494599916956574ZM879.1481774487618 79.41034701186982Q879.1481774487618 83.53091385468015 876.7913290588765 85.79410087329614Q874.4344806689912 88.05728789191213 869.8768591824623 88.05728789191213H821.2562948827862V82.06375084357376H853.1763169458881Q857.1408561287636 82.06375084357376 857.1408561287636 78.48943323711674Q857.1408561287636 68.18781607020213 853.3557087428351 62.84965140089152Q849.5705613569066 57.5114867315809 843.3426208055341 57.5114867315809Q838.4570344746462 57.5114867315809 834.7109035303627 60.44593660039151Q830.9647725860792 63.38038646920212 828.8497727850896 68.92147855237698Q826.7347729841 74.46257063555184 826.7347729841 82.22006430334957Q826.7347729841 97.34473479591267 833.821065725002 104.87588451619618Q840.9073584659039 112.40703423647967 852.6449769345804 112.40703423647967Q859.5284184749091 112.40703423647967 864.7339053313054 109.67545938489577Q869.9393921877017 106.94388453331187 872.8581135385888 101.9022610158279Q874.2003915457824 100.31022252747009 875.0198177969498 99.78734695479059Q875.8392440481174 99.26447138211108 876.7445245715606 99.26447138211108Q877.9931840774611 99.26447138211108 878.5394714204599 100.38045307509731Q879.0857587634588 101.49643476808353 879.0545398941459 103.02602599115426Q878.7111323317044 109.64399758571795 874.3641929613958 115.24741308758207Q870.0172535910872 120.8508285894462 862.6032818056673 124.15980486006667Q855.1893100202474 127.46878113068715 845.5277511242066 127.46878113068715Q834.2896821978428 127.46878113068715 825.5567822522497 122.82526250190634Q816.8238823066566 118.18174387312554 811.8448108477348 109.8077990013314Q806.865739388813 101.43385412953725 806.865739388813 90.18014242520218Q806.865739388813 78.3801814845138 811.595088473216 69.2882597784922Q816.3244375576191 60.19633807247061 825.1431774854959 54.99871547503607Q833.9619174133726 49.80109287760153 846.2144900357985 49.80109287760153Q856.6564635046924 49.80109287760153 864.0002095058157 53.57833789792279Q871.3439555069391 57.35558291824405 875.2460664778505 64.0438088770884Q879.1481774487618 70.73203483593272 879.1481774487618 79.41034701186982Z" fill="#f4f7fa"/><circle cx="909.148" cy="68.5" r="8" fill="#35e3b3"/></svg>
