<svg xmlns="http://www.w3.org/2000/svg" viewBox="0 0 512 512" width="512" height="512"><rect width="512" height="512" rx="114" fill="#35e3b3"/><path d="M388.98949019607846 223.89458823529412Q388.98949019607846 241.64392156862746 379.3317647058824 251.5626666666667Q369.6740392156863 261.4814117647059 351.4026666666667 261.4814117647059H196.61803921568628V234.8574117647059H266.3102745098039Q280.4053333333333 234.8574117647059 280.4053333333333 221.5454117647059Q280.4053333333333 188.13490196078433 272.70525490196076 173.7788235294118Q265.00517647058825 159.42274509803923 252.73725490196077 159.42274509803923Q243.60156862745097 159.42274509803923 236.29301960784312 166.2092549019608Q228.9844705882353 172.99576470588238 224.67764705882354 187.09082352941178Q220.37082352941178 201.18588235294118 220.37082352941178 222.8505098039216Q220.37082352941178 270.6170980392157 241.77443137254903 292.67325490196083Q263.1780392156863 314.7294117647059 300.2428235294118 314.7294117647059Q317.73113725490197 314.7294117647059 331.95670588235294 310.5530980392157Q346.18227450980396 306.3767843137255 359.4942745098039 294.10886274509807Q366.80282352941174 287.3223529411765 370.5876078431372 285.10368627450987Q374.3723921568627 282.88501960784316 378.02666666666664 282.88501960784316Q383.2470588235294 282.88501960784316 385.59623529411766 287.97490196078434Q387.9454117647059 293.0647843137255 387.9454117647059 300.37333333333333Q387.9454117647059 323.8650980392157 372.1537254901961 344.2246274509804Q356.3620392156863 364.58415686274515 328.4329411764706 376.85207843137255Q300.5038431372549 389.12 263.1780392156863 389.12Q223.5030588235294 389.12 191.78917647058822 373.3283137254902Q160.07529411764705 357.5366274509804 141.54290196078432 329.216Q123.01050980392156 300.8953725490196 123.01050980392156 263.04752941176474Q123.01050980392156 220.7623529411765 139.9767843137255 189.30949019607846Q156.9430588235294 157.8566274509804 189.30949019607843 140.3683137254902Q221.67592156862744 122.88 267.35435294117644 122.88Q307.81239215686276 122.88 334.82792156862746 135.93098039215687Q361.84345098039216 148.98196078431374 375.4164705882353 171.82117647058826Q388.98949019607846 194.66039215686277 388.98949019607846 223.89458823529412Z" fill="#11151a"/></svg>
