<svg xmlns="http://www.w3.org/2000/svg" viewBox="0 0 512 512" width="512" height="512"><path d="M440.13929411764707 211.54635294117645Q440.13929411764707 236.12235294117644 426.7670588235294 249.856Q413.3948235294117 263.5896470588235 388.096 263.5896470588235H173.77882352941177V226.7256470588235H270.27576470588235Q289.79200000000003 226.7256470588235 289.79200000000003 208.2936470588235Q289.79200000000003 162.03294117647056 279.1303529411765 142.15529411764703Q268.46870588235294 122.2776470588235 251.48235294117646 122.2776470588235Q238.8329411764706 122.2776470588235 228.71341176470588 131.67435294117644Q218.59388235294116 141.07105882352937 212.6305882352941 160.58729411764702Q206.66729411764706 180.10352941176467 206.66729411764706 210.1007058823529Q206.66729411764706 276.2390588235294 236.3030588235294 306.7783529411764Q265.93882352941176 337.31764705882347 317.2592941176471 337.31764705882347Q341.47388235294113 337.31764705882347 361.17082352941173 331.53505882352937Q380.86776470588234 325.75247058823527 399.29976470588235 308.76611764705876Q409.41929411764704 299.3694117647059 414.6597647058823 296.2974117647059Q419.9002352941176 293.2254117647059 424.96000000000004 293.2254117647059Q432.1882352941176 293.2254117647059 435.4409411764706 300.27294117647057Q438.69364705882356 307.32047058823525 438.69364705882356 317.43999999999994Q438.69364705882356 349.9670588235294 416.82823529411763 378.1571764705882Q394.9628235294117 406.34729411764704 356.2917647058823 423.3336470588235Q317.6207058823529 440.31999999999994 265.93882352941176 440.31999999999994Q211.00423529411765 440.31999999999994 167.09270588235296 418.45458823529407Q123.18117647058824 396.5891764705882 97.5209411764706 357.376Q71.86070588235296 318.16282352941175 71.86070588235296 265.7581176470588Q71.86070588235296 207.20941176470586 95.3524705882353 163.65929411764705Q118.84423529411765 120.10917647058824 163.65929411764705 95.89458823529412Q208.47435294117648 71.68 271.72141176470586 71.68Q327.7402352941176 71.68 365.1463529411764 89.75058823529412Q402.5524705882352 107.82117647058823 421.34588235294115 139.44470588235293Q440.13929411764707 171.06823529411764 440.13929411764707 211.54635294117645Z" fill="#ffffff" stroke="#11151a" stroke-width="22" stroke-linejoin="round" paint-order="stroke"/></svg>
