<svg xmlns="http://www.w3.org/2000/svg" xmlns:svg="http://www.w3.org/2000/svg"
     role="img" aria-label="ondaire"
     width="68" height="66" viewBox="-15 -48 68 66">
  <rect
     x="-6.7"
     y="-40.0"
     width="51.6"
     height="49.8"
     rx="0"
     fill="#35e3b3"/>
  <path
     d="M19.1999453125 -31.03995703125Q24.153515625 -31.03995703125 27.894296875000002 -29.014359375Q31.635078125 -26.988761718750002 33.727869140625 -23.395167968750002Q35.82066015625 -19.80157421875 35.82066015625 -15.05278515625Q35.82066015625 -10.53438671875 33.667072265625 -6.953591796875Q31.513484375 -3.372796875 27.71190625 -1.2896015625000001Q23.910328125 0.79359375 18.87995703125 0.79359375Q13.9455859375 0.79359375 10.211205078125001 -1.2512031250000002Q6.47682421875 -3.2960000000000003 4.368033203125 -6.895994140625Q2.2592421875 -10.49598828125 2.2592421875 -15.193578125Q2.2592421875 -19.782375000000002 4.4224296875 -23.347169921875Q6.5856171875000005 -26.91196484375 10.387195312500001 -28.9759609375Q14.1887734375 -31.03995703125 19.1999453125 -31.03995703125ZM21.47194140625 -2.5471328125Q23.66080078125 -2.89913671875 24.99204296875 -4.56315234375Q26.32328515625 -6.22716796875 26.675310546875004 -9.167982421875Q27.027335937500002 -12.108796875 26.25934375 -16.268796875Q25.52975 -20.35200390625 24.11852734375 -23.024013671875Q22.7073046875 -25.6960234375 20.796861328124997 -26.88962890625Q18.88641796875 -28.083234375 16.62716015625 -27.69923046875Q14.43830078125 -27.3472265625 13.10705859375 -25.6832109375Q11.77581640625 -24.0191953125 11.433390625000001 -21.08798046875Q11.090964843750001 -18.156765625000002 11.8397578125 -13.97756640625Q12.58215234375 -9.91355859375 13.986974609375 -7.23194921875Q15.391796875 -4.55033984375 17.308640625000002 -3.366333984375Q19.225484375 -2.182328125 21.47194140625 -2.5471328125Z"
     fill="#11151a" />
</svg>
