<?xml version="1.0" encoding="utf-8" standalone="no"?>
<!DOCTYPE svg PUBLIC "-//W3C//DTD SVG 1.1//EN"
  "http://www.w3.org/Graphics/SVG/1.1/DTD/svg11.dtd">
<svg xmlns:xlink="http://www.w3.org/1999/xlink" width="792pt" height="331.2pt" viewBox="0 0 792 331.2" xmlns="http://www.w3.org/2000/svg" version="1.1">
 <metadata>
  <rdf:RDF xmlns:dc="http://purl.org/dc/elements/1.1/" xmlns:cc="http://creativecommons.org/ns#" xmlns:rdf="http://www.w3.org/1999/02/22-rdf-syntax-ns#">
   <cc:Work>
    <dc:type rdf:resource="http://purl.org/dc/dcmitype/StillImage"/>
    <dc:date>2026-06-27T10:51:49.060551</dc:date>
    <dc:format>image/svg+xml</dc:format>
    <dc:creator>
     <cc:Agent>
      <dc:title>Matplotlib v3.11.0, https://matplotlib.org/</dc:title>
     </cc:Agent>
    </dc:creator>
   </cc:Work>
  </rdf:RDF>
 </metadata>
 <defs>
  <style type="text/css">*{stroke-linejoin: round; stroke-linecap: butt}</style>
 </defs>
 <g id="figure_1">
  <g id="patch_1">
   <path d="M 0 331.2 
L 792 331.2 
L 792 0 
L 0 0 
z
" style="fill: #11151a"/>
  </g>
  <g id="axes_1">
   <g id="patch_2">
    <path d="M 44.452344 289.347656 
L 781.2 289.347656 
L 781.2 10.8 
L 44.452344 10.8 
z
" style="fill: #11151a"/>
   </g>
   <g id="matplotlib.axis_1">
    <g id="xtick_1">
     <g id="line2d_1">
      <path d="M 119.87232 289.347656 
L 119.87232 10.8 
" clip-path="url(#p67c50c4675)" style="fill: none; stroke: #2a3340; stroke-opacity: 0.5; stroke-width: 0.8; stroke-linecap: square"/>
     </g>
     <g id="line2d_2">
      <defs>
       <path id="me3032909d3" d="M 0 0 
L 0 3.5 
" style="stroke: #8b97a7; stroke-width: 0.8"/>
      </defs>
      <g>
       <use xlink:href="#me3032909d3" x="119.87232" y="289.347656" style="fill: #8b97a7; stroke: #8b97a7; stroke-width: 0.8"/>
      </g>
     </g>
     <g id="text_1">
      <!-- 2.5 -->
      <g style="fill: #8b97a7" transform="translate(111.920758 303.945312) scale(0.1 -0.1)">
       <defs>
        <path id="DejaVuSans-15" d="M 1228 531 
L 3431 531 
L 3431 0 
L 469 0 
L 469 531 
Q 828 903 1448 1529 
Q 2069 2156 2228 2338 
Q 2531 2678 2651 2914 
Q 2772 3150 2772 3378 
Q 2772 3750 2511 3984 
Q 2250 4219 1831 4219 
Q 1534 4219 1204 4116 
Q 875 4013 500 3803 
L 500 4441 
Q 881 4594 1212 4672 
Q 1544 4750 1819 4750 
Q 2544 4750 2975 4387 
Q 3406 4025 3406 3419 
Q 3406 3131 3298 2873 
Q 3191 2616 2906 2266 
Q 2828 2175 2409 1742 
Q 1991 1309 1228 531 
z
" transform="scale(0.015625)"/>
        <path id="DejaVuSans-11" d="M 684 794 
L 1344 794 
L 1344 0 
L 684 0 
L 684 794 
z
" transform="scale(0.015625)"/>
        <path id="DejaVuSans-18" d="M 691 4666 
L 3169 4666 
L 3169 4134 
L 1269 4134 
L 1269 2991 
Q 1406 3038 1543 3061 
Q 1681 3084 1819 3084 
Q 2600 3084 3056 2656 
Q 3513 2228 3513 1497 
Q 3513 744 3044 326 
Q 2575 -91 1722 -91 
Q 1428 -91 1123 -41 
Q 819 9 494 109 
L 494 744 
Q 775 591 1075 516 
Q 1375 441 1709 441 
Q 2250 441 2565 725 
Q 2881 1009 2881 1497 
Q 2881 1984 2565 2268 
Q 2250 2553 1709 2553 
Q 1456 2553 1204 2497 
Q 953 2441 691 2322 
L 691 4666 
z
" transform="scale(0.015625)"/>
       </defs>
       <use xlink:href="#DejaVuSans-15"/>
       <use xlink:href="#DejaVuSans-11" transform="translate(63.625 0)"/>
       <use xlink:href="#DejaVuSans-18" transform="translate(95.40625 0)"/>
      </g>
     </g>
    </g>
    <g id="xtick_2">
     <g id="line2d_3">
      <path d="M 217.617983 289.347656 
L 217.617983 10.8 
" clip-path="url(#p67c50c4675)" style="fill: none; stroke: #2a3340; stroke-opacity: 0.5; stroke-width: 0.8; stroke-linecap: square"/>
     </g>
     <g id="line2d_4">
      <g>
       <use xlink:href="#me3032909d3" x="217.617983" y="289.347656" style="fill: #8b97a7; stroke: #8b97a7; stroke-width: 0.8"/>
      </g>
     </g>
     <g id="text_2">
      <!-- 5.0 -->
      <g style="fill: #8b97a7" transform="translate(209.66642 303.945312) scale(0.1 -0.1)">
       <defs>
        <path id="DejaVuSans-13" d="M 2034 4250 
Q 1547 4250 1301 3770 
Q 1056 3291 1056 2328 
Q 1056 1369 1301 889 
Q 1547 409 2034 409 
Q 2525 409 2770 889 
Q 3016 1369 3016 2328 
Q 3016 3291 2770 3770 
Q 2525 4250 2034 4250 
z
M 2034 4750 
Q 2819 4750 3233 4129 
Q 3647 3509 3647 2328 
Q 3647 1150 3233 529 
Q 2819 -91 2034 -91 
Q 1250 -91 836 529 
Q 422 1150 422 2328 
Q 422 3509 836 4129 
Q 1250 4750 2034 4750 
z
" transform="scale(0.015625)"/>
       </defs>
       <use xlink:href="#DejaVuSans-18"/>
       <use xlink:href="#DejaVuSans-11" transform="translate(63.625 0)"/>
       <use xlink:href="#DejaVuSans-13" transform="translate(95.40625 0)"/>
      </g>
     </g>
    </g>
    <g id="xtick_3">
     <g id="line2d_5">
      <path d="M 315.363646 289.347656 
L 315.363646 10.8 
" clip-path="url(#p67c50c4675)" style="fill: none; stroke: #2a3340; stroke-opacity: 0.5; stroke-width: 0.8; stroke-linecap: square"/>
     </g>
     <g id="line2d_6">
      <g>
       <use xlink:href="#me3032909d3" x="315.363646" y="289.347656" style="fill: #8b97a7; stroke: #8b97a7; stroke-width: 0.8"/>
      </g>
     </g>
     <g id="text_3">
      <!-- 7.5 -->
      <g style="fill: #8b97a7" transform="translate(307.412083 303.945312) scale(0.1 -0.1)">
       <defs>
        <path id="DejaVuSans-1a" d="M 525 4666 
L 3525 4666 
L 3525 4397 
L 1831 0 
L 1172 0 
L 2766 4134 
L 525 4134 
L 525 4666 
z
" transform="scale(0.015625)"/>
       </defs>
       <use xlink:href="#DejaVuSans-1a"/>
       <use xlink:href="#DejaVuSans-11" transform="translate(63.625 0)"/>
       <use xlink:href="#DejaVuSans-18" transform="translate(95.40625 0)"/>
      </g>
     </g>
    </g>
    <g id="xtick_4">
     <g id="line2d_7">
      <path d="M 413.109308 289.347656 
L 413.109308 10.8 
" clip-path="url(#p67c50c4675)" style="fill: none; stroke: #2a3340; stroke-opacity: 0.5; stroke-width: 0.8; stroke-linecap: square"/>
     </g>
     <g id="line2d_8">
      <g>
       <use xlink:href="#me3032909d3" x="413.109308" y="289.347656" style="fill: #8b97a7; stroke: #8b97a7; stroke-width: 0.8"/>
      </g>
     </g>
     <g id="text_4">
      <!-- 10.0 -->
      <g style="fill: #8b97a7" transform="translate(401.976496 303.945312) scale(0.1 -0.1)">
       <defs>
        <path id="DejaVuSans-14" d="M 794 531 
L 1825 531 
L 1825 4091 
L 703 3866 
L 703 4441 
L 1819 4666 
L 2450 4666 
L 2450 531 
L 3481 531 
L 3481 0 
L 794 0 
L 794 531 
z
" transform="scale(0.015625)"/>
       </defs>
       <use xlink:href="#DejaVuSans-14"/>
       <use xlink:href="#DejaVuSans-13" transform="translate(63.625 0)"/>
       <use xlink:href="#DejaVuSans-11" transform="translate(127.25 0)"/>
       <use xlink:href="#DejaVuSans-13" transform="translate(159.03125 0)"/>
      </g>
     </g>
    </g>
    <g id="xtick_5">
     <g id="line2d_9">
      <path d="M 510.854971 289.347656 
L 510.854971 10.8 
" clip-path="url(#p67c50c4675)" style="fill: none; stroke: #2a3340; stroke-opacity: 0.5; stroke-width: 0.8; stroke-linecap: square"/>
     </g>
     <g id="line2d_10">
      <g>
       <use xlink:href="#me3032909d3" x="510.854971" y="289.347656" style="fill: #8b97a7; stroke: #8b97a7; stroke-width: 0.8"/>
      </g>
     </g>
     <g id="text_5">
      <!-- 12.5 -->
      <g style="fill: #8b97a7" transform="translate(499.722159 303.945312) scale(0.1 -0.1)">
       <use xlink:href="#DejaVuSans-14"/>
       <use xlink:href="#DejaVuSans-15" transform="translate(63.625 0)"/>
       <use xlink:href="#DejaVuSans-11" transform="translate(127.25 0)"/>
       <use xlink:href="#DejaVuSans-18" transform="translate(159.03125 0)"/>
      </g>
     </g>
    </g>
    <g id="xtick_6">
     <g id="line2d_11">
      <path d="M 608.600634 289.347656 
L 608.600634 10.8 
" clip-path="url(#p67c50c4675)" style="fill: none; stroke: #2a3340; stroke-opacity: 0.5; stroke-width: 0.8; stroke-linecap: square"/>
     </g>
     <g id="line2d_12">
      <g>
       <use xlink:href="#me3032909d3" x="608.600634" y="289.347656" style="fill: #8b97a7; stroke: #8b97a7; stroke-width: 0.8"/>
      </g>
     </g>
     <g id="text_6">
      <!-- 15.0 -->
      <g style="fill: #8b97a7" transform="translate(597.467822 303.945312) scale(0.1 -0.1)">
       <use xlink:href="#DejaVuSans-14"/>
       <use xlink:href="#DejaVuSans-18" transform="translate(63.625 0)"/>
       <use xlink:href="#DejaVuSans-11" transform="translate(127.25 0)"/>
       <use xlink:href="#DejaVuSans-13" transform="translate(159.03125 0)"/>
      </g>
     </g>
    </g>
    <g id="xtick_7">
     <g id="line2d_13">
      <path d="M 706.346297 289.347656 
L 706.346297 10.8 
" clip-path="url(#p67c50c4675)" style="fill: none; stroke: #2a3340; stroke-opacity: 0.5; stroke-width: 0.8; stroke-linecap: square"/>
     </g>
     <g id="line2d_14">
      <g>
       <use xlink:href="#me3032909d3" x="706.346297" y="289.347656" style="fill: #8b97a7; stroke: #8b97a7; stroke-width: 0.8"/>
      </g>
     </g>
     <g id="text_7">
      <!-- 17.5 -->
      <g style="fill: #8b97a7" transform="translate(695.213484 303.945312) scale(0.1 -0.1)">
       <use xlink:href="#DejaVuSans-14"/>
       <use xlink:href="#DejaVuSans-1a" transform="translate(63.625 0)"/>
       <use xlink:href="#DejaVuSans-11" transform="translate(127.25 0)"/>
       <use xlink:href="#DejaVuSans-18" transform="translate(159.03125 0)"/>
      </g>
     </g>
    </g>
    <g id="text_8">
     <!-- time (minutes) -->
     <g style="fill: #8b97a7" transform="translate(375.801172 317.946094) scale(0.1 -0.1)">
      <defs>
       <path id="DejaVuSans-57" d="M 1172 4494 
L 1172 3500 
L 2356 3500 
L 2356 3053 
L 1172 3053 
L 1172 1153 
Q 1172 725 1289 603 
Q 1406 481 1766 481 
L 2356 481 
L 2356 0 
L 1766 0 
Q 1100 0 847 248 
Q 594 497 594 1153 
L 594 3053 
L 172 3053 
L 172 3500 
L 594 3500 
L 594 4494 
L 1172 4494 
z
" transform="scale(0.015625)"/>
       <path id="DejaVuSans-4c" d="M 603 3500 
L 1178 3500 
L 1178 0 
L 603 0 
L 603 3500 
z
M 603 4863 
L 1178 4863 
L 1178 4134 
L 603 4134 
L 603 4863 
z
" transform="scale(0.015625)"/>
       <path id="DejaVuSans-50" d="M 3328 2828 
Q 3544 3216 3844 3400 
Q 4144 3584 4550 3584 
Q 5097 3584 5394 3201 
Q 5691 2819 5691 2113 
L 5691 0 
L 5113 0 
L 5113 2094 
Q 5113 2597 4934 2840 
Q 4756 3084 4391 3084 
Q 3944 3084 3684 2787 
Q 3425 2491 3425 1978 
L 3425 0 
L 2847 0 
L 2847 2094 
Q 2847 2600 2669 2842 
Q 2491 3084 2119 3084 
Q 1678 3084 1418 2786 
Q 1159 2488 1159 1978 
L 1159 0 
L 581 0 
L 581 3500 
L 1159 3500 
L 1159 2956 
Q 1356 3278 1631 3431 
Q 1906 3584 2284 3584 
Q 2666 3584 2933 3390 
Q 3200 3197 3328 2828 
z
" transform="scale(0.015625)"/>
       <path id="DejaVuSans-48" d="M 3597 1894 
L 3597 1613 
L 953 1613 
Q 991 1019 1311 708 
Q 1631 397 2203 397 
Q 2534 397 2845 478 
Q 3156 559 3463 722 
L 3463 178 
Q 3153 47 2828 -22 
Q 2503 -91 2169 -91 
Q 1331 -91 842 396 
Q 353 884 353 1716 
Q 353 2575 817 3079 
Q 1281 3584 2069 3584 
Q 2775 3584 3186 3129 
Q 3597 2675 3597 1894 
z
M 3022 2063 
Q 3016 2534 2758 2815 
Q 2500 3097 2075 3097 
Q 1594 3097 1305 2825 
Q 1016 2553 972 2059 
L 3022 2063 
z
" transform="scale(0.015625)"/>
       <path id="DejaVuSans-3" transform="scale(0.015625)"/>
       <path id="DejaVuSans-b" d="M 1984 4856 
Q 1566 4138 1362 3434 
Q 1159 2731 1159 2009 
Q 1159 1288 1364 580 
Q 1569 -128 1984 -844 
L 1484 -844 
Q 1016 -109 783 600 
Q 550 1309 550 2009 
Q 550 2706 781 3412 
Q 1013 4119 1484 4856 
L 1984 4856 
z
" transform="scale(0.015625)"/>
       <path id="DejaVuSans-51" d="M 3513 2113 
L 3513 0 
L 2938 0 
L 2938 2094 
Q 2938 2591 2744 2837 
Q 2550 3084 2163 3084 
Q 1697 3084 1428 2787 
Q 1159 2491 1159 1978 
L 1159 0 
L 581 0 
L 581 3500 
L 1159 3500 
L 1159 2956 
Q 1366 3272 1645 3428 
Q 1925 3584 2291 3584 
Q 2894 3584 3203 3211 
Q 3513 2838 3513 2113 
z
" transform="scale(0.015625)"/>
       <path id="DejaVuSans-58" d="M 544 1381 
L 544 3500 
L 1119 3500 
L 1119 1403 
Q 1119 906 1312 657 
Q 1506 409 1894 409 
Q 2359 409 2629 706 
Q 2900 1003 2900 1516 
L 2900 3500 
L 3475 3500 
L 3475 0 
L 2900 0 
L 2900 538 
Q 2691 219 2414 64 
Q 2138 -91 1772 -91 
Q 1169 -91 856 284 
Q 544 659 544 1381 
z
M 1991 3584 
L 1991 3584 
z
" transform="scale(0.015625)"/>
       <path id="DejaVuSans-56" d="M 2834 3397 
L 2834 2853 
Q 2591 2978 2328 3040 
Q 2066 3103 1784 3103 
Q 1356 3103 1142 2972 
Q 928 2841 928 2578 
Q 928 2378 1081 2264 
Q 1234 2150 1697 2047 
L 1894 2003 
Q 2506 1872 2764 1633 
Q 3022 1394 3022 966 
Q 3022 478 2636 193 
Q 2250 -91 1575 -91 
Q 1294 -91 989 -36 
Q 684 19 347 128 
L 347 722 
Q 666 556 975 473 
Q 1284 391 1588 391 
Q 1994 391 2212 530 
Q 2431 669 2431 922 
Q 2431 1156 2273 1281 
Q 2116 1406 1581 1522 
L 1381 1569 
Q 847 1681 609 1914 
Q 372 2147 372 2553 
Q 372 3047 722 3315 
Q 1072 3584 1716 3584 
Q 2034 3584 2315 3537 
Q 2597 3491 2834 3397 
z
" transform="scale(0.015625)"/>
       <path id="DejaVuSans-c" d="M 513 4856 
L 1013 4856 
Q 1481 4119 1714 3412 
Q 1947 2706 1947 2009 
Q 1947 1309 1714 600 
Q 1481 -109 1013 -844 
L 513 -844 
Q 928 -128 1133 580 
Q 1338 1288 1338 2009 
Q 1338 2731 1133 3434 
Q 928 4138 513 4856 
z
" transform="scale(0.015625)"/>
      </defs>
      <use xlink:href="#DejaVuSans-57"/>
      <use xlink:href="#DejaVuSans-4c" transform="translate(39.203125 0)"/>
      <use xlink:href="#DejaVuSans-50" transform="translate(66.984375 0)"/>
      <use xlink:href="#DejaVuSans-48" transform="translate(164.390625 0)"/>
      <use xlink:href="#DejaVuSans-3" transform="translate(225.921875 0)"/>
      <use xlink:href="#DejaVuSans-b" transform="translate(257.703125 0)"/>
      <use xlink:href="#DejaVuSans-50" transform="translate(296.71875 0)"/>
      <use xlink:href="#DejaVuSans-4c" transform="translate(394.125 0)"/>
      <use xlink:href="#DejaVuSans-51" transform="translate(421.90625 0)"/>
      <use xlink:href="#DejaVuSans-58" transform="translate(485.28125 0)"/>
      <use xlink:href="#DejaVuSans-57" transform="translate(548.65625 0)"/>
      <use xlink:href="#DejaVuSans-48" transform="translate(587.859375 0)"/>
      <use xlink:href="#DejaVuSans-56" transform="translate(649.390625 0)"/>
      <use xlink:href="#DejaVuSans-c" transform="translate(701.484375 0)"/>
     </g>
    </g>
   </g>
   <g id="matplotlib.axis_2">
    <g id="ytick_1">
     <g id="line2d_15">
      <path d="M 44.452344 276.686399 
L 781.2 276.686399 
" clip-path="url(#p67c50c4675)" style="fill: none; stroke: #2a3340; stroke-opacity: 0.5; stroke-width: 0.8; stroke-linecap: square"/>
     </g>
     <g id="line2d_16">
      <defs>
       <path id="medf784f2ea" d="M 0 0 
L -3.5 0 
" style="stroke: #8b97a7; stroke-width: 0.8"/>
      </defs>
      <g>
       <use xlink:href="#medf784f2ea" x="44.452344" y="276.686399" style="fill: #8b97a7; stroke: #8b97a7; stroke-width: 0.8"/>
      </g>
     </g>
     <g id="text_9">
      <!-- 0 -->
      <g style="fill: #8b97a7" transform="translate(31.089844 280.485227) scale(0.1 -0.1)">
       <use xlink:href="#DejaVuSans-13"/>
      </g>
     </g>
    </g>
    <g id="ytick_2">
     <g id="line2d_17">
      <path d="M 44.452344 244.913552 
L 781.2 244.913552 
" clip-path="url(#p67c50c4675)" style="fill: none; stroke: #2a3340; stroke-opacity: 0.5; stroke-width: 0.8; stroke-linecap: square"/>
     </g>
     <g id="line2d_18">
      <g>
       <use xlink:href="#medf784f2ea" x="44.452344" y="244.913552" style="fill: #8b97a7; stroke: #8b97a7; stroke-width: 0.8"/>
      </g>
     </g>
     <g id="text_10">
      <!-- 2 -->
      <g style="fill: #8b97a7" transform="translate(31.089844 248.71238) scale(0.1 -0.1)">
       <use xlink:href="#DejaVuSans-15"/>
      </g>
     </g>
    </g>
    <g id="ytick_3">
     <g id="line2d_19">
      <path d="M 44.452344 213.140705 
L 781.2 213.140705 
" clip-path="url(#p67c50c4675)" style="fill: none; stroke: #2a3340; stroke-opacity: 0.5; stroke-width: 0.8; stroke-linecap: square"/>
     </g>
     <g id="line2d_20">
      <g>
       <use xlink:href="#medf784f2ea" x="44.452344" y="213.140705" style="fill: #8b97a7; stroke: #8b97a7; stroke-width: 0.8"/>
      </g>
     </g>
     <g id="text_11">
      <!-- 4 -->
      <g style="fill: #8b97a7" transform="translate(31.089844 216.939533) scale(0.1 -0.1)">
       <defs>
        <path id="DejaVuSans-17" d="M 2419 4116 
L 825 1625 
L 2419 1625 
L 2419 4116 
z
M 2253 4666 
L 3047 4666 
L 3047 1625 
L 3713 1625 
L 3713 1100 
L 3047 1100 
L 3047 0 
L 2419 0 
L 2419 1100 
L 313 1100 
L 313 1709 
L 2253 4666 
z
" transform="scale(0.015625)"/>
       </defs>
       <use xlink:href="#DejaVuSans-17"/>
      </g>
     </g>
    </g>
    <g id="ytick_4">
     <g id="line2d_21">
      <path d="M 44.452344 181.367858 
L 781.2 181.367858 
" clip-path="url(#p67c50c4675)" style="fill: none; stroke: #2a3340; stroke-opacity: 0.5; stroke-width: 0.8; stroke-linecap: square"/>
     </g>
     <g id="line2d_22">
      <g>
       <use xlink:href="#medf784f2ea" x="44.452344" y="181.367858" style="fill: #8b97a7; stroke: #8b97a7; stroke-width: 0.8"/>
      </g>
     </g>
     <g id="text_12">
      <!-- 6 -->
      <g style="fill: #8b97a7" transform="translate(31.089844 185.166686) scale(0.1 -0.1)">
       <defs>
        <path id="DejaVuSans-19" d="M 2113 2584 
Q 1688 2584 1439 2293 
Q 1191 2003 1191 1497 
Q 1191 994 1439 701 
Q 1688 409 2113 409 
Q 2538 409 2786 701 
Q 3034 994 3034 1497 
Q 3034 2003 2786 2293 
Q 2538 2584 2113 2584 
z
M 3366 4563 
L 3366 3988 
Q 3128 4100 2886 4159 
Q 2644 4219 2406 4219 
Q 1781 4219 1451 3797 
Q 1122 3375 1075 2522 
Q 1259 2794 1537 2939 
Q 1816 3084 2150 3084 
Q 2853 3084 3261 2657 
Q 3669 2231 3669 1497 
Q 3669 778 3244 343 
Q 2819 -91 2113 -91 
Q 1303 -91 875 529 
Q 447 1150 447 2328 
Q 447 3434 972 4092 
Q 1497 4750 2381 4750 
Q 2619 4750 2861 4703 
Q 3103 4656 3366 4563 
z
" transform="scale(0.015625)"/>
       </defs>
       <use xlink:href="#DejaVuSans-19"/>
      </g>
     </g>
    </g>
    <g id="ytick_5">
     <g id="line2d_23">
      <path d="M 44.452344 149.595011 
L 781.2 149.595011 
" clip-path="url(#p67c50c4675)" style="fill: none; stroke: #2a3340; stroke-opacity: 0.5; stroke-width: 0.8; stroke-linecap: square"/>
     </g>
     <g id="line2d_24">
      <g>
       <use xlink:href="#medf784f2ea" x="44.452344" y="149.595011" style="fill: #8b97a7; stroke: #8b97a7; stroke-width: 0.8"/>
      </g>
     </g>
     <g id="text_13">
      <!-- 8 -->
      <g style="fill: #8b97a7" transform="translate(31.089844 153.393839) scale(0.1 -0.1)">
       <defs>
        <path id="DejaVuSans-1b" d="M 2034 2216 
Q 1584 2216 1326 1975 
Q 1069 1734 1069 1313 
Q 1069 891 1326 650 
Q 1584 409 2034 409 
Q 2484 409 2743 651 
Q 3003 894 3003 1313 
Q 3003 1734 2745 1975 
Q 2488 2216 2034 2216 
z
M 1403 2484 
Q 997 2584 770 2862 
Q 544 3141 544 3541 
Q 544 4100 942 4425 
Q 1341 4750 2034 4750 
Q 2731 4750 3128 4425 
Q 3525 4100 3525 3541 
Q 3525 3141 3298 2862 
Q 3072 2584 2669 2484 
Q 3125 2378 3379 2068 
Q 3634 1759 3634 1313 
Q 3634 634 3220 271 
Q 2806 -91 2034 -91 
Q 1263 -91 848 271 
Q 434 634 434 1313 
Q 434 1759 690 2068 
Q 947 2378 1403 2484 
z
M 1172 3481 
Q 1172 3119 1398 2916 
Q 1625 2713 2034 2713 
Q 2441 2713 2670 2916 
Q 2900 3119 2900 3481 
Q 2900 3844 2670 4047 
Q 2441 4250 2034 4250 
Q 1625 4250 1398 4047 
Q 1172 3844 1172 3481 
z
" transform="scale(0.015625)"/>
       </defs>
       <use xlink:href="#DejaVuSans-1b"/>
      </g>
     </g>
    </g>
    <g id="ytick_6">
     <g id="line2d_25">
      <path d="M 44.452344 117.822164 
L 781.2 117.822164 
" clip-path="url(#p67c50c4675)" style="fill: none; stroke: #2a3340; stroke-opacity: 0.5; stroke-width: 0.8; stroke-linecap: square"/>
     </g>
     <g id="line2d_26">
      <g>
       <use xlink:href="#medf784f2ea" x="44.452344" y="117.822164" style="fill: #8b97a7; stroke: #8b97a7; stroke-width: 0.8"/>
      </g>
     </g>
     <g id="text_14">
      <!-- 10 -->
      <g style="fill: #8b97a7" transform="translate(24.727344 121.620992) scale(0.1 -0.1)">
       <use xlink:href="#DejaVuSans-14"/>
       <use xlink:href="#DejaVuSans-13" transform="translate(63.625 0)"/>
      </g>
     </g>
    </g>
    <g id="ytick_7">
     <g id="line2d_27">
      <path d="M 44.452344 86.049317 
L 781.2 86.049317 
" clip-path="url(#p67c50c4675)" style="fill: none; stroke: #2a3340; stroke-opacity: 0.5; stroke-width: 0.8; stroke-linecap: square"/>
     </g>
     <g id="line2d_28">
      <g>
       <use xlink:href="#medf784f2ea" x="44.452344" y="86.049317" style="fill: #8b97a7; stroke: #8b97a7; stroke-width: 0.8"/>
      </g>
     </g>
     <g id="text_15">
      <!-- 12 -->
      <g style="fill: #8b97a7" transform="translate(24.727344 89.848145) scale(0.1 -0.1)">
       <use xlink:href="#DejaVuSans-14"/>
       <use xlink:href="#DejaVuSans-15" transform="translate(63.625 0)"/>
      </g>
     </g>
    </g>
    <g id="ytick_8">
     <g id="line2d_29">
      <path d="M 44.452344 54.27647 
L 781.2 54.27647 
" clip-path="url(#p67c50c4675)" style="fill: none; stroke: #2a3340; stroke-opacity: 0.5; stroke-width: 0.8; stroke-linecap: square"/>
     </g>
     <g id="line2d_30">
      <g>
       <use xlink:href="#medf784f2ea" x="44.452344" y="54.27647" style="fill: #8b97a7; stroke: #8b97a7; stroke-width: 0.8"/>
      </g>
     </g>
     <g id="text_16">
      <!-- 14 -->
      <g style="fill: #8b97a7" transform="translate(24.727344 58.075299) scale(0.1 -0.1)">
       <use xlink:href="#DejaVuSans-14"/>
       <use xlink:href="#DejaVuSans-17" transform="translate(63.625 0)"/>
      </g>
     </g>
    </g>
    <g id="ytick_9">
     <g id="line2d_31">
      <path d="M 44.452344 22.503623 
L 781.2 22.503623 
" clip-path="url(#p67c50c4675)" style="fill: none; stroke: #2a3340; stroke-opacity: 0.5; stroke-width: 0.8; stroke-linecap: square"/>
     </g>
     <g id="line2d_32">
      <g>
       <use xlink:href="#medf784f2ea" x="44.452344" y="22.503623" style="fill: #8b97a7; stroke: #8b97a7; stroke-width: 0.8"/>
      </g>
     </g>
     <g id="text_17">
      <!-- 16 -->
      <g style="fill: #8b97a7" transform="translate(24.727344 26.302452) scale(0.1 -0.1)">
       <use xlink:href="#DejaVuSans-14"/>
       <use xlink:href="#DejaVuSans-19" transform="translate(63.625 0)"/>
      </g>
     </g>
    </g>
    <g id="text_18">
     <!-- clock drift rate vs master (µs/s ≡ ppm) -->
     <g style="fill: #8b97a7" transform="translate(18.325 247.027734) rotate(-90) scale(0.1 -0.1)">
      <defs>
       <path id="DejaVuSans-46" d="M 3122 3366 
L 3122 2828 
Q 2878 2963 2633 3030 
Q 2388 3097 2138 3097 
Q 1578 3097 1268 2742 
Q 959 2388 959 1747 
Q 959 1106 1268 751 
Q 1578 397 2138 397 
Q 2388 397 2633 464 
Q 2878 531 3122 666 
L 3122 134 
Q 2881 22 2623 -34 
Q 2366 -91 2075 -91 
Q 1284 -91 818 406 
Q 353 903 353 1747 
Q 353 2603 823 3093 
Q 1294 3584 2113 3584 
Q 2378 3584 2631 3529 
Q 2884 3475 3122 3366 
z
" transform="scale(0.015625)"/>
       <path id="DejaVuSans-4f" d="M 603 4863 
L 1178 4863 
L 1178 0 
L 603 0 
L 603 4863 
z
" transform="scale(0.015625)"/>
       <path id="DejaVuSans-52" d="M 1959 3097 
Q 1497 3097 1228 2736 
Q 959 2375 959 1747 
Q 959 1119 1226 758 
Q 1494 397 1959 397 
Q 2419 397 2687 759 
Q 2956 1122 2956 1747 
Q 2956 2369 2687 2733 
Q 2419 3097 1959 3097 
z
M 1959 3584 
Q 2709 3584 3137 3096 
Q 3566 2609 3566 1747 
Q 3566 888 3137 398 
Q 2709 -91 1959 -91 
Q 1206 -91 779 398 
Q 353 888 353 1747 
Q 353 2609 779 3096 
Q 1206 3584 1959 3584 
z
" transform="scale(0.015625)"/>
       <path id="DejaVuSans-4e" d="M 581 4863 
L 1159 4863 
L 1159 1991 
L 2875 3500 
L 3609 3500 
L 1753 1863 
L 3688 0 
L 2938 0 
L 1159 1709 
L 1159 0 
L 581 0 
L 581 4863 
z
" transform="scale(0.015625)"/>
       <path id="DejaVuSans-47" d="M 2906 2969 
L 2906 4863 
L 3481 4863 
L 3481 0 
L 2906 0 
L 2906 525 
Q 2725 213 2448 61 
Q 2172 -91 1784 -91 
Q 1150 -91 751 415 
Q 353 922 353 1747 
Q 353 2572 751 3078 
Q 1150 3584 1784 3584 
Q 2172 3584 2448 3432 
Q 2725 3281 2906 2969 
z
M 947 1747 
Q 947 1113 1208 752 
Q 1469 391 1925 391 
Q 2381 391 2643 752 
Q 2906 1113 2906 1747 
Q 2906 2381 2643 2742 
Q 2381 3103 1925 3103 
Q 1469 3103 1208 2742 
Q 947 2381 947 1747 
z
" transform="scale(0.015625)"/>
       <path id="DejaVuSans-55" d="M 2631 2963 
Q 2534 3019 2420 3045 
Q 2306 3072 2169 3072 
Q 1681 3072 1420 2755 
Q 1159 2438 1159 1844 
L 1159 0 
L 581 0 
L 581 3500 
L 1159 3500 
L 1159 2956 
Q 1341 3275 1631 3429 
Q 1922 3584 2338 3584 
Q 2397 3584 2469 3576 
Q 2541 3569 2628 3553 
L 2631 2963 
z
" transform="scale(0.015625)"/>
       <path id="DejaVuSans-49" d="M 2375 4863 
L 2375 4384 
L 1825 4384 
Q 1516 4384 1395 4259 
Q 1275 4134 1275 3809 
L 1275 3500 
L 2222 3500 
L 2222 3053 
L 1275 3053 
L 1275 0 
L 697 0 
L 697 3053 
L 147 3053 
L 147 3500 
L 697 3500 
L 697 3744 
Q 697 4328 969 4595 
Q 1241 4863 1831 4863 
L 2375 4863 
z
" transform="scale(0.015625)"/>
       <path id="DejaVuSans-44" d="M 2194 1759 
Q 1497 1759 1228 1600 
Q 959 1441 959 1056 
Q 959 750 1161 570 
Q 1363 391 1709 391 
Q 2188 391 2477 730 
Q 2766 1069 2766 1631 
L 2766 1759 
L 2194 1759 
z
M 3341 1997 
L 3341 0 
L 2766 0 
L 2766 531 
Q 2569 213 2275 61 
Q 1981 -91 1556 -91 
Q 1019 -91 701 211 
Q 384 513 384 1019 
Q 384 1609 779 1909 
Q 1175 2209 1959 2209 
L 2766 2209 
L 2766 2266 
Q 2766 2663 2505 2880 
Q 2244 3097 1772 3097 
Q 1472 3097 1187 3025 
Q 903 2953 641 2809 
L 641 3341 
Q 956 3463 1253 3523 
Q 1550 3584 1831 3584 
Q 2591 3584 2966 3190 
Q 3341 2797 3341 1997 
z
" transform="scale(0.015625)"/>
       <path id="DejaVuSans-59" d="M 191 3500 
L 800 3500 
L 1894 563 
L 2988 3500 
L 3597 3500 
L 2284 0 
L 1503 0 
L 191 3500 
z
" transform="scale(0.015625)"/>
       <path id="DejaVuSans-77" d="M 544 -1331 
L 544 3500 
L 1119 3500 
L 1119 1325 
Q 1119 872 1334 640 
Q 1550 409 1972 409 
Q 2434 409 2667 671 
Q 2900 934 2900 1459 
L 2900 3500 
L 3475 3500 
L 3475 806 
Q 3475 619 3529 530 
Q 3584 441 3700 441 
Q 3728 441 3778 458 
Q 3828 475 3916 513 
L 3916 50 
Q 3788 -22 3673 -56 
Q 3559 -91 3450 -91 
Q 3234 -91 3106 31 
Q 2978 153 2931 403 
Q 2775 156 2548 32 
Q 2322 -91 2016 -91 
Q 1697 -91 1473 31 
Q 1250 153 1119 397 
L 1119 -1331 
L 544 -1331 
z
" transform="scale(0.015625)"/>
       <path id="DejaVuSans-12" d="M 1625 4666 
L 2156 4666 
L 531 -594 
L 0 -594 
L 1625 4666 
z
" transform="scale(0.015625)"/>
       <path id="DejaVuSans-ceb" d="M 678 2272 
L 4684 2272 
L 4684 1741 
L 678 1741 
L 678 2272 
z
M 678 3438 
L 4684 3438 
L 4684 2906 
L 678 2906 
L 678 3438 
z
M 678 1106 
L 4684 1106 
L 4684 575 
L 678 575 
L 678 1106 
z
" transform="scale(0.015625)"/>
       <path id="DejaVuSans-53" d="M 1159 525 
L 1159 -1331 
L 581 -1331 
L 581 3500 
L 1159 3500 
L 1159 2969 
Q 1341 3281 1617 3432 
Q 1894 3584 2278 3584 
Q 2916 3584 3314 3078 
Q 3713 2572 3713 1747 
Q 3713 922 3314 415 
Q 2916 -91 2278 -91 
Q 1894 -91 1617 61 
Q 1341 213 1159 525 
z
M 3116 1747 
Q 3116 2381 2855 2742 
Q 2594 3103 2138 3103 
Q 1681 3103 1420 2742 
Q 1159 2381 1159 1747 
Q 1159 1113 1420 752 
Q 1681 391 2138 391 
Q 2594 391 2855 752 
Q 3116 1113 3116 1747 
z
" transform="scale(0.015625)"/>
      </defs>
      <use xlink:href="#DejaVuSans-46"/>
      <use xlink:href="#DejaVuSans-4f" transform="translate(54.984375 0)"/>
      <use xlink:href="#DejaVuSans-52" transform="translate(82.765625 0)"/>
      <use xlink:href="#DejaVuSans-46" transform="translate(143.953125 0)"/>
      <use xlink:href="#DejaVuSans-4e" transform="translate(198.9375 0)"/>
      <use xlink:href="#DejaVuSans-3" transform="translate(256.84375 0)"/>
      <use xlink:href="#DejaVuSans-47" transform="translate(288.625 0)"/>
      <use xlink:href="#DejaVuSans-55" transform="translate(352.109375 0)"/>
      <use xlink:href="#DejaVuSans-4c" transform="translate(393.21875 0)"/>
      <use xlink:href="#DejaVuSans-49" transform="translate(421 0)"/>
      <use xlink:href="#DejaVuSans-57" transform="translate(454.453125 0)"/>
      <use xlink:href="#DejaVuSans-3" transform="translate(493.65625 0)"/>
      <use xlink:href="#DejaVuSans-55" transform="translate(525.4375 0)"/>
      <use xlink:href="#DejaVuSans-44" transform="translate(566.546875 0)"/>
      <use xlink:href="#DejaVuSans-57" transform="translate(627.828125 0)"/>
      <use xlink:href="#DejaVuSans-48" transform="translate(667.03125 0)"/>
      <use xlink:href="#DejaVuSans-3" transform="translate(728.5625 0)"/>
      <use xlink:href="#DejaVuSans-59" transform="translate(760.34375 0)"/>
      <use xlink:href="#DejaVuSans-56" transform="translate(819.53125 0)"/>
      <use xlink:href="#DejaVuSans-3" transform="translate(871.625 0)"/>
      <use xlink:href="#DejaVuSans-50" transform="translate(903.40625 0)"/>
      <use xlink:href="#DejaVuSans-44" transform="translate(1000.8125 0)"/>
      <use xlink:href="#DejaVuSans-56" transform="translate(1062.09375 0)"/>
      <use xlink:href="#DejaVuSans-57" transform="translate(1114.1875 0)"/>
      <use xlink:href="#DejaVuSans-48" transform="translate(1153.390625 0)"/>
      <use xlink:href="#DejaVuSans-55" transform="translate(1214.921875 0)"/>
      <use xlink:href="#DejaVuSans-3" transform="translate(1256.03125 0)"/>
      <use xlink:href="#DejaVuSans-b" transform="translate(1287.8125 0)"/>
      <use xlink:href="#DejaVuSans-77" transform="translate(1326.828125 0)"/>
      <use xlink:href="#DejaVuSans-56" transform="translate(1390.453125 0)"/>
      <use xlink:href="#DejaVuSans-12" transform="translate(1442.546875 0)"/>
      <use xlink:href="#DejaVuSans-56" transform="translate(1476.234375 0)"/>
      <use xlink:href="#DejaVuSans-3" transform="translate(1528.328125 0)"/>
      <use xlink:href="#DejaVuSans-ceb" transform="translate(1560.109375 0)"/>
      <use xlink:href="#DejaVuSans-3" transform="translate(1643.90625 0)"/>
      <use xlink:href="#DejaVuSans-53" transform="translate(1675.6875 0)"/>
      <use xlink:href="#DejaVuSans-53" transform="translate(1739.171875 0)"/>
      <use xlink:href="#DejaVuSans-50" transform="translate(1802.65625 0)"/>
      <use xlink:href="#DejaVuSans-c" transform="translate(1900.0625 0)"/>
     </g>
    </g>
   </g>
   <g id="line2d_33">
    <path d="M 44.452344 276.686399 
L 781.2 276.686399 
" clip-path="url(#p67c50c4675)" style="fill: none; stroke: #e6edf3; stroke-width: 1.5; stroke-linecap: square"/>
   </g>
   <g id="line2d_34">
    <path d="M 77.940874 70.87258 
L 189.569306 104.566683 
L 301.197739 73.3981 
L 412.826172 84.124078 
L 524.454605 83.424545 
L 636.083037 79.300542 
L 747.71147 113.527033 
" clip-path="url(#p67c50c4675)" style="fill: none; stroke: #35e3b3; stroke-width: 1.8; stroke-linecap: square"/>
   </g>
   <g id="line2d_35">
    <path d="M 77.940874 48.394757 
L 189.569306 37.214962 
L 301.197739 38.84451 
L 412.826172 54.67904 
L 524.454605 23.461257 
L 636.083037 61.941432 
L 747.71147 24.960867 
" clip-path="url(#p67c50c4675)" style="fill: none; stroke: #5bc8ff; stroke-width: 1.8; stroke-linecap: square"/>
   </g>
   <g id="patch_3">
    <path d="M 44.452344 289.347656 
L 44.452344 10.8 
" style="fill: none; stroke: #2a3340; stroke-width: 0.8; stroke-linejoin: miter; stroke-linecap: square"/>
   </g>
   <g id="patch_4">
    <path d="M 781.2 289.347656 
L 781.2 10.8 
" style="fill: none; stroke: #2a3340; stroke-width: 0.8; stroke-linejoin: miter; stroke-linecap: square"/>
   </g>
   <g id="patch_5">
    <path d="M 44.452344 289.347656 
L 781.2 289.347656 
" style="fill: none; stroke: #2a3340; stroke-width: 0.8; stroke-linejoin: miter; stroke-linecap: square"/>
   </g>
   <g id="patch_6">
    <path d="M 44.452344 10.8 
L 781.2 10.8 
" style="fill: none; stroke: #2a3340; stroke-width: 0.8; stroke-linejoin: miter; stroke-linecap: square"/>
   </g>
   <g id="legend_1">
    <g id="line2d_36">
     <path d="M 563.146875 135.761367 
L 572.146875 135.761367 
L 581.146875 135.761367 
" style="fill: none; stroke: #e6edf3; stroke-width: 1.5; stroke-linecap: square"/>
    </g>
    <g id="text_19">
     <!-- master clock (study) — reference, 0 ppm -->
     <g style="fill: #e6edf3" transform="translate(588.346875 138.911367) scale(0.09 -0.09)">
      <defs>
       <path id="DejaVuSans-5c" d="M 2059 -325 
Q 1816 -950 1584 -1140 
Q 1353 -1331 966 -1331 
L 506 -1331 
L 506 -850 
L 844 -850 
Q 1081 -850 1212 -737 
Q 1344 -625 1503 -206 
L 1606 56 
L 191 3500 
L 800 3500 
L 1894 763 
L 2988 3500 
L 3597 3500 
L 2059 -325 
z
" transform="scale(0.015625)"/>
       <path id="DejaVuSans-af6" d="M 313 1978 
L 6088 1978 
L 6088 1528 
L 313 1528 
L 313 1978 
z
" transform="scale(0.015625)"/>
       <path id="DejaVuSans-f" d="M 750 794 
L 1409 794 
L 1409 256 
L 897 -744 
L 494 -744 
L 750 256 
L 750 794 
z
" transform="scale(0.015625)"/>
      </defs>
      <use xlink:href="#DejaVuSans-50"/>
      <use xlink:href="#DejaVuSans-44" transform="translate(97.40625 0)"/>
      <use xlink:href="#DejaVuSans-56" transform="translate(158.6875 0)"/>
      <use xlink:href="#DejaVuSans-57" transform="translate(210.78125 0)"/>
      <use xlink:href="#DejaVuSans-48" transform="translate(249.984375 0)"/>
      <use xlink:href="#DejaVuSans-55" transform="translate(311.515625 0)"/>
      <use xlink:href="#DejaVuSans-3" transform="translate(352.625 0)"/>
      <use xlink:href="#DejaVuSans-46" transform="translate(384.40625 0)"/>
      <use xlink:href="#DejaVuSans-4f" transform="translate(439.390625 0)"/>
      <use xlink:href="#DejaVuSans-52" transform="translate(467.171875 0)"/>
      <use xlink:href="#DejaVuSans-46" transform="translate(528.359375 0)"/>
      <use xlink:href="#DejaVuSans-4e" transform="translate(583.34375 0)"/>
      <use xlink:href="#DejaVuSans-3" transform="translate(641.25 0)"/>
      <use xlink:href="#DejaVuSans-b" transform="translate(673.03125 0)"/>
      <use xlink:href="#DejaVuSans-56" transform="translate(712.046875 0)"/>
      <use xlink:href="#DejaVuSans-57" transform="translate(764.140625 0)"/>
      <use xlink:href="#DejaVuSans-58" transform="translate(803.34375 0)"/>
      <use xlink:href="#DejaVuSans-47" transform="translate(866.71875 0)"/>
      <use xlink:href="#DejaVuSans-5c" transform="translate(930.203125 0)"/>
      <use xlink:href="#DejaVuSans-c" transform="translate(989.390625 0)"/>
      <use xlink:href="#DejaVuSans-3" transform="translate(1028.40625 0)"/>
      <use xlink:href="#DejaVuSans-af6" transform="translate(1060.1875 0)"/>
      <use xlink:href="#DejaVuSans-3" transform="translate(1160.1875 0)"/>
      <use xlink:href="#DejaVuSans-55" transform="translate(1191.96875 0)"/>
      <use xlink:href="#DejaVuSans-48" transform="translate(1230.875 0)"/>
      <use xlink:href="#DejaVuSans-49" transform="translate(1292.40625 0)"/>
      <use xlink:href="#DejaVuSans-48" transform="translate(1327.609375 0)"/>
      <use xlink:href="#DejaVuSans-55" transform="translate(1389.140625 0)"/>
      <use xlink:href="#DejaVuSans-48" transform="translate(1428.046875 0)"/>
      <use xlink:href="#DejaVuSans-51" transform="translate(1489.578125 0)"/>
      <use xlink:href="#DejaVuSans-46" transform="translate(1552.953125 0)"/>
      <use xlink:href="#DejaVuSans-48" transform="translate(1607.9375 0)"/>
      <use xlink:href="#DejaVuSans-f" transform="translate(1669.46875 0)"/>
      <use xlink:href="#DejaVuSans-3" transform="translate(1701.25 0)"/>
      <use xlink:href="#DejaVuSans-13" transform="translate(1733.03125 0)"/>
      <use xlink:href="#DejaVuSans-3" transform="translate(1796.65625 0)"/>
      <use xlink:href="#DejaVuSans-53" transform="translate(1828.4375 0)"/>
      <use xlink:href="#DejaVuSans-53" transform="translate(1891.921875 0)"/>
      <use xlink:href="#DejaVuSans-50" transform="translate(1955.40625 0)"/>
     </g>
    </g>
    <g id="line2d_37">
     <path d="M 563.146875 149.26207 
L 572.146875 149.26207 
L 581.146875 149.26207 
" style="fill: none; stroke: #35e3b3; stroke-width: 1.8; stroke-linecap: square"/>
    </g>
    <g id="text_20">
     <!-- zero-01  (+11.9 ppm) -->
     <g style="fill: #e6edf3" transform="translate(588.346875 152.41207) scale(0.09 -0.09)">
      <defs>
       <path id="DejaVuSans-5d" d="M 353 3500 
L 3084 3500 
L 3084 2975 
L 922 459 
L 3084 459 
L 3084 0 
L 275 0 
L 275 525 
L 2438 3041 
L 353 3041 
L 353 3500 
z
" transform="scale(0.015625)"/>
       <path id="DejaVuSans-10" d="M 313 2009 
L 1997 2009 
L 1997 1497 
L 313 1497 
L 313 2009 
z
" transform="scale(0.015625)"/>
       <path id="DejaVuSans-e" d="M 2944 4013 
L 2944 2272 
L 4684 2272 
L 4684 1741 
L 2944 1741 
L 2944 0 
L 2419 0 
L 2419 1741 
L 678 1741 
L 678 2272 
L 2419 2272 
L 2419 4013 
L 2944 4013 
z
" transform="scale(0.015625)"/>
       <path id="DejaVuSans-1c" d="M 703 97 
L 703 672 
Q 941 559 1184 500 
Q 1428 441 1663 441 
Q 2288 441 2617 861 
Q 2947 1281 2994 2138 
Q 2813 1869 2534 1725 
Q 2256 1581 1919 1581 
Q 1219 1581 811 2004 
Q 403 2428 403 3163 
Q 403 3881 828 4315 
Q 1253 4750 1959 4750 
Q 2769 4750 3195 4129 
Q 3622 3509 3622 2328 
Q 3622 1225 3098 567 
Q 2575 -91 1691 -91 
Q 1453 -91 1209 -44 
Q 966 3 703 97 
z
M 1959 2075 
Q 2384 2075 2632 2365 
Q 2881 2656 2881 3163 
Q 2881 3666 2632 3958 
Q 2384 4250 1959 4250 
Q 1534 4250 1286 3958 
Q 1038 3666 1038 3163 
Q 1038 2656 1286 2365 
Q 1534 2075 1959 2075 
z
" transform="scale(0.015625)"/>
      </defs>
      <use xlink:href="#DejaVuSans-5d"/>
      <use xlink:href="#DejaVuSans-48" transform="translate(52.484375 0)"/>
      <use xlink:href="#DejaVuSans-55" transform="translate(114.015625 0)"/>
      <use xlink:href="#DejaVuSans-52" transform="translate(152.921875 0)"/>
      <use xlink:href="#DejaVuSans-10" transform="translate(215.96875 0)"/>
      <use xlink:href="#DejaVuSans-13" transform="translate(252.046875 0)"/>
      <use xlink:href="#DejaVuSans-14" transform="translate(315.671875 0)"/>
      <use xlink:href="#DejaVuSans-3" transform="translate(379.296875 0)"/>
      <use xlink:href="#DejaVuSans-3" transform="translate(411.078125 0)"/>
      <use xlink:href="#DejaVuSans-b" transform="translate(442.859375 0)"/>
      <use xlink:href="#DejaVuSans-e" transform="translate(481.875 0)"/>
      <use xlink:href="#DejaVuSans-14" transform="translate(565.671875 0)"/>
      <use xlink:href="#DejaVuSans-14" transform="translate(629.296875 0)"/>
      <use xlink:href="#DejaVuSans-11" transform="translate(692.921875 0)"/>
      <use xlink:href="#DejaVuSans-1c" transform="translate(724.703125 0)"/>
      <use xlink:href="#DejaVuSans-3" transform="translate(788.328125 0)"/>
      <use xlink:href="#DejaVuSans-53" transform="translate(820.109375 0)"/>
      <use xlink:href="#DejaVuSans-53" transform="translate(883.59375 0)"/>
      <use xlink:href="#DejaVuSans-50" transform="translate(947.078125 0)"/>
      <use xlink:href="#DejaVuSans-c" transform="translate(1044.484375 0)"/>
     </g>
    </g>
    <g id="line2d_38">
     <path d="M 563.146875 162.762773 
L 572.146875 162.762773 
L 581.146875 162.762773 
" style="fill: none; stroke: #5bc8ff; stroke-width: 1.8; stroke-linecap: square"/>
    </g>
    <g id="text_21">
     <!-- zero-02  (+14.8 ppm) -->
     <g style="fill: #e6edf3" transform="translate(588.346875 165.912773) scale(0.09 -0.09)">
      <use xlink:href="#DejaVuSans-5d"/>
      <use xlink:href="#DejaVuSans-48" transform="translate(52.484375 0)"/>
      <use xlink:href="#DejaVuSans-55" transform="translate(114.015625 0)"/>
      <use xlink:href="#DejaVuSans-52" transform="translate(152.921875 0)"/>
      <use xlink:href="#DejaVuSans-10" transform="translate(215.96875 0)"/>
      <use xlink:href="#DejaVuSans-13" transform="translate(252.046875 0)"/>
      <use xlink:href="#DejaVuSans-15" transform="translate(315.671875 0)"/>
      <use xlink:href="#DejaVuSans-3" transform="translate(379.296875 0)"/>
      <use xlink:href="#DejaVuSans-3" transform="translate(411.078125 0)"/>
      <use xlink:href="#DejaVuSans-b" transform="translate(442.859375 0)"/>
      <use xlink:href="#DejaVuSans-e" transform="translate(481.875 0)"/>
      <use xlink:href="#DejaVuSans-14" transform="translate(565.671875 0)"/>
      <use xlink:href="#DejaVuSans-17" transform="translate(629.296875 0)"/>
      <use xlink:href="#DejaVuSans-11" transform="translate(692.921875 0)"/>
      <use xlink:href="#DejaVuSans-1b" transform="translate(724.703125 0)"/>
      <use xlink:href="#DejaVuSans-3" transform="translate(788.328125 0)"/>
      <use xlink:href="#DejaVuSans-53" transform="translate(820.109375 0)"/>
      <use xlink:href="#DejaVuSans-53" transform="translate(883.59375 0)"/>
      <use xlink:href="#DejaVuSans-50" transform="translate(947.078125 0)"/>
      <use xlink:href="#DejaVuSans-c" transform="translate(1044.484375 0)"/>
     </g>
    </g>
   </g>
  </g>
 </g>
 <defs>
  <clipPath id="p67c50c4675">
   <rect x="44.452344" y="10.8" width="736.747656" height="278.547656"/>
  </clipPath>
 </defs>
</svg>
