<?xml version="1.0" encoding="utf-8" standalone="no"?>
<!DOCTYPE svg PUBLIC "-//W3C//DTD SVG 1.1//EN"
  "http://www.w3.org/Graphics/SVG/1.1/DTD/svg11.dtd">
<svg xmlns:xlink="http://www.w3.org/1999/xlink" width="648pt" height="432pt" viewBox="0 0 648 432" xmlns="http://www.w3.org/2000/svg" version="1.1">
 <metadata>
  <rdf:RDF xmlns:dc="http://purl.org/dc/elements/1.1/" xmlns:cc="http://creativecommons.org/ns#" xmlns:rdf="http://www.w3.org/1999/02/22-rdf-syntax-ns#">
   <cc:Work>
    <dc:type rdf:resource="http://purl.org/dc/dcmitype/StillImage"/>
    <dc:date>2026-06-14T12:18:27.161859</dc:date>
    <dc:format>image/svg+xml</dc:format>
    <dc:creator>
     <cc:Agent>
      <dc:title>Matplotlib v3.11.0, https://matplotlib.org/</dc:title>
     </cc:Agent>
    </dc:creator>
   </cc:Work>
  </rdf:RDF>
 </metadata>
 <defs>
  <style type="text/css">*{stroke-linejoin: round; stroke-linecap: butt}</style>
 </defs>
 <g id="figure_1">
  <g id="patch_1">
   <path d="M 0 432 
L 648 432 
L 648 0 
L 0 0 
z
" style="fill: #11151a"/>
  </g>
  <g id="axes_1">
   <g id="patch_2">
    <path d="M 49.402344 390.877656 
L 637.2 390.877656 
L 637.2 20.519592 
L 49.402344 20.519592 
z
" style="fill: #11151a"/>
   </g>
   <g id="FillBetweenPolyCollection_1">
    <path d="M 49.45997 635.742492 
L 49.45997 390.877656 
L 49.460153 390.877656 
L 49.714585 390.877656 
L 49.724582 390.877656 
L 49.763464 390.877656 
L 49.7664 390.877656 
L 50.072163 390.877656 
L 50.231081 390.877656 
L 50.29727 390.877656 
L 50.358281 390.877656 
L 50.652758 390.877656 
L 51.029242 390.877656 
L 51.135735 390.877656 
L 51.270785 390.877656 
L 51.312128 390.877656 
L 51.434843 390.877656 
L 51.585865 390.877656 
L 51.650731 390.877656 
L 51.746315 390.877656 
L 51.787746 390.877656 
L 51.889947 390.877656 
L 52.37283 390.877656 
L 52.383047 390.877656 
L 53.116341 390.877656 
L 53.178212 390.877656 
L 53.255925 390.877656 
L 53.30192 390.877656 
L 53.576486 390.877656 
L 53.63315 390.877656 
L 53.85329 390.877656 
L 53.897125 390.877656 
L 53.977587 390.877656 
L 54.23369 390.877656 
L 54.303272 390.877656 
L 54.340858 390.877656 
L 54.414677 390.877656 
L 54.473967 390.877656 
L 54.536658 390.877656 
L 54.545655 390.877656 
L 54.821689 390.877656 
L 54.858513 390.877656 
L 54.875378 390.877656 
L 54.882312 390.877656 
L 54.918447 390.877656 
L 54.947762 390.877656 
L 54.958447 390.877656 
L 54.983721 390.877656 
L 55.08472 390.877656 
L 55.23374 390.877656 
L 55.436098 390.877656 
L 55.44948 390.877656 
L 55.480164 390.877656 
L 56.413225 390.877656 
L 56.751093 390.877656 
L 56.764154 390.877656 
L 56.78998 390.877656 
L 56.916063 390.877656 
L 57.049046 390.877656 
L 57.061335 390.877656 
L 57.087304 390.877656 
L 57.190984 390.877656 
L 57.191199 390.877656 
L 57.369694 390.877656 
L 57.4557 390.877656 
L 57.651959 390.877656 
L 57.894876 390.877656 
L 57.989044 390.877656 
L 58.258912 390.877656 
L 58.557527 390.877656 
L 58.782175 390.877656 
L 58.799786 390.877656 
L 59.047468 390.877656 
L 59.129761 390.877656 
L 59.178269 390.877656 
L 59.345133 390.877656 
L 59.46345 390.877656 
L 59.573351 390.877656 
L 59.754497 390.877656 
L 59.824094 390.877656 
L 60.075752 390.877656 
L 60.233843 390.877656 
L 60.308989 390.877656 
L 60.407908 390.877656 
L 60.465396 390.877656 
L 60.515611 390.877656 
L 60.529648 390.877656 
L 60.536183 390.877656 
L 60.561434 390.877656 
L 60.569614 390.877656 
L 60.593668 390.877656 
L 60.771731 390.877656 
L 60.889579 390.877656 
L 61.046026 390.877656 
L 61.218265 390.877656 
L 61.228405 390.877656 
L 61.248504 390.877656 
L 61.583745 390.877656 
L 61.792044 390.877656 
L 61.89669 390.877656 
L 62.260366 390.877656 
L 62.365113 390.877656 
L 62.380179 390.877656 
L 62.531557 390.877656 
L 62.917887 390.877656 
L 63.20217 390.877656 
L 63.238406 390.877656 
L 63.337498 390.877656 
L 63.477128 390.877656 
L 63.605132 390.877656 
L 63.626159 390.877656 
L 63.709446 390.877656 
L 63.827899 390.877656 
L 64.097123 390.877656 
L 64.475147 390.877656 
L 64.624646 390.877656 
L 64.642806 390.877656 
L 64.684135 390.877656 
L 65.003424 390.877656 
L 65.062861 390.877656 
L 65.20369 390.877656 
L 65.242472 390.877656 
L 65.46203 390.877656 
L 65.555489 390.877656 
L 65.658342 390.877656 
L 65.746236 390.877656 
L 66.147015 390.877656 
L 66.236037 390.877656 
L 66.359624 390.877656 
L 66.457309 390.877656 
L 66.473154 390.877656 
L 66.847156 390.877656 
L 66.98445 390.877656 
L 67.301838 390.877656 
L 67.316494 390.877656 
L 67.457918 390.877656 
L 67.465048 390.877656 
L 67.477239 390.877656 
L 67.65002 390.877656 
L 67.803545 390.877656 
L 67.964957 390.877656 
L 68.045631 390.877656 
L 68.14088 390.877656 
L 68.197938 390.877656 
L 68.271365 390.877656 
L 68.585932 390.877656 
L 68.615074 390.877656 
L 68.628981 390.877656 
L 68.662211 390.877656 
L 68.684836 390.877656 
L 68.988385 390.877656 
L 69.050406 390.877656 
L 69.266546 390.877656 
L 69.719542 390.877656 
L 69.838126 390.877656 
L 69.851385 390.877656 
L 69.855088 390.877656 
L 69.974038 390.877656 
L 70.034752 390.877656 
L 70.499725 390.877656 
L 70.640456 390.877656 
L 70.648158 390.877656 
L 70.888952 390.877656 
L 71.293281 390.877656 
L 71.318949 390.877656 
L 71.336175 390.877656 
L 71.477237 390.877656 
L 71.571407 390.877656 
L 71.825131 390.877656 
L 71.825308 390.877656 
L 72.705192 390.877656 
L 72.88238 390.877656 
L 73.220054 390.877656 
L 73.362615 390.877656 
L 73.509119 390.877656 
L 73.597636 390.877656 
L 73.624272 390.877656 
L 73.751817 390.877656 
L 73.777321 390.877656 
L 73.798149 390.877656 
L 73.870127 390.877656 
L 74.324228 390.877656 
L 74.414795 390.877656 
L 74.422089 390.877656 
L 74.660499 390.877656 
L 74.773637 390.877656 
L 74.878632 390.877656 
L 74.909821 390.877656 
L 74.938479 390.877656 
L 75.04451 390.877656 
L 75.162199 390.877656 
L 75.326196 390.877656 
L 75.359961 390.877656 
L 75.370226 390.877656 
L 75.4839 390.877656 
L 75.567635 390.877656 
L 75.598687 390.877656 
L 75.614103 390.877656 
L 76.319669 390.877656 
L 76.372239 390.877656 
L 76.719068 390.877656 
L 76.861418 390.877656 
L 76.964364 390.877656 
L 77.385855 390.877656 
L 77.536864 390.877656 
L 77.539667 390.877656 
L 77.78158 390.877656 
L 78.039852 390.877656 
L 78.106195 390.877656 
L 78.173125 390.877656 
L 78.386544 390.877656 
L 78.461429 390.877656 
L 78.497222 390.877656 
L 78.55408 390.877656 
L 78.559103 390.877656 
L 78.573766 390.877656 
L 78.660431 390.877656 
L 78.802646 390.877656 
L 79.096305 390.877656 
L 79.329385 390.877656 
L 79.513467 390.877656 
L 79.743319 390.877656 
L 80.093793 390.877656 
L 80.155286 390.877656 
L 80.170174 390.877656 
L 80.241794 390.877656 
L 80.343875 390.877656 
L 80.524476 390.877656 
L 80.67414 390.877656 
L 80.775821 390.877656 
L 80.891031 390.877656 
L 80.938653 390.877656 
L 81.077393 390.877656 
L 81.238799 390.877656 
L 81.638841 390.877656 
L 81.673988 390.877656 
L 81.770381 390.877656 
L 81.866022 390.877656 
L 81.969744 390.877656 
L 82.122297 390.877656 
L 82.149923 390.877656 
L 82.312902 390.877656 
L 82.456496 390.877656 
L 82.917288 390.877656 
L 82.936391 390.877656 
L 83.39214 390.877656 
L 83.702948 390.877656 
L 83.895167 390.877656 
L 84.264588 390.877656 
L 84.823563 390.877656 
L 84.896363 390.877656 
L 84.929207 390.877656 
L 84.929949 390.877656 
L 85.243112 390.877656 
L 85.64849 390.877656 
L 85.648802 390.877656 
L 85.774108 390.877656 
L 85.84892 390.877656 
L 86.003495 390.877656 
L 86.017389 390.877656 
L 86.035758 390.877656 
L 86.566607 390.877656 
L 86.793075 390.877656 
L 86.85801 390.877656 
L 87.018032 390.877656 
L 87.132229 390.877656 
L 87.459268 390.877656 
L 87.462167 390.877656 
L 87.47829 390.877656 
L 87.930924 390.877656 
L 88.381254 390.877656 
L 88.473266 390.877656 
L 88.791109 390.877656 
L 88.947188 390.877656 
L 88.981859 390.877656 
L 89.411541 390.877656 
L 89.673455 390.877656 
L 90.202824 390.877656 
L 90.290337 390.877656 
L 90.298801 390.877656 
L 90.362738 390.877656 
L 90.395343 390.877656 
L 90.483447 390.877656 
L 90.641728 390.877656 
L 90.756513 390.877656 
L 90.950664 390.877656 
L 90.951009 390.877656 
L 91.224879 390.877656 
L 91.727109 390.877656 
L 91.761722 390.877656 
L 92.129858 390.877656 
L 92.132606 390.877656 
L 92.173011 390.877656 
L 92.192116 390.877656 
L 92.215011 390.877656 
L 92.654617 390.877656 
L 92.918059 390.877656 
L 93.212633 390.877656 
L 93.36121 390.877656 
L 93.381757 390.877656 
L 93.514658 390.877656 
L 94.080552 390.877656 
L 94.081718 390.877656 
L 94.223641 390.877656 
L 94.396332 390.877656 
L 94.516728 390.877656 
L 94.698289 390.877656 
L 95.546275 390.877656 
L 95.892549 390.877656 
L 96.03922 390.877656 
L 96.520251 390.877656 
L 96.755502 390.877656 
L 96.822663 390.877656 
L 97.157875 390.877656 
L 97.323298 390.877656 
L 97.620226 390.877656 
L 97.63022 390.877656 
L 97.668082 390.877656 
L 97.761754 390.877656 
L 97.824137 390.877656 
L 97.878523 390.877656 
L 98.233835 390.877656 
L 98.283411 390.877656 
L 98.370657 390.877656 
L 98.61627 390.877656 
L 98.674745 390.877656 
L 98.990834 390.877656 
L 98.993641 390.877656 
L 99.244824 390.877656 
L 99.845567 390.877656 
L 99.907493 390.877656 
L 100.030175 390.877656 
L 100.056718 390.877656 
L 100.605419 390.877656 
L 100.823732 390.877656 
L 101.327474 390.877656 
L 101.993207 390.877656 
L 102.278944 390.877656 
L 102.334162 390.877656 
L 102.491384 390.877656 
L 102.734928 390.877656 
L 103.153004 390.877656 
L 103.154576 390.877656 
L 103.19734 390.877656 
L 103.221987 390.877656 
L 103.251418 390.877656 
L 103.359879 390.877656 
L 104.019884 390.877656 
L 104.136979 390.877656 
L 104.142018 390.877656 
L 104.350711 390.877656 
L 104.482819 390.877656 
L 104.566083 390.877656 
L 104.623742 390.877656 
L 104.993502 390.877656 
L 105.480956 390.877656 
L 105.492525 390.877656 
L 106.201459 390.877656 
L 106.354064 390.877656 
L 106.611444 390.877656 
L 106.725512 390.877656 
L 106.766781 390.877656 
L 106.822295 390.877656 
L 107.025208 390.877656 
L 107.113599 390.877656 
L 107.161609 390.877656 
L 107.433176 390.877656 
L 107.538672 390.877656 
L 107.776837 390.877656 
L 108.464365 390.877656 
L 108.736027 390.877656 
L 108.768328 390.877656 
L 109.03616 390.877656 
L 109.237658 390.877656 
L 109.270727 390.877656 
L 109.391337 390.877656 
L 109.444539 390.877656 
L 109.558022 390.877656 
L 109.929796 390.877656 
L 110.050951 390.877656 
L 110.756392 390.877656 
L 111.626393 390.877656 
L 111.648033 390.877656 
L 112.153552 390.877656 
L 112.180256 390.877656 
L 112.587123 390.877656 
L 113.368876 390.877656 
L 113.626639 390.877656 
L 113.628743 390.877656 
L 113.861927 390.877656 
L 113.931106 390.877656 
L 114.222344 390.877656 
L 114.498739 390.877656 
L 114.821136 390.877656 
L 115.120022 390.877656 
L 115.391548 390.877656 
L 115.487496 390.877656 
L 115.572389 390.877656 
L 115.864071 390.877656 
L 116.356059 390.877656 
L 116.516844 390.877656 
L 117.112376 390.877656 
L 117.239915 390.877656 
L 118.134991 390.877656 
L 118.299703 390.877656 
L 118.376578 390.877656 
L 118.570922 390.877656 
L 118.686761 390.877656 
L 119.033425 390.877656 
L 119.190785 390.877656 
L 119.258422 390.877656 
L 119.339912 390.877656 
L 119.815495 390.877656 
L 119.93589 390.877656 
L 120.036006 390.877656 
L 120.212 390.877656 
L 120.467406 390.877656 
L 120.741864 390.877656 
L 120.995452 390.877656 
L 121.249577 390.877656 
L 121.533496 390.877656 
L 122.088824 390.877656 
L 122.509584 390.877656 
L 122.941202 390.877656 
L 123.530582 390.877656 
L 123.56025 390.877656 
L 123.977691 390.877656 
L 124.010546 390.877656 
L 124.207529 390.877656 
L 124.295563 390.877656 
L 126.526417 390.877656 
L 127.141127 390.877656 
L 127.648795 390.877656 
L 128.249015 390.877656 
L 130.52575 390.877656 
L 130.766015 390.877656 
L 131.004091 390.877656 
L 131.227401 390.877656 
L 131.564216 390.877656 
L 131.798341 390.877656 
L 131.957462 390.877656 
L 132.214661 390.877656 
L 132.536489 390.877656 
L 132.888449 390.877656 
L 133.095635 390.877656 
L 133.412249 390.877656 
L 133.790923 390.877656 
L 135.26804 390.877656 
L 135.682375 390.877656 
L 138.422492 390.877656 
L 138.504528 390.877656 
L 138.533132 390.877656 
L 139.564937 390.877656 
L 139.610436 390.877656 
L 139.719647 390.877656 
L 140.31396 390.877656 
L 141.836474 390.877656 
L 141.861103 390.877656 
L 142.586452 390.877656 
L 142.727312 390.877656 
L 144.550118 390.877656 
L 144.613506 390.877656 
L 144.962168 390.877656 
L 145.102648 390.877656 
L 145.38969 390.877656 
L 145.942839 390.877656 
L 146.020858 390.877656 
L 146.546796 390.877656 
L 148.229877 390.877656 
L 148.269719 390.877656 
L 149.338782 390.877656 
L 150.070614 390.877656 
L 150.168949 390.877656 
L 150.453108 390.877656 
L 152.432508 390.877656 
L 152.963591 390.877656 
L 152.970314 390.877656 
L 153.689766 390.877656 
L 154.100591 390.877656 
L 155.312122 390.877656 
L 155.316931 390.877656 
L 156.270533 390.877656 
L 156.428759 390.877656 
L 156.578501 390.877656 
L 157.671802 390.877656 
L 159.337142 390.877656 
L 160.119641 390.877656 
L 160.638423 390.877656 
L 161.604341 390.877656 
L 161.988635 390.877656 
L 162.397715 390.877656 
L 162.42829 390.877656 
L 163.007838 390.877656 
L 163.424267 390.877656 
L 163.503783 390.877656 
L 164.818667 390.877656 
L 165.694331 390.877656 
L 166.276689 390.877656 
L 167.474834 390.877656 
L 169.442766 390.877656 
L 170.342139 390.877656 
L 173.224057 390.877656 
L 173.280996 390.877656 
L 173.780513 390.877656 
L 174.368067 390.877656 
L 177.324169 390.877656 
L 177.94655 390.877656 
L 178.966077 390.877656 
L 179.00809 390.877656 
L 179.263739 390.877656 
L 180.620815 390.877656 
L 182.434829 390.877656 
L 183.904317 390.877656 
L 184.003043 390.877656 
L 186.766811 390.877656 
L 186.873132 390.877656 
L 188.201985 390.877656 
L 190.363006 390.877656 
L 192.847735 390.877656 
L 195.047682 390.877656 
L 195.457723 390.877656 
L 195.984718 390.877656 
L 196.654668 390.877656 
L 201.04553 390.877656 
L 201.341312 390.877656 
L 202.108454 390.877656 
L 202.379519 390.877656 
L 204.158023 390.877656 
L 205.978435 390.877656 
L 207.967135 390.877656 
L 209.070518 390.877656 
L 214.280692 390.877656 
L 215.442067 390.877656 
L 216.962163 390.877656 
L 223.762233 390.877656 
L 224.17899 390.877656 
L 226.619159 390.877656 
L 227.772972 390.877656 
L 227.840037 390.877656 
L 230.874537 390.877656 
L 233.000906 390.877656 
L 234.223275 390.877656 
L 238.193136 390.877656 
L 252.008213 390.877656 
L 252.418896 390.877656 
L 258.419808 390.877656 
L 259.603094 390.877656 
L 275.120852 390.877656 
L 275.120852 23.580402 
L 275.120852 23.580402 
L 259.603094 24.701578 
L 258.419808 25.822754 
L 252.418896 26.94393 
L 252.008213 28.065106 
L 238.193136 29.186282 
L 234.223275 30.307458 
L 233.000906 31.428634 
L 230.874537 32.54981 
L 227.840037 33.670986 
L 227.772972 34.792162 
L 226.619159 35.913338 
L 224.17899 37.034514 
L 223.762233 38.15569 
L 216.962163 39.276866 
L 215.442067 40.398042 
L 214.280692 41.519218 
L 209.070518 42.640394 
L 207.967135 43.76157 
L 205.978435 44.882746 
L 204.158023 46.003922 
L 202.379519 47.125098 
L 202.108454 48.246274 
L 201.341312 49.36745 
L 201.04553 50.488626 
L 196.654668 51.609802 
L 195.984718 52.730978 
L 195.457723 53.852154 
L 195.047682 54.97333 
L 192.847735 56.094506 
L 190.363006 57.215682 
L 188.201985 58.336858 
L 186.873132 59.458034 
L 186.766811 60.57921 
L 184.003043 61.700386 
L 183.904317 62.821562 
L 182.434829 63.942738 
L 180.620815 65.063914 
L 179.263739 66.18509 
L 179.00809 67.306266 
L 178.966077 68.427442 
L 177.94655 69.548618 
L 177.324169 70.669794 
L 174.368067 71.79097 
L 173.780513 72.912146 
L 173.280996 74.033322 
L 173.224057 75.154498 
L 170.342139 76.275674 
L 169.442766 77.39685 
L 167.474834 78.518026 
L 166.276689 79.639202 
L 165.694331 80.760378 
L 164.818667 81.881554 
L 163.503783 83.00273 
L 163.424267 84.123906 
L 163.007838 85.245081 
L 162.42829 86.366257 
L 162.397715 87.487433 
L 161.988635 88.608609 
L 161.604341 89.729785 
L 160.638423 90.850961 
L 160.119641 91.972137 
L 159.337142 93.093313 
L 157.671802 94.214489 
L 156.578501 95.335665 
L 156.428759 96.456841 
L 156.270533 97.578017 
L 155.316931 98.699193 
L 155.312122 99.820369 
L 154.100591 100.941545 
L 153.689766 102.062721 
L 152.970314 103.183897 
L 152.963591 104.305073 
L 152.432508 105.426249 
L 150.453108 106.547425 
L 150.168949 107.668601 
L 150.070614 108.789777 
L 149.338782 109.910953 
L 148.269719 111.032129 
L 148.229877 112.153305 
L 146.546796 113.274481 
L 146.020858 114.395657 
L 145.942839 115.516833 
L 145.38969 116.638009 
L 145.102648 117.759185 
L 144.962168 118.880361 
L 144.613506 120.001537 
L 144.550118 121.122713 
L 142.727312 122.243889 
L 142.586452 123.365065 
L 141.861103 124.486241 
L 141.836474 125.607417 
L 140.31396 126.728593 
L 139.719647 127.849769 
L 139.610436 128.970945 
L 139.564937 130.092121 
L 138.533132 131.213297 
L 138.504528 132.334473 
L 138.422492 133.455649 
L 135.682375 134.576825 
L 135.26804 135.698001 
L 133.790923 136.819177 
L 133.412249 137.940353 
L 133.095635 139.061529 
L 132.888449 140.182705 
L 132.536489 141.303881 
L 132.214661 142.425057 
L 131.957462 143.546233 
L 131.798341 144.667409 
L 131.564216 145.788585 
L 131.227401 146.909761 
L 131.004091 148.030937 
L 130.766015 149.152113 
L 130.52575 150.273289 
L 128.249015 151.394465 
L 127.648795 152.515641 
L 127.141127 153.636817 
L 126.526417 154.757993 
L 124.295563 155.879169 
L 124.207529 157.000345 
L 124.010546 158.121521 
L 123.977691 159.242697 
L 123.56025 160.363873 
L 123.530582 161.485049 
L 122.941202 162.606225 
L 122.509584 163.727401 
L 122.088824 164.848577 
L 121.533496 165.969753 
L 121.249577 167.090929 
L 120.995452 168.212105 
L 120.741864 169.333281 
L 120.467406 170.454457 
L 120.212 171.575633 
L 120.036006 172.696809 
L 119.93589 173.817985 
L 119.815495 174.939161 
L 119.339912 176.060337 
L 119.258422 177.181513 
L 119.190785 178.302689 
L 119.033425 179.423865 
L 118.686761 180.545041 
L 118.570922 181.666217 
L 118.376578 182.787393 
L 118.299703 183.908569 
L 118.134991 185.029745 
L 117.239915 186.150921 
L 117.112376 187.272097 
L 116.516844 188.393273 
L 116.356059 189.514449 
L 115.864071 190.635625 
L 115.572389 191.756801 
L 115.487496 192.877976 
L 115.391548 193.999152 
L 115.120022 195.120328 
L 114.821136 196.241504 
L 114.498739 197.36268 
L 114.222344 198.483856 
L 113.931106 199.605032 
L 113.861927 200.726208 
L 113.628743 201.847384 
L 113.626639 202.96856 
L 113.368876 204.089736 
L 112.587123 205.210912 
L 112.180256 206.332088 
L 112.153552 207.453264 
L 111.648033 208.57444 
L 111.626393 209.695616 
L 110.756392 210.816792 
L 110.050951 211.937968 
L 109.929796 213.059144 
L 109.558022 214.18032 
L 109.444539 215.301496 
L 109.391337 216.422672 
L 109.270727 217.543848 
L 109.237658 218.665024 
L 109.03616 219.7862 
L 108.768328 220.907376 
L 108.736027 222.028552 
L 108.464365 223.149728 
L 107.776837 224.270904 
L 107.538672 225.39208 
L 107.433176 226.513256 
L 107.161609 227.634432 
L 107.113599 228.755608 
L 107.025208 229.876784 
L 106.822295 230.99796 
L 106.766781 232.119136 
L 106.725512 233.240312 
L 106.611444 234.361488 
L 106.354064 235.482664 
L 106.201459 236.60384 
L 105.492525 237.725016 
L 105.480956 238.846192 
L 104.993502 239.967368 
L 104.623742 241.088544 
L 104.566083 242.20972 
L 104.482819 243.330896 
L 104.350711 244.452072 
L 104.142018 245.573248 
L 104.136979 246.694424 
L 104.019884 247.8156 
L 103.359879 248.936776 
L 103.251418 250.057952 
L 103.221987 251.179128 
L 103.19734 252.300304 
L 103.154576 253.42148 
L 103.153004 254.542656 
L 102.734928 255.663832 
L 102.491384 256.785008 
L 102.334162 257.906184 
L 102.278944 259.02736 
L 101.993207 260.148536 
L 101.327474 261.269712 
L 100.823732 262.390888 
L 100.605419 263.512064 
L 100.056718 264.63324 
L 100.030175 265.754416 
L 99.907493 266.875592 
L 99.845567 267.996768 
L 99.244824 269.117944 
L 98.993641 270.23912 
L 98.990834 271.360296 
L 98.674745 272.481472 
L 98.61627 273.602648 
L 98.370657 274.723824 
L 98.283411 275.845 
L 98.233835 276.966176 
L 97.878523 278.087352 
L 97.824137 279.208528 
L 97.761754 280.329704 
L 97.668082 281.45088 
L 97.63022 282.572056 
L 97.620226 283.693232 
L 97.323298 284.814408 
L 97.157875 285.935584 
L 96.822663 287.05676 
L 96.755502 288.177936 
L 96.520251 289.299112 
L 96.03922 290.420288 
L 95.892549 291.541464 
L 95.546275 292.66264 
L 94.698289 293.783816 
L 94.516728 294.904992 
L 94.396332 296.026168 
L 94.223641 297.147344 
L 94.081718 298.26852 
L 94.080552 299.389696 
L 93.514658 300.510871 
L 93.381757 301.632047 
L 93.36121 302.753223 
L 93.212633 303.874399 
L 92.918059 304.995575 
L 92.654617 306.116751 
L 92.215011 307.237927 
L 92.192116 308.359103 
L 92.173011 309.480279 
L 92.132606 310.601455 
L 92.129858 311.722631 
L 91.761722 312.843807 
L 91.727109 313.964983 
L 91.224879 315.086159 
L 90.951009 316.207335 
L 90.950664 317.328511 
L 90.756513 318.449687 
L 90.641728 319.570863 
L 90.483447 320.692039 
L 90.395343 321.813215 
L 90.362738 322.934391 
L 90.298801 324.055567 
L 90.290337 325.176743 
L 90.202824 326.297919 
L 89.673455 327.419095 
L 89.411541 328.540271 
L 88.981859 329.661447 
L 88.947188 330.782623 
L 88.791109 331.903799 
L 88.473266 333.024975 
L 88.381254 334.146151 
L 87.930924 335.267327 
L 87.47829 336.388503 
L 87.462167 337.509679 
L 87.459268 338.630855 
L 87.132229 339.752031 
L 87.018032 340.873207 
L 86.85801 341.994383 
L 86.793075 343.115559 
L 86.566607 344.236735 
L 86.035758 345.357911 
L 86.017389 346.479087 
L 86.003495 347.600263 
L 85.84892 348.721439 
L 85.774108 349.842615 
L 85.648802 350.963791 
L 85.64849 352.084967 
L 85.243112 353.206143 
L 84.929949 354.327319 
L 84.929207 355.448495 
L 84.896363 356.569671 
L 84.823563 357.690847 
L 84.264588 358.812023 
L 83.895167 359.933199 
L 83.702948 361.054375 
L 83.39214 362.175551 
L 82.936391 363.296727 
L 82.917288 364.417903 
L 82.456496 365.539079 
L 82.312902 366.660255 
L 82.149923 367.781431 
L 82.122297 368.902607 
L 81.969744 370.023783 
L 81.866022 371.144959 
L 81.770381 372.266135 
L 81.673988 373.387311 
L 81.638841 374.508487 
L 81.238799 375.629663 
L 81.077393 376.750839 
L 80.938653 377.872015 
L 80.891031 378.993191 
L 80.775821 380.114367 
L 80.67414 381.235543 
L 80.524476 382.356719 
L 80.343875 383.477895 
L 80.241794 384.599071 
L 80.170174 385.720247 
L 80.155286 386.841423 
L 80.093793 387.962599 
L 79.743319 389.083775 
L 79.513467 390.204951 
L 79.329385 391.326127 
L 79.096305 392.447303 
L 78.802646 393.568479 
L 78.660431 394.689655 
L 78.573766 395.810831 
L 78.559103 396.932007 
L 78.55408 398.053183 
L 78.497222 399.174359 
L 78.461429 400.295535 
L 78.386544 401.416711 
L 78.173125 402.537887 
L 78.106195 403.659063 
L 78.039852 404.780239 
L 77.78158 405.901415 
L 77.539667 407.02259 
L 77.536864 408.143766 
L 77.385855 409.264942 
L 76.964364 410.386118 
L 76.861418 411.507294 
L 76.719068 412.62847 
L 76.372239 413.749646 
L 76.319669 414.870822 
L 75.614103 415.991998 
L 75.598687 417.113174 
L 75.567635 418.23435 
L 75.4839 419.355526 
L 75.370226 420.476702 
L 75.359961 421.597878 
L 75.326196 422.719054 
L 75.162199 423.84023 
L 75.04451 424.961406 
L 74.938479 426.082582 
L 74.909821 427.203758 
L 74.878632 428.324934 
L 74.773637 429.44611 
L 74.660499 430.567286 
L 74.422089 431.688462 
L 74.414795 432.809638 
L 74.324228 433.930814 
L 73.870127 435.05199 
L 73.798149 436.173166 
L 73.777321 437.294342 
L 73.751817 438.415518 
L 73.624272 439.536694 
L 73.597636 440.65787 
L 73.509119 441.779046 
L 73.362615 442.900222 
L 73.220054 444.021398 
L 72.88238 445.142574 
L 72.705192 446.26375 
L 71.825308 447.384926 
L 71.825131 448.506102 
L 71.571407 449.627278 
L 71.477237 450.748454 
L 71.336175 451.86963 
L 71.318949 452.990806 
L 71.293281 454.111982 
L 70.888952 455.233158 
L 70.648158 456.354334 
L 70.640456 457.47551 
L 70.499725 458.596686 
L 70.034752 459.717862 
L 69.974038 460.839038 
L 69.855088 461.960214 
L 69.851385 463.08139 
L 69.838126 464.202566 
L 69.719542 465.323742 
L 69.266546 466.444918 
L 69.050406 467.566094 
L 68.988385 468.68727 
L 68.684836 469.808446 
L 68.662211 470.929622 
L 68.628981 472.050798 
L 68.615074 473.171974 
L 68.585932 474.29315 
L 68.271365 475.414326 
L 68.197938 476.535502 
L 68.14088 477.656678 
L 68.045631 478.777854 
L 67.964957 479.89903 
L 67.803545 481.020206 
L 67.65002 482.141382 
L 67.477239 483.262558 
L 67.465048 484.383734 
L 67.457918 485.50491 
L 67.316494 486.626086 
L 67.301838 487.747262 
L 66.98445 488.868438 
L 66.847156 489.989614 
L 66.473154 491.11079 
L 66.457309 492.231966 
L 66.359624 493.353142 
L 66.236037 494.474318 
L 66.147015 495.595494 
L 65.746236 496.71667 
L 65.658342 497.837846 
L 65.555489 498.959022 
L 65.46203 500.080198 
L 65.242472 501.201374 
L 65.20369 502.32255 
L 65.062861 503.443726 
L 65.003424 504.564902 
L 64.684135 505.686078 
L 64.642806 506.807254 
L 64.624646 507.92843 
L 64.475147 509.049606 
L 64.097123 510.170782 
L 63.827899 511.291958 
L 63.709446 512.413134 
L 63.626159 513.53431 
L 63.605132 514.655485 
L 63.477128 515.776661 
L 63.337498 516.897837 
L 63.238406 518.019013 
L 63.20217 519.140189 
L 62.917887 520.261365 
L 62.531557 521.382541 
L 62.380179 522.503717 
L 62.365113 523.624893 
L 62.260366 524.746069 
L 61.89669 525.867245 
L 61.792044 526.988421 
L 61.583745 528.109597 
L 61.248504 529.230773 
L 61.228405 530.351949 
L 61.218265 531.473125 
L 61.046026 532.594301 
L 60.889579 533.715477 
L 60.771731 534.836653 
L 60.593668 535.957829 
L 60.569614 537.079005 
L 60.561434 538.200181 
L 60.536183 539.321357 
L 60.529648 540.442533 
L 60.515611 541.563709 
L 60.465396 542.684885 
L 60.407908 543.806061 
L 60.308989 544.927237 
L 60.233843 546.048413 
L 60.075752 547.169589 
L 59.824094 548.290765 
L 59.754497 549.411941 
L 59.573351 550.533117 
L 59.46345 551.654293 
L 59.345133 552.775469 
L 59.178269 553.896645 
L 59.129761 555.017821 
L 59.047468 556.138997 
L 58.799786 557.260173 
L 58.782175 558.381349 
L 58.557527 559.502525 
L 58.258912 560.623701 
L 57.989044 561.744877 
L 57.894876 562.866053 
L 57.651959 563.987229 
L 57.4557 565.108405 
L 57.369694 566.229581 
L 57.191199 567.350757 
L 57.190984 568.471933 
L 57.087304 569.593109 
L 57.061335 570.714285 
L 57.049046 571.835461 
L 56.916063 572.956637 
L 56.78998 574.077813 
L 56.764154 575.198989 
L 56.751093 576.320165 
L 56.413225 577.441341 
L 55.480164 578.562517 
L 55.44948 579.683693 
L 55.436098 580.804869 
L 55.23374 581.926045 
L 55.08472 583.047221 
L 54.983721 584.168397 
L 54.958447 585.289573 
L 54.947762 586.410749 
L 54.918447 587.531925 
L 54.882312 588.653101 
L 54.875378 589.774277 
L 54.858513 590.895453 
L 54.821689 592.016629 
L 54.545655 593.137805 
L 54.536658 594.258981 
L 54.473967 595.380157 
L 54.414677 596.501333 
L 54.340858 597.622509 
L 54.303272 598.743685 
L 54.23369 599.864861 
L 53.977587 600.986037 
L 53.897125 602.107213 
L 53.85329 603.228389 
L 53.63315 604.349565 
L 53.576486 605.470741 
L 53.30192 606.591917 
L 53.255925 607.713093 
L 53.178212 608.834269 
L 53.116341 609.955445 
L 52.383047 611.076621 
L 52.37283 612.197797 
L 51.889947 613.318973 
L 51.787746 614.440149 
L 51.746315 615.561325 
L 51.650731 616.682501 
L 51.585865 617.803677 
L 51.434843 618.924853 
L 51.312128 620.046029 
L 51.270785 621.167205 
L 51.135735 622.28838 
L 51.029242 623.409556 
L 50.652758 624.530732 
L 50.358281 625.651908 
L 50.29727 626.773084 
L 50.231081 627.89426 
L 50.072163 629.015436 
L 49.7664 630.136612 
L 49.763464 631.257788 
L 49.724582 632.378964 
L 49.714585 633.50014 
L 49.460153 634.621316 
L 49.45997 635.742492 
z
" clip-path="url(#pbb9b018b83)" style="fill: #35e3b3; fill-opacity: 0.1; stroke: #35e3b3; stroke-opacity: 0.1"/>
   </g>
   <g id="matplotlib.axis_1">
    <g id="xtick_1">
     <g id="line2d_1">
      <path d="M 49.402344 390.877656 
L 49.402344 20.519592 
" clip-path="url(#pbb9b018b83)" style="fill: none; stroke: #2a3340; stroke-opacity: 0.5; stroke-width: 0.5; stroke-linecap: square"/>
     </g>
     <g id="line2d_2">
      <defs>
       <path id="m51bb005ec5" d="M 0 0 
L 0 3.5 
" style="stroke: #8b97a7; stroke-width: 0.8"/>
      </defs>
      <g>
       <use xlink:href="#m51bb005ec5" x="49.402344" y="390.877656" style="fill: #8b97a7; stroke: #8b97a7; stroke-width: 0.8"/>
      </g>
     </g>
     <g id="text_1">
      <!-- 0.0 -->
      <g style="fill: #8b97a7" transform="translate(42.245938 404.715547) scale(0.09 -0.09)">
       <defs>
        <path id="DejaVuSans-13" d="M 2034 4250 
Q 1547 4250 1301 3770 
Q 1056 3291 1056 2328 
Q 1056 1369 1301 889 
Q 1547 409 2034 409 
Q 2525 409 2770 889 
Q 3016 1369 3016 2328 
Q 3016 3291 2770 3770 
Q 2525 4250 2034 4250 
z
M 2034 4750 
Q 2819 4750 3233 4129 
Q 3647 3509 3647 2328 
Q 3647 1150 3233 529 
Q 2819 -91 2034 -91 
Q 1250 -91 836 529 
Q 422 1150 422 2328 
Q 422 3509 836 4129 
Q 1250 4750 2034 4750 
z
" transform="scale(0.015625)"/>
        <path id="DejaVuSans-11" d="M 684 794 
L 1344 794 
L 1344 0 
L 684 0 
L 684 794 
z
" transform="scale(0.015625)"/>
       </defs>
       <use xlink:href="#DejaVuSans-13"/>
       <use xlink:href="#DejaVuSans-11" transform="translate(63.625 0)"/>
       <use xlink:href="#DejaVuSans-13" transform="translate(95.40625 0)"/>
      </g>
     </g>
    </g>
    <g id="xtick_2">
     <g id="line2d_3">
      <path d="M 143.449969 390.877656 
L 143.449969 20.519592 
" clip-path="url(#pbb9b018b83)" style="fill: none; stroke: #2a3340; stroke-opacity: 0.5; stroke-width: 0.5; stroke-linecap: square"/>
     </g>
     <g id="line2d_4">
      <g>
       <use xlink:href="#m51bb005ec5" x="143.449969" y="390.877656" style="fill: #8b97a7; stroke: #8b97a7; stroke-width: 0.8"/>
      </g>
     </g>
     <g id="text_2">
      <!-- 0.2 -->
      <g style="fill: #8b97a7" transform="translate(136.293563 404.715547) scale(0.09 -0.09)">
       <defs>
        <path id="DejaVuSans-15" d="M 1228 531 
L 3431 531 
L 3431 0 
L 469 0 
L 469 531 
Q 828 903 1448 1529 
Q 2069 2156 2228 2338 
Q 2531 2678 2651 2914 
Q 2772 3150 2772 3378 
Q 2772 3750 2511 3984 
Q 2250 4219 1831 4219 
Q 1534 4219 1204 4116 
Q 875 4013 500 3803 
L 500 4441 
Q 881 4594 1212 4672 
Q 1544 4750 1819 4750 
Q 2544 4750 2975 4387 
Q 3406 4025 3406 3419 
Q 3406 3131 3298 2873 
Q 3191 2616 2906 2266 
Q 2828 2175 2409 1742 
Q 1991 1309 1228 531 
z
" transform="scale(0.015625)"/>
       </defs>
       <use xlink:href="#DejaVuSans-13"/>
       <use xlink:href="#DejaVuSans-11" transform="translate(63.625 0)"/>
       <use xlink:href="#DejaVuSans-15" transform="translate(95.40625 0)"/>
      </g>
     </g>
    </g>
    <g id="xtick_3">
     <g id="line2d_5">
      <path d="M 237.497594 390.877656 
L 237.497594 20.519592 
" clip-path="url(#pbb9b018b83)" style="fill: none; stroke: #2a3340; stroke-opacity: 0.5; stroke-width: 0.5; stroke-linecap: square"/>
     </g>
     <g id="line2d_6">
      <g>
       <use xlink:href="#m51bb005ec5" x="237.497594" y="390.877656" style="fill: #8b97a7; stroke: #8b97a7; stroke-width: 0.8"/>
      </g>
     </g>
     <g id="text_3">
      <!-- 0.4 -->
      <g style="fill: #8b97a7" transform="translate(230.341188 404.715547) scale(0.09 -0.09)">
       <defs>
        <path id="DejaVuSans-17" d="M 2419 4116 
L 825 1625 
L 2419 1625 
L 2419 4116 
z
M 2253 4666 
L 3047 4666 
L 3047 1625 
L 3713 1625 
L 3713 1100 
L 3047 1100 
L 3047 0 
L 2419 0 
L 2419 1100 
L 313 1100 
L 313 1709 
L 2253 4666 
z
" transform="scale(0.015625)"/>
       </defs>
       <use xlink:href="#DejaVuSans-13"/>
       <use xlink:href="#DejaVuSans-11" transform="translate(63.625 0)"/>
       <use xlink:href="#DejaVuSans-17" transform="translate(95.40625 0)"/>
      </g>
     </g>
    </g>
    <g id="xtick_4">
     <g id="line2d_7">
      <path d="M 331.545219 390.877656 
L 331.545219 20.519592 
" clip-path="url(#pbb9b018b83)" style="fill: none; stroke: #2a3340; stroke-opacity: 0.5; stroke-width: 0.5; stroke-linecap: square"/>
     </g>
     <g id="line2d_8">
      <g>
       <use xlink:href="#m51bb005ec5" x="331.545219" y="390.877656" style="fill: #8b97a7; stroke: #8b97a7; stroke-width: 0.8"/>
      </g>
     </g>
     <g id="text_4">
      <!-- 0.6 -->
      <g style="fill: #8b97a7" transform="translate(324.388813 404.715547) scale(0.09 -0.09)">
       <defs>
        <path id="DejaVuSans-19" d="M 2113 2584 
Q 1688 2584 1439 2293 
Q 1191 2003 1191 1497 
Q 1191 994 1439 701 
Q 1688 409 2113 409 
Q 2538 409 2786 701 
Q 3034 994 3034 1497 
Q 3034 2003 2786 2293 
Q 2538 2584 2113 2584 
z
M 3366 4563 
L 3366 3988 
Q 3128 4100 2886 4159 
Q 2644 4219 2406 4219 
Q 1781 4219 1451 3797 
Q 1122 3375 1075 2522 
Q 1259 2794 1537 2939 
Q 1816 3084 2150 3084 
Q 2853 3084 3261 2657 
Q 3669 2231 3669 1497 
Q 3669 778 3244 343 
Q 2819 -91 2113 -91 
Q 1303 -91 875 529 
Q 447 1150 447 2328 
Q 447 3434 972 4092 
Q 1497 4750 2381 4750 
Q 2619 4750 2861 4703 
Q 3103 4656 3366 4563 
z
" transform="scale(0.015625)"/>
       </defs>
       <use xlink:href="#DejaVuSans-13"/>
       <use xlink:href="#DejaVuSans-11" transform="translate(63.625 0)"/>
       <use xlink:href="#DejaVuSans-19" transform="translate(95.40625 0)"/>
      </g>
     </g>
    </g>
    <g id="xtick_5">
     <g id="line2d_9">
      <path d="M 425.592844 390.877656 
L 425.592844 20.519592 
" clip-path="url(#pbb9b018b83)" style="fill: none; stroke: #2a3340; stroke-opacity: 0.5; stroke-width: 0.5; stroke-linecap: square"/>
     </g>
     <g id="line2d_10">
      <g>
       <use xlink:href="#m51bb005ec5" x="425.592844" y="390.877656" style="fill: #8b97a7; stroke: #8b97a7; stroke-width: 0.8"/>
      </g>
     </g>
     <g id="text_5">
      <!-- 0.8 -->
      <g style="fill: #8b97a7" transform="translate(418.436438 404.715547) scale(0.09 -0.09)">
       <defs>
        <path id="DejaVuSans-1b" d="M 2034 2216 
Q 1584 2216 1326 1975 
Q 1069 1734 1069 1313 
Q 1069 891 1326 650 
Q 1584 409 2034 409 
Q 2484 409 2743 651 
Q 3003 894 3003 1313 
Q 3003 1734 2745 1975 
Q 2488 2216 2034 2216 
z
M 1403 2484 
Q 997 2584 770 2862 
Q 544 3141 544 3541 
Q 544 4100 942 4425 
Q 1341 4750 2034 4750 
Q 2731 4750 3128 4425 
Q 3525 4100 3525 3541 
Q 3525 3141 3298 2862 
Q 3072 2584 2669 2484 
Q 3125 2378 3379 2068 
Q 3634 1759 3634 1313 
Q 3634 634 3220 271 
Q 2806 -91 2034 -91 
Q 1263 -91 848 271 
Q 434 634 434 1313 
Q 434 1759 690 2068 
Q 947 2378 1403 2484 
z
M 1172 3481 
Q 1172 3119 1398 2916 
Q 1625 2713 2034 2713 
Q 2441 2713 2670 2916 
Q 2900 3119 2900 3481 
Q 2900 3844 2670 4047 
Q 2441 4250 2034 4250 
Q 1625 4250 1398 4047 
Q 1172 3844 1172 3481 
z
" transform="scale(0.015625)"/>
       </defs>
       <use xlink:href="#DejaVuSans-13"/>
       <use xlink:href="#DejaVuSans-11" transform="translate(63.625 0)"/>
       <use xlink:href="#DejaVuSans-1b" transform="translate(95.40625 0)"/>
      </g>
     </g>
    </g>
    <g id="xtick_6">
     <g id="line2d_11">
      <path d="M 519.640469 390.877656 
L 519.640469 20.519592 
" clip-path="url(#pbb9b018b83)" style="fill: none; stroke: #2a3340; stroke-opacity: 0.5; stroke-width: 0.5; stroke-linecap: square"/>
     </g>
     <g id="line2d_12">
      <g>
       <use xlink:href="#m51bb005ec5" x="519.640469" y="390.877656" style="fill: #8b97a7; stroke: #8b97a7; stroke-width: 0.8"/>
      </g>
     </g>
     <g id="text_6">
      <!-- 1.0 -->
      <g style="fill: #8b97a7" transform="translate(512.484062 404.715547) scale(0.09 -0.09)">
       <defs>
        <path id="DejaVuSans-14" d="M 794 531 
L 1825 531 
L 1825 4091 
L 703 3866 
L 703 4441 
L 1819 4666 
L 2450 4666 
L 2450 531 
L 3481 531 
L 3481 0 
L 794 0 
L 794 531 
z
" transform="scale(0.015625)"/>
       </defs>
       <use xlink:href="#DejaVuSans-14"/>
       <use xlink:href="#DejaVuSans-11" transform="translate(63.625 0)"/>
       <use xlink:href="#DejaVuSans-13" transform="translate(95.40625 0)"/>
      </g>
     </g>
    </g>
    <g id="xtick_7">
     <g id="line2d_13">
      <path d="M 613.688094 390.877656 
L 613.688094 20.519592 
" clip-path="url(#pbb9b018b83)" style="fill: none; stroke: #2a3340; stroke-opacity: 0.5; stroke-width: 0.5; stroke-linecap: square"/>
     </g>
     <g id="line2d_14">
      <g>
       <use xlink:href="#m51bb005ec5" x="613.688094" y="390.877656" style="fill: #8b97a7; stroke: #8b97a7; stroke-width: 0.8"/>
      </g>
     </g>
     <g id="text_7">
      <!-- 1.2 -->
      <g style="fill: #8b97a7" transform="translate(606.531687 404.715547) scale(0.09 -0.09)">
       <use xlink:href="#DejaVuSans-14"/>
       <use xlink:href="#DejaVuSans-11" transform="translate(63.625 0)"/>
       <use xlink:href="#DejaVuSans-15" transform="translate(95.40625 0)"/>
      </g>
     </g>
    </g>
    <g id="text_8">
     <!-- |deviation from alignment| (ms) -->
     <g style="fill: #8b97a7" transform="translate(263.651953 418.519844) scale(0.1 -0.1)">
      <defs>
       <path id="DejaVuSans-5f" d="M 1344 4891 
L 1344 -1509 
L 813 -1509 
L 813 4891 
L 1344 4891 
z
" transform="scale(0.015625)"/>
       <path id="DejaVuSans-47" d="M 2906 2969 
L 2906 4863 
L 3481 4863 
L 3481 0 
L 2906 0 
L 2906 525 
Q 2725 213 2448 61 
Q 2172 -91 1784 -91 
Q 1150 -91 751 415 
Q 353 922 353 1747 
Q 353 2572 751 3078 
Q 1150 3584 1784 3584 
Q 2172 3584 2448 3432 
Q 2725 3281 2906 2969 
z
M 947 1747 
Q 947 1113 1208 752 
Q 1469 391 1925 391 
Q 2381 391 2643 752 
Q 2906 1113 2906 1747 
Q 2906 2381 2643 2742 
Q 2381 3103 1925 3103 
Q 1469 3103 1208 2742 
Q 947 2381 947 1747 
z
" transform="scale(0.015625)"/>
       <path id="DejaVuSans-48" d="M 3597 1894 
L 3597 1613 
L 953 1613 
Q 991 1019 1311 708 
Q 1631 397 2203 397 
Q 2534 397 2845 478 
Q 3156 559 3463 722 
L 3463 178 
Q 3153 47 2828 -22 
Q 2503 -91 2169 -91 
Q 1331 -91 842 396 
Q 353 884 353 1716 
Q 353 2575 817 3079 
Q 1281 3584 2069 3584 
Q 2775 3584 3186 3129 
Q 3597 2675 3597 1894 
z
M 3022 2063 
Q 3016 2534 2758 2815 
Q 2500 3097 2075 3097 
Q 1594 3097 1305 2825 
Q 1016 2553 972 2059 
L 3022 2063 
z
" transform="scale(0.015625)"/>
       <path id="DejaVuSans-59" d="M 191 3500 
L 800 3500 
L 1894 563 
L 2988 3500 
L 3597 3500 
L 2284 0 
L 1503 0 
L 191 3500 
z
" transform="scale(0.015625)"/>
       <path id="DejaVuSans-4c" d="M 603 3500 
L 1178 3500 
L 1178 0 
L 603 0 
L 603 3500 
z
M 603 4863 
L 1178 4863 
L 1178 4134 
L 603 4134 
L 603 4863 
z
" transform="scale(0.015625)"/>
       <path id="DejaVuSans-44" d="M 2194 1759 
Q 1497 1759 1228 1600 
Q 959 1441 959 1056 
Q 959 750 1161 570 
Q 1363 391 1709 391 
Q 2188 391 2477 730 
Q 2766 1069 2766 1631 
L 2766 1759 
L 2194 1759 
z
M 3341 1997 
L 3341 0 
L 2766 0 
L 2766 531 
Q 2569 213 2275 61 
Q 1981 -91 1556 -91 
Q 1019 -91 701 211 
Q 384 513 384 1019 
Q 384 1609 779 1909 
Q 1175 2209 1959 2209 
L 2766 2209 
L 2766 2266 
Q 2766 2663 2505 2880 
Q 2244 3097 1772 3097 
Q 1472 3097 1187 3025 
Q 903 2953 641 2809 
L 641 3341 
Q 956 3463 1253 3523 
Q 1550 3584 1831 3584 
Q 2591 3584 2966 3190 
Q 3341 2797 3341 1997 
z
" transform="scale(0.015625)"/>
       <path id="DejaVuSans-57" d="M 1172 4494 
L 1172 3500 
L 2356 3500 
L 2356 3053 
L 1172 3053 
L 1172 1153 
Q 1172 725 1289 603 
Q 1406 481 1766 481 
L 2356 481 
L 2356 0 
L 1766 0 
Q 1100 0 847 248 
Q 594 497 594 1153 
L 594 3053 
L 172 3053 
L 172 3500 
L 594 3500 
L 594 4494 
L 1172 4494 
z
" transform="scale(0.015625)"/>
       <path id="DejaVuSans-52" d="M 1959 3097 
Q 1497 3097 1228 2736 
Q 959 2375 959 1747 
Q 959 1119 1226 758 
Q 1494 397 1959 397 
Q 2419 397 2687 759 
Q 2956 1122 2956 1747 
Q 2956 2369 2687 2733 
Q 2419 3097 1959 3097 
z
M 1959 3584 
Q 2709 3584 3137 3096 
Q 3566 2609 3566 1747 
Q 3566 888 3137 398 
Q 2709 -91 1959 -91 
Q 1206 -91 779 398 
Q 353 888 353 1747 
Q 353 2609 779 3096 
Q 1206 3584 1959 3584 
z
" transform="scale(0.015625)"/>
       <path id="DejaVuSans-51" d="M 3513 2113 
L 3513 0 
L 2938 0 
L 2938 2094 
Q 2938 2591 2744 2837 
Q 2550 3084 2163 3084 
Q 1697 3084 1428 2787 
Q 1159 2491 1159 1978 
L 1159 0 
L 581 0 
L 581 3500 
L 1159 3500 
L 1159 2956 
Q 1366 3272 1645 3428 
Q 1925 3584 2291 3584 
Q 2894 3584 3203 3211 
Q 3513 2838 3513 2113 
z
" transform="scale(0.015625)"/>
       <path id="DejaVuSans-3" transform="scale(0.015625)"/>
       <path id="DejaVuSans-49" d="M 2375 4863 
L 2375 4384 
L 1825 4384 
Q 1516 4384 1395 4259 
Q 1275 4134 1275 3809 
L 1275 3500 
L 2222 3500 
L 2222 3053 
L 1275 3053 
L 1275 0 
L 697 0 
L 697 3053 
L 147 3053 
L 147 3500 
L 697 3500 
L 697 3744 
Q 697 4328 969 4595 
Q 1241 4863 1831 4863 
L 2375 4863 
z
" transform="scale(0.015625)"/>
       <path id="DejaVuSans-55" d="M 2631 2963 
Q 2534 3019 2420 3045 
Q 2306 3072 2169 3072 
Q 1681 3072 1420 2755 
Q 1159 2438 1159 1844 
L 1159 0 
L 581 0 
L 581 3500 
L 1159 3500 
L 1159 2956 
Q 1341 3275 1631 3429 
Q 1922 3584 2338 3584 
Q 2397 3584 2469 3576 
Q 2541 3569 2628 3553 
L 2631 2963 
z
" transform="scale(0.015625)"/>
       <path id="DejaVuSans-50" d="M 3328 2828 
Q 3544 3216 3844 3400 
Q 4144 3584 4550 3584 
Q 5097 3584 5394 3201 
Q 5691 2819 5691 2113 
L 5691 0 
L 5113 0 
L 5113 2094 
Q 5113 2597 4934 2840 
Q 4756 3084 4391 3084 
Q 3944 3084 3684 2787 
Q 3425 2491 3425 1978 
L 3425 0 
L 2847 0 
L 2847 2094 
Q 2847 2600 2669 2842 
Q 2491 3084 2119 3084 
Q 1678 3084 1418 2786 
Q 1159 2488 1159 1978 
L 1159 0 
L 581 0 
L 581 3500 
L 1159 3500 
L 1159 2956 
Q 1356 3278 1631 3431 
Q 1906 3584 2284 3584 
Q 2666 3584 2933 3390 
Q 3200 3197 3328 2828 
z
" transform="scale(0.015625)"/>
       <path id="DejaVuSans-4f" d="M 603 4863 
L 1178 4863 
L 1178 0 
L 603 0 
L 603 4863 
z
" transform="scale(0.015625)"/>
       <path id="DejaVuSans-4a" d="M 2906 1791 
Q 2906 2416 2648 2759 
Q 2391 3103 1925 3103 
Q 1463 3103 1205 2759 
Q 947 2416 947 1791 
Q 947 1169 1205 825 
Q 1463 481 1925 481 
Q 2391 481 2648 825 
Q 2906 1169 2906 1791 
z
M 3481 434 
Q 3481 -459 3084 -895 
Q 2688 -1331 1869 -1331 
Q 1566 -1331 1297 -1286 
Q 1028 -1241 775 -1147 
L 775 -588 
Q 1028 -725 1275 -790 
Q 1522 -856 1778 -856 
Q 2344 -856 2625 -561 
Q 2906 -266 2906 331 
L 2906 616 
Q 2728 306 2450 153 
Q 2172 0 1784 0 
Q 1141 0 747 490 
Q 353 981 353 1791 
Q 353 2603 747 3093 
Q 1141 3584 1784 3584 
Q 2172 3584 2450 3431 
Q 2728 3278 2906 2969 
L 2906 3500 
L 3481 3500 
L 3481 434 
z
" transform="scale(0.015625)"/>
       <path id="DejaVuSans-b" d="M 1984 4856 
Q 1566 4138 1362 3434 
Q 1159 2731 1159 2009 
Q 1159 1288 1364 580 
Q 1569 -128 1984 -844 
L 1484 -844 
Q 1016 -109 783 600 
Q 550 1309 550 2009 
Q 550 2706 781 3412 
Q 1013 4119 1484 4856 
L 1984 4856 
z
" transform="scale(0.015625)"/>
       <path id="DejaVuSans-56" d="M 2834 3397 
L 2834 2853 
Q 2591 2978 2328 3040 
Q 2066 3103 1784 3103 
Q 1356 3103 1142 2972 
Q 928 2841 928 2578 
Q 928 2378 1081 2264 
Q 1234 2150 1697 2047 
L 1894 2003 
Q 2506 1872 2764 1633 
Q 3022 1394 3022 966 
Q 3022 478 2636 193 
Q 2250 -91 1575 -91 
Q 1294 -91 989 -36 
Q 684 19 347 128 
L 347 722 
Q 666 556 975 473 
Q 1284 391 1588 391 
Q 1994 391 2212 530 
Q 2431 669 2431 922 
Q 2431 1156 2273 1281 
Q 2116 1406 1581 1522 
L 1381 1569 
Q 847 1681 609 1914 
Q 372 2147 372 2553 
Q 372 3047 722 3315 
Q 1072 3584 1716 3584 
Q 2034 3584 2315 3537 
Q 2597 3491 2834 3397 
z
" transform="scale(0.015625)"/>
       <path id="DejaVuSans-c" d="M 513 4856 
L 1013 4856 
Q 1481 4119 1714 3412 
Q 1947 2706 1947 2009 
Q 1947 1309 1714 600 
Q 1481 -109 1013 -844 
L 513 -844 
Q 928 -128 1133 580 
Q 1338 1288 1338 2009 
Q 1338 2731 1133 3434 
Q 928 4138 513 4856 
z
" transform="scale(0.015625)"/>
      </defs>
      <use xlink:href="#DejaVuSans-5f"/>
      <use xlink:href="#DejaVuSans-47" transform="translate(33.6875 0)"/>
      <use xlink:href="#DejaVuSans-48" transform="translate(97.171875 0)"/>
      <use xlink:href="#DejaVuSans-59" transform="translate(158.703125 0)"/>
      <use xlink:href="#DejaVuSans-4c" transform="translate(217.890625 0)"/>
      <use xlink:href="#DejaVuSans-44" transform="translate(245.671875 0)"/>
      <use xlink:href="#DejaVuSans-57" transform="translate(306.953125 0)"/>
      <use xlink:href="#DejaVuSans-4c" transform="translate(346.15625 0)"/>
      <use xlink:href="#DejaVuSans-52" transform="translate(373.9375 0)"/>
      <use xlink:href="#DejaVuSans-51" transform="translate(435.125 0)"/>
      <use xlink:href="#DejaVuSans-3" transform="translate(498.5 0)"/>
      <use xlink:href="#DejaVuSans-49" transform="translate(530.28125 0)"/>
      <use xlink:href="#DejaVuSans-55" transform="translate(565.484375 0)"/>
      <use xlink:href="#DejaVuSans-52" transform="translate(604.390625 0)"/>
      <use xlink:href="#DejaVuSans-50" transform="translate(665.578125 0)"/>
      <use xlink:href="#DejaVuSans-3" transform="translate(762.984375 0)"/>
      <use xlink:href="#DejaVuSans-44" transform="translate(794.765625 0)"/>
      <use xlink:href="#DejaVuSans-4f" transform="translate(856.046875 0)"/>
      <use xlink:href="#DejaVuSans-4c" transform="translate(883.828125 0)"/>
      <use xlink:href="#DejaVuSans-4a" transform="translate(911.609375 0)"/>
      <use xlink:href="#DejaVuSans-51" transform="translate(975.09375 0)"/>
      <use xlink:href="#DejaVuSans-50" transform="translate(1038.46875 0)"/>
      <use xlink:href="#DejaVuSans-48" transform="translate(1135.875 0)"/>
      <use xlink:href="#DejaVuSans-51" transform="translate(1197.40625 0)"/>
      <use xlink:href="#DejaVuSans-57" transform="translate(1260.78125 0)"/>
      <use xlink:href="#DejaVuSans-5f" transform="translate(1299.984375 0)"/>
      <use xlink:href="#DejaVuSans-3" transform="translate(1333.671875 0)"/>
      <use xlink:href="#DejaVuSans-b" transform="translate(1365.453125 0)"/>
      <use xlink:href="#DejaVuSans-50" transform="translate(1404.46875 0)"/>
      <use xlink:href="#DejaVuSans-56" transform="translate(1501.875 0)"/>
      <use xlink:href="#DejaVuSans-c" transform="translate(1553.96875 0)"/>
     </g>
    </g>
   </g>
   <g id="matplotlib.axis_2">
    <g id="ytick_1">
     <g id="line2d_15">
      <path d="M 49.402344 390.877656 
L 637.2 390.877656 
" clip-path="url(#pbb9b018b83)" style="fill: none; stroke: #2a3340; stroke-opacity: 0.5; stroke-width: 0.5; stroke-linecap: square"/>
     </g>
     <g id="line2d_16">
      <defs>
       <path id="mc12644188a" d="M 0 0 
L -3.5 0 
" style="stroke: #8b97a7; stroke-width: 0.8"/>
      </defs>
      <g>
       <use xlink:href="#mc12644188a" x="49.402344" y="390.877656" style="fill: #8b97a7; stroke: #8b97a7; stroke-width: 0.8"/>
      </g>
     </g>
     <g id="text_9">
      <!-- 40 -->
      <g style="fill: #8b97a7" transform="translate(30.949844 394.296602) scale(0.09 -0.09)">
       <use xlink:href="#DejaVuSans-17"/>
       <use xlink:href="#DejaVuSans-13" transform="translate(63.625 0)"/>
      </g>
     </g>
    </g>
    <g id="ytick_2">
     <g id="line2d_17">
      <path d="M 49.402344 329.661447 
L 637.2 329.661447 
" clip-path="url(#pbb9b018b83)" style="fill: none; stroke: #2a3340; stroke-opacity: 0.5; stroke-width: 0.5; stroke-linecap: square"/>
     </g>
     <g id="line2d_18">
      <g>
       <use xlink:href="#mc12644188a" x="49.402344" y="329.661447" style="fill: #8b97a7; stroke: #8b97a7; stroke-width: 0.8"/>
      </g>
     </g>
     <g id="text_10">
      <!-- 50 -->
      <g style="fill: #8b97a7" transform="translate(30.949844 333.080393) scale(0.09 -0.09)">
       <defs>
        <path id="DejaVuSans-18" d="M 691 4666 
L 3169 4666 
L 3169 4134 
L 1269 4134 
L 1269 2991 
Q 1406 3038 1543 3061 
Q 1681 3084 1819 3084 
Q 2600 3084 3056 2656 
Q 3513 2228 3513 1497 
Q 3513 744 3044 326 
Q 2575 -91 1722 -91 
Q 1428 -91 1123 -41 
Q 819 9 494 109 
L 494 744 
Q 775 591 1075 516 
Q 1375 441 1709 441 
Q 2250 441 2565 725 
Q 2881 1009 2881 1497 
Q 2881 1984 2565 2268 
Q 2250 2553 1709 2553 
Q 1456 2553 1204 2497 
Q 953 2441 691 2322 
L 691 4666 
z
" transform="scale(0.015625)"/>
       </defs>
       <use xlink:href="#DejaVuSans-18"/>
       <use xlink:href="#DejaVuSans-13" transform="translate(63.625 0)"/>
      </g>
     </g>
    </g>
    <g id="ytick_3">
     <g id="line2d_19">
      <path d="M 49.402344 268.445238 
L 637.2 268.445238 
" clip-path="url(#pbb9b018b83)" style="fill: none; stroke: #2a3340; stroke-opacity: 0.5; stroke-width: 0.5; stroke-linecap: square"/>
     </g>
     <g id="line2d_20">
      <g>
       <use xlink:href="#mc12644188a" x="49.402344" y="268.445238" style="fill: #8b97a7; stroke: #8b97a7; stroke-width: 0.8"/>
      </g>
     </g>
     <g id="text_11">
      <!-- 60 -->
      <g style="fill: #8b97a7" transform="translate(30.949844 271.864184) scale(0.09 -0.09)">
       <use xlink:href="#DejaVuSans-19"/>
       <use xlink:href="#DejaVuSans-13" transform="translate(63.625 0)"/>
      </g>
     </g>
    </g>
    <g id="ytick_4">
     <g id="line2d_21">
      <path d="M 49.402344 207.229029 
L 637.2 207.229029 
" clip-path="url(#pbb9b018b83)" style="fill: none; stroke: #2a3340; stroke-opacity: 0.5; stroke-width: 0.5; stroke-linecap: square"/>
     </g>
     <g id="line2d_22">
      <g>
       <use xlink:href="#mc12644188a" x="49.402344" y="207.229029" style="fill: #8b97a7; stroke: #8b97a7; stroke-width: 0.8"/>
      </g>
     </g>
     <g id="text_12">
      <!-- 70 -->
      <g style="fill: #8b97a7" transform="translate(30.949844 210.647974) scale(0.09 -0.09)">
       <defs>
        <path id="DejaVuSans-1a" d="M 525 4666 
L 3525 4666 
L 3525 4397 
L 1831 0 
L 1172 0 
L 2766 4134 
L 525 4134 
L 525 4666 
z
" transform="scale(0.015625)"/>
       </defs>
       <use xlink:href="#DejaVuSans-1a"/>
       <use xlink:href="#DejaVuSans-13" transform="translate(63.625 0)"/>
      </g>
     </g>
    </g>
    <g id="ytick_5">
     <g id="line2d_23">
      <path d="M 49.402344 146.01282 
L 637.2 146.01282 
" clip-path="url(#pbb9b018b83)" style="fill: none; stroke: #2a3340; stroke-opacity: 0.5; stroke-width: 0.5; stroke-linecap: square"/>
     </g>
     <g id="line2d_24">
      <g>
       <use xlink:href="#mc12644188a" x="49.402344" y="146.01282" style="fill: #8b97a7; stroke: #8b97a7; stroke-width: 0.8"/>
      </g>
     </g>
     <g id="text_13">
      <!-- 80 -->
      <g style="fill: #8b97a7" transform="translate(30.949844 149.431765) scale(0.09 -0.09)">
       <use xlink:href="#DejaVuSans-1b"/>
       <use xlink:href="#DejaVuSans-13" transform="translate(63.625 0)"/>
      </g>
     </g>
    </g>
    <g id="ytick_6">
     <g id="line2d_25">
      <path d="M 49.402344 84.796611 
L 637.2 84.796611 
" clip-path="url(#pbb9b018b83)" style="fill: none; stroke: #2a3340; stroke-opacity: 0.5; stroke-width: 0.5; stroke-linecap: square"/>
     </g>
     <g id="line2d_26">
      <g>
       <use xlink:href="#mc12644188a" x="49.402344" y="84.796611" style="fill: #8b97a7; stroke: #8b97a7; stroke-width: 0.8"/>
      </g>
     </g>
     <g id="text_14">
      <!-- 90 -->
      <g style="fill: #8b97a7" transform="translate(30.949844 88.215556) scale(0.09 -0.09)">
       <defs>
        <path id="DejaVuSans-1c" d="M 703 97 
L 703 672 
Q 941 559 1184 500 
Q 1428 441 1663 441 
Q 2288 441 2617 861 
Q 2947 1281 2994 2138 
Q 2813 1869 2534 1725 
Q 2256 1581 1919 1581 
Q 1219 1581 811 2004 
Q 403 2428 403 3163 
Q 403 3881 828 4315 
Q 1253 4750 1959 4750 
Q 2769 4750 3195 4129 
Q 3622 3509 3622 2328 
Q 3622 1225 3098 567 
Q 2575 -91 1691 -91 
Q 1453 -91 1209 -44 
Q 966 3 703 97 
z
M 1959 2075 
Q 2384 2075 2632 2365 
Q 2881 2656 2881 3163 
Q 2881 3666 2632 3958 
Q 2384 4250 1959 4250 
Q 1534 4250 1286 3958 
Q 1038 3666 1038 3163 
Q 1038 2656 1286 2365 
Q 1534 2075 1959 2075 
z
" transform="scale(0.015625)"/>
       </defs>
       <use xlink:href="#DejaVuSans-1c"/>
       <use xlink:href="#DejaVuSans-13" transform="translate(63.625 0)"/>
      </g>
     </g>
    </g>
    <g id="ytick_7">
     <g id="line2d_27">
      <path d="M 49.402344 23.580402 
L 637.2 23.580402 
" clip-path="url(#pbb9b018b83)" style="fill: none; stroke: #2a3340; stroke-opacity: 0.5; stroke-width: 0.5; stroke-linecap: square"/>
     </g>
     <g id="line2d_28">
      <g>
       <use xlink:href="#mc12644188a" x="49.402344" y="23.580402" style="fill: #8b97a7; stroke: #8b97a7; stroke-width: 0.8"/>
      </g>
     </g>
     <g id="text_15">
      <!-- 100 -->
      <g style="fill: #8b97a7" transform="translate(25.223594 26.999347) scale(0.09 -0.09)">
       <use xlink:href="#DejaVuSans-14"/>
       <use xlink:href="#DejaVuSans-13" transform="translate(63.625 0)"/>
       <use xlink:href="#DejaVuSans-13" transform="translate(127.25 0)"/>
      </g>
     </g>
    </g>
    <g id="text_16">
     <!-- percentile of cycles (%) -->
     <g style="fill: #8b97a7" transform="translate(18.82125 264.47128) rotate(-90) scale(0.1 -0.1)">
      <defs>
       <path id="DejaVuSans-53" d="M 1159 525 
L 1159 -1331 
L 581 -1331 
L 581 3500 
L 1159 3500 
L 1159 2969 
Q 1341 3281 1617 3432 
Q 1894 3584 2278 3584 
Q 2916 3584 3314 3078 
Q 3713 2572 3713 1747 
Q 3713 922 3314 415 
Q 2916 -91 2278 -91 
Q 1894 -91 1617 61 
Q 1341 213 1159 525 
z
M 3116 1747 
Q 3116 2381 2855 2742 
Q 2594 3103 2138 3103 
Q 1681 3103 1420 2742 
Q 1159 2381 1159 1747 
Q 1159 1113 1420 752 
Q 1681 391 2138 391 
Q 2594 391 2855 752 
Q 3116 1113 3116 1747 
z
" transform="scale(0.015625)"/>
       <path id="DejaVuSans-46" d="M 3122 3366 
L 3122 2828 
Q 2878 2963 2633 3030 
Q 2388 3097 2138 3097 
Q 1578 3097 1268 2742 
Q 959 2388 959 1747 
Q 959 1106 1268 751 
Q 1578 397 2138 397 
Q 2388 397 2633 464 
Q 2878 531 3122 666 
L 3122 134 
Q 2881 22 2623 -34 
Q 2366 -91 2075 -91 
Q 1284 -91 818 406 
Q 353 903 353 1747 
Q 353 2603 823 3093 
Q 1294 3584 2113 3584 
Q 2378 3584 2631 3529 
Q 2884 3475 3122 3366 
z
" transform="scale(0.015625)"/>
       <path id="DejaVuSans-5c" d="M 2059 -325 
Q 1816 -950 1584 -1140 
Q 1353 -1331 966 -1331 
L 506 -1331 
L 506 -850 
L 844 -850 
Q 1081 -850 1212 -737 
Q 1344 -625 1503 -206 
L 1606 56 
L 191 3500 
L 800 3500 
L 1894 763 
L 2988 3500 
L 3597 3500 
L 2059 -325 
z
" transform="scale(0.015625)"/>
       <path id="DejaVuSans-8" d="M 4653 2053 
Q 4381 2053 4226 1822 
Q 4072 1591 4072 1178 
Q 4072 772 4226 539 
Q 4381 306 4653 306 
Q 4919 306 5073 539 
Q 5228 772 5228 1178 
Q 5228 1588 5073 1820 
Q 4919 2053 4653 2053 
z
M 4653 2450 
Q 5147 2450 5437 2106 
Q 5728 1763 5728 1178 
Q 5728 594 5436 251 
Q 5144 -91 4653 -91 
Q 4153 -91 3862 251 
Q 3572 594 3572 1178 
Q 3572 1766 3864 2108 
Q 4156 2450 4653 2450 
z
M 1428 4353 
Q 1159 4353 1004 4120 
Q 850 3888 850 3481 
Q 850 3069 1003 2837 
Q 1156 2606 1428 2606 
Q 1700 2606 1854 2837 
Q 2009 3069 2009 3481 
Q 2009 3884 1853 4118 
Q 1697 4353 1428 4353 
z
M 4250 4750 
L 4750 4750 
L 1831 -91 
L 1331 -91 
L 4250 4750 
z
M 1428 4750 
Q 1922 4750 2215 4408 
Q 2509 4066 2509 3481 
Q 2509 2891 2217 2550 
Q 1925 2209 1428 2209 
Q 931 2209 642 2551 
Q 353 2894 353 3481 
Q 353 4063 643 4406 
Q 934 4750 1428 4750 
z
" transform="scale(0.015625)"/>
      </defs>
      <use xlink:href="#DejaVuSans-53"/>
      <use xlink:href="#DejaVuSans-48" transform="translate(63.484375 0)"/>
      <use xlink:href="#DejaVuSans-55" transform="translate(125.015625 0)"/>
      <use xlink:href="#DejaVuSans-46" transform="translate(163.921875 0)"/>
      <use xlink:href="#DejaVuSans-48" transform="translate(218.90625 0)"/>
      <use xlink:href="#DejaVuSans-51" transform="translate(280.4375 0)"/>
      <use xlink:href="#DejaVuSans-57" transform="translate(343.8125 0)"/>
      <use xlink:href="#DejaVuSans-4c" transform="translate(383.015625 0)"/>
      <use xlink:href="#DejaVuSans-4f" transform="translate(410.796875 0)"/>
      <use xlink:href="#DejaVuSans-48" transform="translate(438.578125 0)"/>
      <use xlink:href="#DejaVuSans-3" transform="translate(500.109375 0)"/>
      <use xlink:href="#DejaVuSans-52" transform="translate(531.890625 0)"/>
      <use xlink:href="#DejaVuSans-49" transform="translate(593.078125 0)"/>
      <use xlink:href="#DejaVuSans-3" transform="translate(628.28125 0)"/>
      <use xlink:href="#DejaVuSans-46" transform="translate(660.0625 0)"/>
      <use xlink:href="#DejaVuSans-5c" transform="translate(715.046875 0)"/>
      <use xlink:href="#DejaVuSans-46" transform="translate(774.234375 0)"/>
      <use xlink:href="#DejaVuSans-4f" transform="translate(829.21875 0)"/>
      <use xlink:href="#DejaVuSans-48" transform="translate(857 0)"/>
      <use xlink:href="#DejaVuSans-56" transform="translate(918.53125 0)"/>
      <use xlink:href="#DejaVuSans-3" transform="translate(970.625 0)"/>
      <use xlink:href="#DejaVuSans-b" transform="translate(1002.40625 0)"/>
      <use xlink:href="#DejaVuSans-8" transform="translate(1041.421875 0)"/>
      <use xlink:href="#DejaVuSans-c" transform="translate(1136.4375 0)"/>
     </g>
    </g>
   </g>
   <g id="line2d_29">
    <path d="M 74.399417 433 
L 75.598687 417.113174 
L 75.614103 415.991998 
L 76.319669 414.870822 
L 76.372239 413.749646 
L 76.719068 412.62847 
L 76.964364 410.386118 
L 77.385855 409.264942 
L 77.536864 408.143766 
L 77.539667 407.02259 
L 78.039852 404.780239 
L 78.173125 402.537887 
L 78.386544 401.416711 
L 78.55408 398.053183 
L 78.660431 394.689655 
L 78.802646 393.568479 
L 79.329385 391.326127 
L 79.743319 389.083775 
L 80.093793 387.962599 
L 80.343875 383.477895 
L 80.775821 380.114367 
L 81.238799 375.629663 
L 81.638841 374.508487 
L 81.770381 372.266135 
L 82.312902 366.660255 
L 82.456496 365.539079 
L 82.917288 364.417903 
L 82.936391 363.296727 
L 83.39214 362.175551 
L 83.702948 361.054375 
L 83.895167 359.933199 
L 84.264588 358.812023 
L 84.823563 357.690847 
L 84.929207 355.448495 
L 84.929949 354.327319 
L 85.64849 352.084967 
L 85.648802 350.963791 
L 86.003495 347.600263 
L 86.035758 345.357911 
L 86.566607 344.236735 
L 86.793075 343.115559 
L 87.018032 340.873207 
L 87.132229 339.752031 
L 87.459268 338.630855 
L 87.47829 336.388503 
L 88.381254 334.146151 
L 88.473266 333.024975 
L 88.791109 331.903799 
L 88.947188 330.782623 
L 88.981859 329.661447 
L 89.411541 328.540271 
L 89.673455 327.419095 
L 90.202824 326.297919 
L 90.362738 322.934391 
L 90.483447 320.692039 
L 90.950664 317.328511 
L 90.951009 316.207335 
L 91.224879 315.086159 
L 91.727109 313.964983 
L 91.761722 312.843807 
L 92.129858 311.722631 
L 92.215011 307.237927 
L 92.654617 306.116751 
L 93.36121 302.753223 
L 93.381757 301.632047 
L 93.514658 300.510871 
L 94.080552 299.389696 
L 94.081718 298.26852 
L 94.698289 293.783816 
L 95.546275 292.66264 
L 95.892549 291.541464 
L 96.03922 290.420288 
L 96.520251 289.299112 
L 96.755502 288.177936 
L 96.822663 287.05676 
L 97.157875 285.935584 
L 97.323298 284.814408 
L 97.620226 283.693232 
L 97.668082 281.45088 
L 97.878523 278.087352 
L 98.233835 276.966176 
L 98.370657 274.723824 
L 98.61627 273.602648 
L 98.674745 272.481472 
L 98.990834 271.360296 
L 98.993641 270.23912 
L 99.244824 269.117944 
L 99.845567 267.996768 
L 100.056718 264.63324 
L 100.605419 263.512064 
L 100.823732 262.390888 
L 101.327474 261.269712 
L 101.993207 260.148536 
L 102.278944 259.02736 
L 102.491384 256.785008 
L 102.734928 255.663832 
L 103.153004 254.542656 
L 103.251418 250.057952 
L 103.359879 248.936776 
L 104.019884 247.8156 
L 104.136979 246.694424 
L 104.142018 245.573248 
L 104.482819 243.330896 
L 104.623742 241.088544 
L 104.993502 239.967368 
L 105.480956 238.846192 
L 105.492525 237.725016 
L 106.201459 236.60384 
L 106.766781 232.119136 
L 106.822295 230.99796 
L 107.025208 229.876784 
L 107.161609 227.634432 
L 107.433176 226.513256 
L 107.538672 225.39208 
L 107.776837 224.270904 
L 108.464365 223.149728 
L 108.736027 222.028552 
L 108.768328 220.907376 
L 109.237658 218.665024 
L 109.444539 215.301496 
L 109.558022 214.18032 
L 109.929796 213.059144 
L 110.050951 211.937968 
L 110.756392 210.816792 
L 111.626393 209.695616 
L 111.648033 208.57444 
L 112.153552 207.453264 
L 112.180256 206.332088 
L 112.587123 205.210912 
L 113.368876 204.089736 
L 113.626639 202.96856 
L 113.628743 201.847384 
L 113.861927 200.726208 
L 113.931106 199.605032 
L 115.391548 193.999152 
L 115.572389 191.756801 
L 115.864071 190.635625 
L 116.356059 189.514449 
L 116.516844 188.393273 
L 117.112376 187.272097 
L 117.239915 186.150921 
L 118.134991 185.029745 
L 119.258422 177.181513 
L 119.339912 176.060337 
L 119.815495 174.939161 
L 120.212 171.575633 
L 121.533496 165.969753 
L 122.088824 164.848577 
L 122.941202 162.606225 
L 123.530582 161.485049 
L 123.56025 160.363873 
L 123.977691 159.242697 
L 124.010546 158.121521 
L 124.295563 155.879169 
L 126.526417 154.757993 
L 128.249015 151.394465 
L 130.52575 150.273289 
L 132.536489 141.303881 
L 132.888449 140.182705 
L 133.412249 137.940353 
L 133.790923 136.819177 
L 135.26804 135.698001 
L 135.682375 134.576825 
L 138.422492 133.455649 
L 138.533132 131.213297 
L 139.564937 130.092121 
L 139.719647 127.849769 
L 140.31396 126.728593 
L 141.836474 125.607417 
L 141.861103 124.486241 
L 142.586452 123.365065 
L 142.727312 122.243889 
L 144.550118 121.122713 
L 144.613506 120.001537 
L 144.962168 118.880361 
L 145.102648 117.759185 
L 145.38969 116.638009 
L 145.942839 115.516833 
L 146.020858 114.395657 
L 146.546796 113.274481 
L 148.229877 112.153305 
L 148.269719 111.032129 
L 149.338782 109.910953 
L 150.070614 108.789777 
L 150.168949 107.668601 
L 150.453108 106.547425 
L 152.432508 105.426249 
L 152.963591 104.305073 
L 152.970314 103.183897 
L 153.689766 102.062721 
L 154.100591 100.941545 
L 155.312122 99.820369 
L 155.316931 98.699193 
L 156.270533 97.578017 
L 156.578501 95.335665 
L 157.671802 94.214489 
L 159.337142 93.093313 
L 160.119641 91.972137 
L 160.638423 90.850961 
L 161.604341 89.729785 
L 162.397715 87.487433 
L 162.42829 86.366257 
L 163.007838 85.245081 
L 163.424267 84.123906 
L 163.503783 83.00273 
L 164.818667 81.881554 
L 165.694331 80.760378 
L 166.276689 79.639202 
L 167.474834 78.518026 
L 169.442766 77.39685 
L 170.342139 76.275674 
L 173.224057 75.154498 
L 173.280996 74.033322 
L 174.368067 71.79097 
L 177.324169 70.669794 
L 177.94655 69.548618 
L 178.966077 68.427442 
L 179.00809 67.306266 
L 179.263739 66.18509 
L 180.620815 65.063914 
L 182.434829 63.942738 
L 183.904317 62.821562 
L 184.003043 61.700386 
L 186.766811 60.57921 
L 186.873132 59.458034 
L 188.201985 58.336858 
L 190.363006 57.215682 
L 192.847735 56.094506 
L 195.047682 54.97333 
L 195.984718 52.730978 
L 196.654668 51.609802 
L 201.04553 50.488626 
L 201.341312 49.36745 
L 202.108454 48.246274 
L 202.379519 47.125098 
L 205.978435 44.882746 
L 207.967135 43.76157 
L 209.070518 42.640394 
L 214.280692 41.519218 
L 215.442067 40.398042 
L 216.962163 39.276866 
L 223.762233 38.15569 
L 224.17899 37.034514 
L 226.619159 35.913338 
L 227.772972 34.792162 
L 227.840037 33.670986 
L 230.874537 32.54981 
L 233.000906 31.428634 
L 234.223275 30.307458 
L 238.193136 29.186282 
L 252.008213 28.065106 
L 252.418896 26.94393 
L 258.419808 25.822754 
L 259.603094 24.701578 
L 275.120852 23.580402 
L 275.120852 23.580402 
" clip-path="url(#pbb9b018b83)" style="fill: none; stroke: #35e3b3; stroke-width: 2.2; stroke-linecap: square"/>
   </g>
   <g id="line2d_30">
    <path d="M 519.640469 390.877656 
L 519.640469 20.519592 
" clip-path="url(#pbb9b018b83)" style="fill: none; stroke-dasharray: 4.44,1.92; stroke-dashoffset: 0; stroke: #ffb454; stroke-opacity: 0.8; stroke-width: 1.2"/>
   </g>
   <g id="line2d_31">
    <path d="M 88.981859 390.877656 
L 88.981859 329.661447 
" clip-path="url(#pbb9b018b83)" style="fill: none; stroke-dasharray: 0.8,1.32; stroke-dashoffset: 0; stroke: #8b97a7; stroke-width: 0.8"/>
   </g>
   <g id="line2d_32">
    <path d="M 49.402344 329.661447 
L 88.981859 329.661447 
" clip-path="url(#pbb9b018b83)" style="fill: none; stroke-dasharray: 0.8,1.32; stroke-dashoffset: 0; stroke: #8b97a7; stroke-width: 0.8"/>
   </g>
   <g id="line2d_33">
    <path d="M 163.17441 390.877656 
L 163.17441 84.796611 
" clip-path="url(#pbb9b018b83)" style="fill: none; stroke-dasharray: 0.8,1.32; stroke-dashoffset: 0; stroke: #8b97a7; stroke-width: 0.8"/>
   </g>
   <g id="line2d_34">
    <path d="M 49.402344 84.796611 
L 163.17441 84.796611 
" clip-path="url(#pbb9b018b83)" style="fill: none; stroke-dasharray: 0.8,1.32; stroke-dashoffset: 0; stroke: #8b97a7; stroke-width: 0.8"/>
   </g>
   <g id="line2d_35">
    <path d="M 254.039142 390.877656 
L 254.039142 26.641213 
" clip-path="url(#pbb9b018b83)" style="fill: none; stroke-dasharray: 0.8,1.32; stroke-dashoffset: 0; stroke: #8b97a7; stroke-width: 0.8"/>
   </g>
   <g id="line2d_36">
    <path d="M 49.402344 26.641213 
L 254.039142 26.641213 
" clip-path="url(#pbb9b018b83)" style="fill: none; stroke-dasharray: 0.8,1.32; stroke-dashoffset: 0; stroke: #8b97a7; stroke-width: 0.8"/>
   </g>
   <g id="patch_3">
    <path d="M 49.402344 390.877656 
L 49.402344 20.519592 
" style="fill: none; stroke: #2a3340; stroke-width: 0.8; stroke-linejoin: miter; stroke-linecap: square"/>
   </g>
   <g id="patch_4">
    <path d="M 637.2 390.877656 
L 637.2 20.519592 
" style="fill: none; stroke: #2a3340; stroke-width: 0.8; stroke-linejoin: miter; stroke-linecap: square"/>
   </g>
   <g id="patch_5">
    <path d="M 49.402344 390.877656 
L 637.2 390.877656 
" style="fill: none; stroke: #2a3340; stroke-width: 0.8; stroke-linejoin: miter; stroke-linecap: square"/>
   </g>
   <g id="patch_6">
    <path d="M 49.402344 20.519592 
L 637.2 20.519592 
" style="fill: none; stroke: #2a3340; stroke-width: 0.8; stroke-linejoin: miter; stroke-linecap: square"/>
   </g>
   <g id="text_17">
    <!--  1 ms target -->
    <g style="fill: #ffb454" transform="translate(526.478359 381.695225) rotate(-90) scale(0.09 -0.09)">
     <use xlink:href="#DejaVuSans-3"/>
     <use xlink:href="#DejaVuSans-14" transform="translate(31.78125 0)"/>
     <use xlink:href="#DejaVuSans-3" transform="translate(95.40625 0)"/>
     <use xlink:href="#DejaVuSans-50" transform="translate(127.1875 0)"/>
     <use xlink:href="#DejaVuSans-56" transform="translate(224.59375 0)"/>
     <use xlink:href="#DejaVuSans-3" transform="translate(276.6875 0)"/>
     <use xlink:href="#DejaVuSans-57" transform="translate(308.46875 0)"/>
     <use xlink:href="#DejaVuSans-44" transform="translate(347.671875 0)"/>
     <use xlink:href="#DejaVuSans-55" transform="translate(408.953125 0)"/>
     <use xlink:href="#DejaVuSans-4a" transform="translate(448.3125 0)"/>
     <use xlink:href="#DejaVuSans-48" transform="translate(511.796875 0)"/>
     <use xlink:href="#DejaVuSans-57" transform="translate(573.328125 0)"/>
    </g>
   </g>
   <g id="text_18">
    <!-- p50 = 84 µs -->
    <g style="fill: #e6edf3" transform="translate(98.981859 333.661447) scale(0.095 -0.095)">
     <defs>
      <path id="DejaVuSans-Bold-53" d="M 1656 506 
L 1656 -1331 
L 538 -1331 
L 538 3500 
L 1656 3500 
L 1656 2988 
Q 1888 3294 2169 3439 
Q 2450 3584 2816 3584 
Q 3463 3584 3878 3070 
Q 4294 2556 4294 1747 
Q 4294 938 3878 423 
Q 3463 -91 2816 -91 
Q 2450 -91 2169 54 
Q 1888 200 1656 506 
z
M 2400 2772 
Q 2041 2772 1848 2508 
Q 1656 2244 1656 1747 
Q 1656 1250 1848 986 
Q 2041 722 2400 722 
Q 2759 722 2948 984 
Q 3138 1247 3138 1747 
Q 3138 2247 2948 2509 
Q 2759 2772 2400 2772 
z
" transform="scale(0.015625)"/>
      <path id="DejaVuSans-Bold-18" d="M 678 4666 
L 3669 4666 
L 3669 3781 
L 1638 3781 
L 1638 3059 
Q 1775 3097 1914 3117 
Q 2053 3138 2203 3138 
Q 3056 3138 3531 2711 
Q 4006 2284 4006 1522 
Q 4006 766 3489 337 
Q 2972 -91 2053 -91 
Q 1656 -91 1267 -14 
Q 878 63 494 219 
L 494 1166 
Q 875 947 1217 837 
Q 1559 728 1863 728 
Q 2300 728 2551 942 
Q 2803 1156 2803 1522 
Q 2803 1891 2551 2103 
Q 2300 2316 1863 2316 
Q 1603 2316 1309 2248 
Q 1016 2181 678 2041 
L 678 4666 
z
" transform="scale(0.015625)"/>
      <path id="DejaVuSans-Bold-13" d="M 2944 2338 
Q 2944 3213 2780 3570 
Q 2616 3928 2228 3928 
Q 1841 3928 1675 3570 
Q 1509 3213 1509 2338 
Q 1509 1453 1675 1090 
Q 1841 728 2228 728 
Q 2613 728 2778 1090 
Q 2944 1453 2944 2338 
z
M 4147 2328 
Q 4147 1169 3647 539 
Q 3147 -91 2228 -91 
Q 1306 -91 806 539 
Q 306 1169 306 2328 
Q 306 3491 806 4120 
Q 1306 4750 2228 4750 
Q 3147 4750 3647 4120 
Q 4147 3491 4147 2328 
z
" transform="scale(0.015625)"/>
      <path id="DejaVuSans-Bold-3" transform="scale(0.015625)"/>
      <path id="DejaVuSans-Bold-20" d="M 678 3084 
L 4684 3084 
L 4684 2350 
L 678 2350 
L 678 3084 
z
M 678 1663 
L 4684 1663 
L 4684 922 
L 678 922 
L 678 1663 
z
" transform="scale(0.015625)"/>
      <path id="DejaVuSans-Bold-1b" d="M 2228 2088 
Q 1891 2088 1709 1903 
Q 1528 1719 1528 1375 
Q 1528 1031 1709 848 
Q 1891 666 2228 666 
Q 2563 666 2741 848 
Q 2919 1031 2919 1375 
Q 2919 1722 2741 1905 
Q 2563 2088 2228 2088 
z
M 1350 2484 
Q 925 2613 709 2878 
Q 494 3144 494 3541 
Q 494 4131 934 4440 
Q 1375 4750 2228 4750 
Q 3075 4750 3515 4442 
Q 3956 4134 3956 3541 
Q 3956 3144 3739 2878 
Q 3522 2613 3097 2484 
Q 3572 2353 3814 2058 
Q 4056 1763 4056 1313 
Q 4056 619 3595 264 
Q 3134 -91 2228 -91 
Q 1319 -91 855 264 
Q 391 619 391 1313 
Q 391 1763 633 2058 
Q 875 2353 1350 2484 
z
M 1631 3419 
Q 1631 3141 1786 2991 
Q 1941 2841 2228 2841 
Q 2509 2841 2662 2991 
Q 2816 3141 2816 3419 
Q 2816 3697 2662 3845 
Q 2509 3994 2228 3994 
Q 1941 3994 1786 3844 
Q 1631 3694 1631 3419 
z
" transform="scale(0.015625)"/>
      <path id="DejaVuSans-Bold-17" d="M 2356 3675 
L 1038 1722 
L 2356 1722 
L 2356 3675 
z
M 2156 4666 
L 3494 4666 
L 3494 1722 
L 4159 1722 
L 4159 850 
L 3494 850 
L 3494 0 
L 2356 0 
L 2356 850 
L 288 850 
L 288 1881 
L 2156 4666 
z
" transform="scale(0.015625)"/>
      <path id="DejaVuSans-Bold-77" d="M 544 -1338 
L 544 3500 
L 1672 3500 
L 1672 1466 
Q 1672 1103 1828 926 
Q 1984 750 2303 750 
Q 2625 750 2781 926 
Q 2938 1103 2938 1466 
L 2938 3500 
L 4063 3500 
L 4063 1159 
Q 4063 938 4114 850 
Q 4166 763 4288 763 
Q 4344 763 4395 778 
Q 4447 794 4506 831 
L 4506 50 
Q 4341 -22 4195 -56 
Q 4050 -91 3909 -91 
Q 3631 -91 3454 26 
Q 3278 144 3169 403 
Q 3022 156 2811 32 
Q 2600 -91 2322 -91 
Q 2091 -91 1928 -17 
Q 1766 56 1672 206 
L 1672 -1338 
L 544 -1338 
z
" transform="scale(0.015625)"/>
      <path id="DejaVuSans-Bold-56" d="M 3272 3391 
L 3272 2541 
Q 2913 2691 2578 2766 
Q 2244 2841 1947 2841 
Q 1628 2841 1473 2761 
Q 1319 2681 1319 2516 
Q 1319 2381 1436 2309 
Q 1553 2238 1856 2203 
L 2053 2175 
Q 2913 2066 3209 1816 
Q 3506 1566 3506 1031 
Q 3506 472 3093 190 
Q 2681 -91 1863 -91 
Q 1516 -91 1145 -36 
Q 775 19 384 128 
L 384 978 
Q 719 816 1070 734 
Q 1422 653 1784 653 
Q 2113 653 2278 743 
Q 2444 834 2444 1013 
Q 2444 1163 2330 1236 
Q 2216 1309 1875 1350 
L 1678 1375 
Q 931 1469 631 1722 
Q 331 1975 331 2491 
Q 331 3047 712 3315 
Q 1094 3584 1881 3584 
Q 2191 3584 2531 3537 
Q 2872 3491 3272 3391 
z
" transform="scale(0.015625)"/>
     </defs>
     <use xlink:href="#DejaVuSans-Bold-53"/>
     <use xlink:href="#DejaVuSans-Bold-18" transform="translate(71.578125 0)"/>
     <use xlink:href="#DejaVuSans-Bold-13" transform="translate(141.15625 0)"/>
     <use xlink:href="#DejaVuSans-Bold-3" transform="translate(210.734375 0)"/>
     <use xlink:href="#DejaVuSans-Bold-20" transform="translate(245.546875 0)"/>
     <use xlink:href="#DejaVuSans-Bold-3" transform="translate(329.34375 0)"/>
     <use xlink:href="#DejaVuSans-Bold-1b" transform="translate(364.15625 0)"/>
     <use xlink:href="#DejaVuSans-Bold-17" transform="translate(433.734375 0)"/>
     <use xlink:href="#DejaVuSans-Bold-3" transform="translate(503.3125 0)"/>
     <use xlink:href="#DejaVuSans-Bold-77" transform="translate(538.125 0)"/>
     <use xlink:href="#DejaVuSans-Bold-56" transform="translate(611.703125 0)"/>
    </g>
   </g>
   <g id="text_19">
    <!-- p90 = 242 µs -->
    <g style="fill: #e6edf3" transform="translate(173.17441 88.796611) scale(0.095 -0.095)">
     <defs>
      <path id="DejaVuSans-Bold-1c" d="M 641 103 
L 641 966 
Q 928 831 1190 764 
Q 1453 697 1709 697 
Q 2247 697 2547 995 
Q 2847 1294 2900 1881 
Q 2688 1725 2447 1647 
Q 2206 1569 1925 1569 
Q 1209 1569 770 1986 
Q 331 2403 331 3084 
Q 331 3838 820 4291 
Q 1309 4744 2131 4744 
Q 3044 4744 3544 4128 
Q 4044 3513 4044 2388 
Q 4044 1231 3459 570 
Q 2875 -91 1856 -91 
Q 1528 -91 1228 -42 
Q 928 6 641 103 
z
M 2125 2350 
Q 2441 2350 2600 2554 
Q 2759 2759 2759 3169 
Q 2759 3575 2600 3781 
Q 2441 3988 2125 3988 
Q 1809 3988 1650 3781 
Q 1491 3575 1491 3169 
Q 1491 2759 1650 2554 
Q 1809 2350 2125 2350 
z
" transform="scale(0.015625)"/>
      <path id="DejaVuSans-Bold-15" d="M 1844 884 
L 3897 884 
L 3897 0 
L 506 0 
L 506 884 
L 2209 2388 
Q 2438 2594 2547 2791 
Q 2656 2988 2656 3200 
Q 2656 3528 2436 3728 
Q 2216 3928 1850 3928 
Q 1569 3928 1234 3808 
Q 900 3688 519 3450 
L 519 4475 
Q 925 4609 1322 4679 
Q 1719 4750 2100 4750 
Q 2938 4750 3402 4381 
Q 3866 4013 3866 3353 
Q 3866 2972 3669 2642 
Q 3472 2313 2841 1759 
L 1844 884 
z
" transform="scale(0.015625)"/>
     </defs>
     <use xlink:href="#DejaVuSans-Bold-53"/>
     <use xlink:href="#DejaVuSans-Bold-1c" transform="translate(71.578125 0)"/>
     <use xlink:href="#DejaVuSans-Bold-13" transform="translate(141.15625 0)"/>
     <use xlink:href="#DejaVuSans-Bold-3" transform="translate(210.734375 0)"/>
     <use xlink:href="#DejaVuSans-Bold-20" transform="translate(245.546875 0)"/>
     <use xlink:href="#DejaVuSans-Bold-3" transform="translate(329.34375 0)"/>
     <use xlink:href="#DejaVuSans-Bold-15" transform="translate(364.15625 0)"/>
     <use xlink:href="#DejaVuSans-Bold-17" transform="translate(433.734375 0)"/>
     <use xlink:href="#DejaVuSans-Bold-15" transform="translate(503.3125 0)"/>
     <use xlink:href="#DejaVuSans-Bold-3" transform="translate(572.890625 0)"/>
     <use xlink:href="#DejaVuSans-Bold-77" transform="translate(607.703125 0)"/>
     <use xlink:href="#DejaVuSans-Bold-56" transform="translate(681.28125 0)"/>
    </g>
   </g>
   <g id="text_20">
    <!-- p99.5 = 435 µs -->
    <g style="fill: #e6edf3" transform="translate(264.039142 18.641213) scale(0.095 -0.095)">
     <defs>
      <path id="DejaVuSans-Bold-11" d="M 653 1209 
L 1778 1209 
L 1778 0 
L 653 0 
L 653 1209 
z
" transform="scale(0.015625)"/>
      <path id="DejaVuSans-Bold-16" d="M 2981 2516 
Q 3453 2394 3698 2092 
Q 3944 1791 3944 1325 
Q 3944 631 3412 270 
Q 2881 -91 1863 -91 
Q 1503 -91 1142 -33 
Q 781 25 428 141 
L 428 1069 
Q 766 900 1098 814 
Q 1431 728 1753 728 
Q 2231 728 2486 893 
Q 2741 1059 2741 1369 
Q 2741 1688 2480 1852 
Q 2219 2016 1709 2016 
L 1228 2016 
L 1228 2791 
L 1734 2791 
Q 2188 2791 2409 2933 
Q 2631 3075 2631 3366 
Q 2631 3634 2415 3781 
Q 2200 3928 1806 3928 
Q 1516 3928 1219 3862 
Q 922 3797 628 3669 
L 628 4550 
Q 984 4650 1334 4700 
Q 1684 4750 2022 4750 
Q 2931 4750 3382 4451 
Q 3834 4153 3834 3553 
Q 3834 3144 3618 2883 
Q 3403 2622 2981 2516 
z
" transform="scale(0.015625)"/>
     </defs>
     <use xlink:href="#DejaVuSans-Bold-53"/>
     <use xlink:href="#DejaVuSans-Bold-1c" transform="translate(71.578125 0)"/>
     <use xlink:href="#DejaVuSans-Bold-1c" transform="translate(141.15625 0)"/>
     <use xlink:href="#DejaVuSans-Bold-11" transform="translate(210.734375 0)"/>
     <use xlink:href="#DejaVuSans-Bold-18" transform="translate(248.71875 0)"/>
     <use xlink:href="#DejaVuSans-Bold-3" transform="translate(318.296875 0)"/>
     <use xlink:href="#DejaVuSans-Bold-20" transform="translate(353.109375 0)"/>
     <use xlink:href="#DejaVuSans-Bold-3" transform="translate(436.90625 0)"/>
     <use xlink:href="#DejaVuSans-Bold-17" transform="translate(471.71875 0)"/>
     <use xlink:href="#DejaVuSans-Bold-16" transform="translate(541.296875 0)"/>
     <use xlink:href="#DejaVuSans-Bold-18" transform="translate(610.875 0)"/>
     <use xlink:href="#DejaVuSans-Bold-3" transform="translate(680.453125 0)"/>
     <use xlink:href="#DejaVuSans-Bold-77" transform="translate(715.265625 0)"/>
     <use xlink:href="#DejaVuSans-Bold-56" transform="translate(788.84375 0)"/>
    </g>
   </g>
   <g id="PathCollection_1">
    <defs>
     <path id="mc97ddd880e" d="M 0 2.645751 
C 0.701661 2.645751 1.374679 2.366978 1.870829 1.870829 
C 2.366978 1.374679 2.645751 0.701661 2.645751 0 
C 2.645751 -0.701661 2.366978 -1.374679 1.870829 -1.870829 
C 1.374679 -2.366978 0.701661 -2.645751 0 -2.645751 
C -0.701661 -2.645751 -1.374679 -2.366978 -1.870829 -1.870829 
C -2.366978 -1.374679 -2.645751 -0.701661 -2.645751 0 
C -2.645751 0.701661 -2.366978 1.374679 -1.870829 1.870829 
C -1.374679 2.366978 -0.701661 2.645751 0 2.645751 
z
" style="stroke: #5bc8ff"/>
    </defs>
    <g clip-path="url(#pbb9b018b83)">
     <use xlink:href="#mc97ddd880e" x="88.981859" y="329.661447" style="fill: #5bc8ff; stroke: #5bc8ff"/>
    </g>
   </g>
   <g id="PathCollection_2">
    <g clip-path="url(#pbb9b018b83)">
     <use xlink:href="#mc97ddd880e" x="163.17441" y="84.796611" style="fill: #5bc8ff; stroke: #5bc8ff"/>
    </g>
   </g>
   <g id="PathCollection_3">
    <g clip-path="url(#pbb9b018b83)">
     <use xlink:href="#mc97ddd880e" x="254.039142" y="26.641213" style="fill: #5bc8ff; stroke: #5bc8ff"/>
    </g>
   </g>
  </g>
 </g>
 <defs>
  <clipPath id="pbb9b018b83">
   <rect x="49.402344" y="20.519592" width="587.797656" height="370.358065"/>
  </clipPath>
 </defs>
</svg>
