<?xml version="1.0" encoding="utf-8" standalone="no"?>
<!DOCTYPE svg PUBLIC "-//W3C//DTD SVG 1.1//EN"
  "http://www.w3.org/Graphics/SVG/1.1/DTD/svg11.dtd">
<svg xmlns:xlink="http://www.w3.org/1999/xlink" width="864pt" height="374.4pt" viewBox="0 0 864 374.4" xmlns="http://www.w3.org/2000/svg" version="1.1">
 <metadata>
  <rdf:RDF xmlns:dc="http://purl.org/dc/elements/1.1/" xmlns:cc="http://creativecommons.org/ns#" xmlns:rdf="http://www.w3.org/1999/02/22-rdf-syntax-ns#">
   <cc:Work>
    <dc:type rdf:resource="http://purl.org/dc/dcmitype/StillImage"/>
    <dc:date>2026-06-14T12:18:27.032090</dc:date>
    <dc:format>image/svg+xml</dc:format>
    <dc:creator>
     <cc:Agent>
      <dc:title>Matplotlib v3.11.0, https://matplotlib.org/</dc:title>
     </cc:Agent>
    </dc:creator>
   </cc:Work>
  </rdf:RDF>
 </metadata>
 <defs>
  <style type="text/css">*{stroke-linejoin: round; stroke-linecap: butt}</style>
 </defs>
 <g id="figure_1">
  <g id="patch_1">
   <path d="M 0 374.4 
L 864 374.4 
L 864 0 
L 0 0 
z
" style="fill: #11151a"/>
  </g>
  <g id="axes_1">
   <g id="patch_2">
    <path d="M 54.442344 349.277656 
L 853.2 349.277656 
L 853.2 10.8 
L 54.442344 10.8 
z
" style="fill: #11151a"/>
   </g>
   <g id="patch_3">
    <path d="M 54.442344 236.112687 
L 853.2 236.112687 
L 853.2 123.96497 
L 54.442344 123.96497 
z
" clip-path="url(#pfa117d408c)" style="fill: #ffb454; opacity: 0.1"/>
   </g>
   <g id="patch_4">
    <path d="M 54.442344 223.80641 
L 853.2 223.80641 
L 853.2 136.271246 
L 54.442344 136.271246 
z
" clip-path="url(#pfa117d408c)" style="fill: #5bc8ff; opacity: 0.14"/>
   </g>
   <g id="patch_5">
    <path d="M 54.442344 191.909393 
L 853.2 191.909393 
L 853.2 168.168263 
L 54.442344 168.168263 
z
" clip-path="url(#pfa117d408c)" style="fill: #35e3b3; opacity: 0.2"/>
   </g>
   <g id="matplotlib.axis_1">
    <g id="text_1">
     <!-- time → -->
     <g style="fill: #8b97a7" transform="translate(436.746172 360.876094) scale(0.1 -0.1)">
      <defs>
       <path id="DejaVuSans-57" d="M 1172 4494 
L 1172 3500 
L 2356 3500 
L 2356 3053 
L 1172 3053 
L 1172 1153 
Q 1172 725 1289 603 
Q 1406 481 1766 481 
L 2356 481 
L 2356 0 
L 1766 0 
Q 1100 0 847 248 
Q 594 497 594 1153 
L 594 3053 
L 172 3053 
L 172 3500 
L 594 3500 
L 594 4494 
L 1172 4494 
z
" transform="scale(0.015625)"/>
       <path id="DejaVuSans-4c" d="M 603 3500 
L 1178 3500 
L 1178 0 
L 603 0 
L 603 3500 
z
M 603 4863 
L 1178 4863 
L 1178 4134 
L 603 4134 
L 603 4863 
z
" transform="scale(0.015625)"/>
       <path id="DejaVuSans-50" d="M 3328 2828 
Q 3544 3216 3844 3400 
Q 4144 3584 4550 3584 
Q 5097 3584 5394 3201 
Q 5691 2819 5691 2113 
L 5691 0 
L 5113 0 
L 5113 2094 
Q 5113 2597 4934 2840 
Q 4756 3084 4391 3084 
Q 3944 3084 3684 2787 
Q 3425 2491 3425 1978 
L 3425 0 
L 2847 0 
L 2847 2094 
Q 2847 2600 2669 2842 
Q 2491 3084 2119 3084 
Q 1678 3084 1418 2786 
Q 1159 2488 1159 1978 
L 1159 0 
L 581 0 
L 581 3500 
L 1159 3500 
L 1159 2956 
Q 1356 3278 1631 3431 
Q 1906 3584 2284 3584 
Q 2666 3584 2933 3390 
Q 3200 3197 3328 2828 
z
" transform="scale(0.015625)"/>
       <path id="DejaVuSans-48" d="M 3597 1894 
L 3597 1613 
L 953 1613 
Q 991 1019 1311 708 
Q 1631 397 2203 397 
Q 2534 397 2845 478 
Q 3156 559 3463 722 
L 3463 178 
Q 3153 47 2828 -22 
Q 2503 -91 2169 -91 
Q 1331 -91 842 396 
Q 353 884 353 1716 
Q 353 2575 817 3079 
Q 1281 3584 2069 3584 
Q 2775 3584 3186 3129 
Q 3597 2675 3597 1894 
z
M 3022 2063 
Q 3016 2534 2758 2815 
Q 2500 3097 2075 3097 
Q 1594 3097 1305 2825 
Q 1016 2553 972 2059 
L 3022 2063 
z
" transform="scale(0.015625)"/>
       <path id="DejaVuSans-3" transform="scale(0.015625)"/>
       <path id="DejaVuSans-c1c" d="M 5050 2147 
L 5050 1866 
L 3822 638 
L 3447 1013 
L 4175 1741 
L 366 1741 
L 366 2272 
L 4175 2272 
L 3447 3000 
L 3822 3375 
L 5050 2147 
z
" transform="scale(0.015625)"/>
      </defs>
      <use xlink:href="#DejaVuSans-57"/>
      <use xlink:href="#DejaVuSans-4c" transform="translate(39.203125 0)"/>
      <use xlink:href="#DejaVuSans-50" transform="translate(66.984375 0)"/>
      <use xlink:href="#DejaVuSans-48" transform="translate(164.390625 0)"/>
      <use xlink:href="#DejaVuSans-3" transform="translate(225.921875 0)"/>
      <use xlink:href="#DejaVuSans-c1c" transform="translate(257.703125 0)"/>
     </g>
    </g>
   </g>
   <g id="matplotlib.axis_2">
    <g id="ytick_1">
     <g id="line2d_1">
      <path d="M 54.442344 321.071185 
L 853.2 321.071185 
" clip-path="url(#pfa117d408c)" style="fill: none; stroke: #2a3340; stroke-opacity: 0.5; stroke-width: 0.5; stroke-linecap: square"/>
     </g>
     <g id="line2d_2">
      <defs>
       <path id="m1620735101" d="M 0 0 
L -3.5 0 
" style="stroke: #8b97a7; stroke-width: 0.8"/>
      </defs>
      <g>
       <use xlink:href="#m1620735101" x="54.442344" y="321.071185" style="fill: #8b97a7; stroke: #8b97a7; stroke-width: 0.8"/>
      </g>
     </g>
     <g id="text_2">
      <!-- −1.0 -->
      <g style="fill: #8b97a7" transform="translate(25.587813 324.49013) scale(0.09 -0.09)">
       <defs>
        <path id="DejaVuSans-c9c" d="M 678 2272 
L 4684 2272 
L 4684 1741 
L 678 1741 
L 678 2272 
z
" transform="scale(0.015625)"/>
        <path id="DejaVuSans-14" d="M 794 531 
L 1825 531 
L 1825 4091 
L 703 3866 
L 703 4441 
L 1819 4666 
L 2450 4666 
L 2450 531 
L 3481 531 
L 3481 0 
L 794 0 
L 794 531 
z
" transform="scale(0.015625)"/>
        <path id="DejaVuSans-11" d="M 684 794 
L 1344 794 
L 1344 0 
L 684 0 
L 684 794 
z
" transform="scale(0.015625)"/>
        <path id="DejaVuSans-13" d="M 2034 4250 
Q 1547 4250 1301 3770 
Q 1056 3291 1056 2328 
Q 1056 1369 1301 889 
Q 1547 409 2034 409 
Q 2525 409 2770 889 
Q 3016 1369 3016 2328 
Q 3016 3291 2770 3770 
Q 2525 4250 2034 4250 
z
M 2034 4750 
Q 2819 4750 3233 4129 
Q 3647 3509 3647 2328 
Q 3647 1150 3233 529 
Q 2819 -91 2034 -91 
Q 1250 -91 836 529 
Q 422 1150 422 2328 
Q 422 3509 836 4129 
Q 1250 4750 2034 4750 
z
" transform="scale(0.015625)"/>
       </defs>
       <use xlink:href="#DejaVuSans-c9c"/>
       <use xlink:href="#DejaVuSans-14" transform="translate(83.796875 0)"/>
       <use xlink:href="#DejaVuSans-11" transform="translate(147.421875 0)"/>
       <use xlink:href="#DejaVuSans-13" transform="translate(179.203125 0)"/>
      </g>
     </g>
    </g>
    <g id="ytick_2">
     <g id="line2d_3">
      <path d="M 54.442344 250.555007 
L 853.2 250.555007 
" clip-path="url(#pfa117d408c)" style="fill: none; stroke: #2a3340; stroke-opacity: 0.5; stroke-width: 0.5; stroke-linecap: square"/>
     </g>
     <g id="line2d_4">
      <g>
       <use xlink:href="#m1620735101" x="54.442344" y="250.555007" style="fill: #8b97a7; stroke: #8b97a7; stroke-width: 0.8"/>
      </g>
     </g>
     <g id="text_3">
      <!-- −0.5 -->
      <g style="fill: #8b97a7" transform="translate(25.587813 253.973952) scale(0.09 -0.09)">
       <defs>
        <path id="DejaVuSans-18" d="M 691 4666 
L 3169 4666 
L 3169 4134 
L 1269 4134 
L 1269 2991 
Q 1406 3038 1543 3061 
Q 1681 3084 1819 3084 
Q 2600 3084 3056 2656 
Q 3513 2228 3513 1497 
Q 3513 744 3044 326 
Q 2575 -91 1722 -91 
Q 1428 -91 1123 -41 
Q 819 9 494 109 
L 494 744 
Q 775 591 1075 516 
Q 1375 441 1709 441 
Q 2250 441 2565 725 
Q 2881 1009 2881 1497 
Q 2881 1984 2565 2268 
Q 2250 2553 1709 2553 
Q 1456 2553 1204 2497 
Q 953 2441 691 2322 
L 691 4666 
z
" transform="scale(0.015625)"/>
       </defs>
       <use xlink:href="#DejaVuSans-c9c"/>
       <use xlink:href="#DejaVuSans-13" transform="translate(83.796875 0)"/>
       <use xlink:href="#DejaVuSans-11" transform="translate(147.421875 0)"/>
       <use xlink:href="#DejaVuSans-18" transform="translate(179.203125 0)"/>
      </g>
     </g>
    </g>
    <g id="ytick_3">
     <g id="line2d_5">
      <path d="M 54.442344 180.038828 
L 853.2 180.038828 
" clip-path="url(#pfa117d408c)" style="fill: none; stroke: #2a3340; stroke-opacity: 0.5; stroke-width: 0.5; stroke-linecap: square"/>
     </g>
     <g id="line2d_6">
      <g>
       <use xlink:href="#m1620735101" x="54.442344" y="180.038828" style="fill: #8b97a7; stroke: #8b97a7; stroke-width: 0.8"/>
      </g>
     </g>
     <g id="text_4">
      <!-- 0.0 -->
      <g style="fill: #8b97a7" transform="translate(33.129531 183.457773) scale(0.09 -0.09)">
       <use xlink:href="#DejaVuSans-13"/>
       <use xlink:href="#DejaVuSans-11" transform="translate(63.625 0)"/>
       <use xlink:href="#DejaVuSans-13" transform="translate(95.40625 0)"/>
      </g>
     </g>
    </g>
    <g id="ytick_4">
     <g id="line2d_7">
      <path d="M 54.442344 109.52265 
L 853.2 109.52265 
" clip-path="url(#pfa117d408c)" style="fill: none; stroke: #2a3340; stroke-opacity: 0.5; stroke-width: 0.5; stroke-linecap: square"/>
     </g>
     <g id="line2d_8">
      <g>
       <use xlink:href="#m1620735101" x="54.442344" y="109.52265" style="fill: #8b97a7; stroke: #8b97a7; stroke-width: 0.8"/>
      </g>
     </g>
     <g id="text_5">
      <!-- 0.5 -->
      <g style="fill: #8b97a7" transform="translate(33.129531 112.941595) scale(0.09 -0.09)">
       <use xlink:href="#DejaVuSans-13"/>
       <use xlink:href="#DejaVuSans-11" transform="translate(63.625 0)"/>
       <use xlink:href="#DejaVuSans-18" transform="translate(95.40625 0)"/>
      </g>
     </g>
    </g>
    <g id="ytick_5">
     <g id="line2d_9">
      <path d="M 54.442344 39.006471 
L 853.2 39.006471 
" clip-path="url(#pfa117d408c)" style="fill: none; stroke: #2a3340; stroke-opacity: 0.5; stroke-width: 0.5; stroke-linecap: square"/>
     </g>
     <g id="line2d_10">
      <g>
       <use xlink:href="#m1620735101" x="54.442344" y="39.006471" style="fill: #8b97a7; stroke: #8b97a7; stroke-width: 0.8"/>
      </g>
     </g>
     <g id="text_6">
      <!-- 1.0 -->
      <g style="fill: #8b97a7" transform="translate(33.129531 42.425417) scale(0.09 -0.09)">
       <use xlink:href="#DejaVuSans-14"/>
       <use xlink:href="#DejaVuSans-11" transform="translate(63.625 0)"/>
       <use xlink:href="#DejaVuSans-13" transform="translate(95.40625 0)"/>
      </g>
     </g>
    </g>
    <g id="text_7">
     <!-- deviation from alignment (ms) -->
     <g style="fill: #8b97a7" transform="translate(19.185469 256.319297) rotate(-90) scale(0.1 -0.1)">
      <defs>
       <path id="DejaVuSans-47" d="M 2906 2969 
L 2906 4863 
L 3481 4863 
L 3481 0 
L 2906 0 
L 2906 525 
Q 2725 213 2448 61 
Q 2172 -91 1784 -91 
Q 1150 -91 751 415 
Q 353 922 353 1747 
Q 353 2572 751 3078 
Q 1150 3584 1784 3584 
Q 2172 3584 2448 3432 
Q 2725 3281 2906 2969 
z
M 947 1747 
Q 947 1113 1208 752 
Q 1469 391 1925 391 
Q 2381 391 2643 752 
Q 2906 1113 2906 1747 
Q 2906 2381 2643 2742 
Q 2381 3103 1925 3103 
Q 1469 3103 1208 2742 
Q 947 2381 947 1747 
z
" transform="scale(0.015625)"/>
       <path id="DejaVuSans-59" d="M 191 3500 
L 800 3500 
L 1894 563 
L 2988 3500 
L 3597 3500 
L 2284 0 
L 1503 0 
L 191 3500 
z
" transform="scale(0.015625)"/>
       <path id="DejaVuSans-44" d="M 2194 1759 
Q 1497 1759 1228 1600 
Q 959 1441 959 1056 
Q 959 750 1161 570 
Q 1363 391 1709 391 
Q 2188 391 2477 730 
Q 2766 1069 2766 1631 
L 2766 1759 
L 2194 1759 
z
M 3341 1997 
L 3341 0 
L 2766 0 
L 2766 531 
Q 2569 213 2275 61 
Q 1981 -91 1556 -91 
Q 1019 -91 701 211 
Q 384 513 384 1019 
Q 384 1609 779 1909 
Q 1175 2209 1959 2209 
L 2766 2209 
L 2766 2266 
Q 2766 2663 2505 2880 
Q 2244 3097 1772 3097 
Q 1472 3097 1187 3025 
Q 903 2953 641 2809 
L 641 3341 
Q 956 3463 1253 3523 
Q 1550 3584 1831 3584 
Q 2591 3584 2966 3190 
Q 3341 2797 3341 1997 
z
" transform="scale(0.015625)"/>
       <path id="DejaVuSans-52" d="M 1959 3097 
Q 1497 3097 1228 2736 
Q 959 2375 959 1747 
Q 959 1119 1226 758 
Q 1494 397 1959 397 
Q 2419 397 2687 759 
Q 2956 1122 2956 1747 
Q 2956 2369 2687 2733 
Q 2419 3097 1959 3097 
z
M 1959 3584 
Q 2709 3584 3137 3096 
Q 3566 2609 3566 1747 
Q 3566 888 3137 398 
Q 2709 -91 1959 -91 
Q 1206 -91 779 398 
Q 353 888 353 1747 
Q 353 2609 779 3096 
Q 1206 3584 1959 3584 
z
" transform="scale(0.015625)"/>
       <path id="DejaVuSans-51" d="M 3513 2113 
L 3513 0 
L 2938 0 
L 2938 2094 
Q 2938 2591 2744 2837 
Q 2550 3084 2163 3084 
Q 1697 3084 1428 2787 
Q 1159 2491 1159 1978 
L 1159 0 
L 581 0 
L 581 3500 
L 1159 3500 
L 1159 2956 
Q 1366 3272 1645 3428 
Q 1925 3584 2291 3584 
Q 2894 3584 3203 3211 
Q 3513 2838 3513 2113 
z
" transform="scale(0.015625)"/>
       <path id="DejaVuSans-49" d="M 2375 4863 
L 2375 4384 
L 1825 4384 
Q 1516 4384 1395 4259 
Q 1275 4134 1275 3809 
L 1275 3500 
L 2222 3500 
L 2222 3053 
L 1275 3053 
L 1275 0 
L 697 0 
L 697 3053 
L 147 3053 
L 147 3500 
L 697 3500 
L 697 3744 
Q 697 4328 969 4595 
Q 1241 4863 1831 4863 
L 2375 4863 
z
" transform="scale(0.015625)"/>
       <path id="DejaVuSans-55" d="M 2631 2963 
Q 2534 3019 2420 3045 
Q 2306 3072 2169 3072 
Q 1681 3072 1420 2755 
Q 1159 2438 1159 1844 
L 1159 0 
L 581 0 
L 581 3500 
L 1159 3500 
L 1159 2956 
Q 1341 3275 1631 3429 
Q 1922 3584 2338 3584 
Q 2397 3584 2469 3576 
Q 2541 3569 2628 3553 
L 2631 2963 
z
" transform="scale(0.015625)"/>
       <path id="DejaVuSans-4f" d="M 603 4863 
L 1178 4863 
L 1178 0 
L 603 0 
L 603 4863 
z
" transform="scale(0.015625)"/>
       <path id="DejaVuSans-4a" d="M 2906 1791 
Q 2906 2416 2648 2759 
Q 2391 3103 1925 3103 
Q 1463 3103 1205 2759 
Q 947 2416 947 1791 
Q 947 1169 1205 825 
Q 1463 481 1925 481 
Q 2391 481 2648 825 
Q 2906 1169 2906 1791 
z
M 3481 434 
Q 3481 -459 3084 -895 
Q 2688 -1331 1869 -1331 
Q 1566 -1331 1297 -1286 
Q 1028 -1241 775 -1147 
L 775 -588 
Q 1028 -725 1275 -790 
Q 1522 -856 1778 -856 
Q 2344 -856 2625 -561 
Q 2906 -266 2906 331 
L 2906 616 
Q 2728 306 2450 153 
Q 2172 0 1784 0 
Q 1141 0 747 490 
Q 353 981 353 1791 
Q 353 2603 747 3093 
Q 1141 3584 1784 3584 
Q 2172 3584 2450 3431 
Q 2728 3278 2906 2969 
L 2906 3500 
L 3481 3500 
L 3481 434 
z
" transform="scale(0.015625)"/>
       <path id="DejaVuSans-b" d="M 1984 4856 
Q 1566 4138 1362 3434 
Q 1159 2731 1159 2009 
Q 1159 1288 1364 580 
Q 1569 -128 1984 -844 
L 1484 -844 
Q 1016 -109 783 600 
Q 550 1309 550 2009 
Q 550 2706 781 3412 
Q 1013 4119 1484 4856 
L 1984 4856 
z
" transform="scale(0.015625)"/>
       <path id="DejaVuSans-56" d="M 2834 3397 
L 2834 2853 
Q 2591 2978 2328 3040 
Q 2066 3103 1784 3103 
Q 1356 3103 1142 2972 
Q 928 2841 928 2578 
Q 928 2378 1081 2264 
Q 1234 2150 1697 2047 
L 1894 2003 
Q 2506 1872 2764 1633 
Q 3022 1394 3022 966 
Q 3022 478 2636 193 
Q 2250 -91 1575 -91 
Q 1294 -91 989 -36 
Q 684 19 347 128 
L 347 722 
Q 666 556 975 473 
Q 1284 391 1588 391 
Q 1994 391 2212 530 
Q 2431 669 2431 922 
Q 2431 1156 2273 1281 
Q 2116 1406 1581 1522 
L 1381 1569 
Q 847 1681 609 1914 
Q 372 2147 372 2553 
Q 372 3047 722 3315 
Q 1072 3584 1716 3584 
Q 2034 3584 2315 3537 
Q 2597 3491 2834 3397 
z
" transform="scale(0.015625)"/>
       <path id="DejaVuSans-c" d="M 513 4856 
L 1013 4856 
Q 1481 4119 1714 3412 
Q 1947 2706 1947 2009 
Q 1947 1309 1714 600 
Q 1481 -109 1013 -844 
L 513 -844 
Q 928 -128 1133 580 
Q 1338 1288 1338 2009 
Q 1338 2731 1133 3434 
Q 928 4138 513 4856 
z
" transform="scale(0.015625)"/>
      </defs>
      <use xlink:href="#DejaVuSans-47"/>
      <use xlink:href="#DejaVuSans-48" transform="translate(63.484375 0)"/>
      <use xlink:href="#DejaVuSans-59" transform="translate(125.015625 0)"/>
      <use xlink:href="#DejaVuSans-4c" transform="translate(184.203125 0)"/>
      <use xlink:href="#DejaVuSans-44" transform="translate(211.984375 0)"/>
      <use xlink:href="#DejaVuSans-57" transform="translate(273.265625 0)"/>
      <use xlink:href="#DejaVuSans-4c" transform="translate(312.46875 0)"/>
      <use xlink:href="#DejaVuSans-52" transform="translate(340.25 0)"/>
      <use xlink:href="#DejaVuSans-51" transform="translate(401.4375 0)"/>
      <use xlink:href="#DejaVuSans-3" transform="translate(464.8125 0)"/>
      <use xlink:href="#DejaVuSans-49" transform="translate(496.59375 0)"/>
      <use xlink:href="#DejaVuSans-55" transform="translate(531.796875 0)"/>
      <use xlink:href="#DejaVuSans-52" transform="translate(570.703125 0)"/>
      <use xlink:href="#DejaVuSans-50" transform="translate(631.890625 0)"/>
      <use xlink:href="#DejaVuSans-3" transform="translate(729.296875 0)"/>
      <use xlink:href="#DejaVuSans-44" transform="translate(761.078125 0)"/>
      <use xlink:href="#DejaVuSans-4f" transform="translate(822.359375 0)"/>
      <use xlink:href="#DejaVuSans-4c" transform="translate(850.140625 0)"/>
      <use xlink:href="#DejaVuSans-4a" transform="translate(877.921875 0)"/>
      <use xlink:href="#DejaVuSans-51" transform="translate(941.40625 0)"/>
      <use xlink:href="#DejaVuSans-50" transform="translate(1004.78125 0)"/>
      <use xlink:href="#DejaVuSans-48" transform="translate(1102.1875 0)"/>
      <use xlink:href="#DejaVuSans-51" transform="translate(1163.71875 0)"/>
      <use xlink:href="#DejaVuSans-57" transform="translate(1227.09375 0)"/>
      <use xlink:href="#DejaVuSans-3" transform="translate(1266.296875 0)"/>
      <use xlink:href="#DejaVuSans-b" transform="translate(1298.078125 0)"/>
      <use xlink:href="#DejaVuSans-50" transform="translate(1337.09375 0)"/>
      <use xlink:href="#DejaVuSans-56" transform="translate(1434.5 0)"/>
      <use xlink:href="#DejaVuSans-c" transform="translate(1486.59375 0)"/>
     </g>
    </g>
   </g>
   <g id="line2d_11">
    <path d="M 90.74951 189.90926 
L 92.001322 217.192128 
L 93.253569 205.791401 
L 94.505476 229.836946 
L 95.757329 224.001358 
L 97.009331 195.612052 
L 98.261285 235.103138 
L 99.513313 173.313802 
L 100.765359 193.623847 
L 102.017398 209.17409 
L 103.269065 193.010915 
L 104.52104 219.393464 
L 107.025099 232.332304 
L 108.277069 178.869279 
L 110.781135 200.783653 
L 112.033025 180.611605 
L 113.284922 227.595087 
L 114.536771 226.45267 
L 115.788871 136.234353 
L 117.04046 165.563118 
L 118.292739 149.817221 
L 123.300425 173.418195 
L 128.308485 222.315312 
L 129.56047 188.476846 
L 130.812327 143.766941 
L 132.064254 160.51532 
L 133.316197 219.937517 
L 134.568264 191.185018 
L 135.820351 221.236752 
L 137.072241 218.591407 
L 138.324277 146.140438 
L 139.576137 151.502403 
L 140.828092 225.607891 
L 142.080053 201.838731 
L 143.331886 188.477687 
L 144.583944 243.081584 
L 145.835876 156.571396 
L 147.087945 211.439601 
L 148.339826 199.74867 
L 149.59201 230.292848 
L 150.84395 201.510811 
L 152.095832 197.994368 
L 153.347799 196.558393 
L 154.599687 202.415088 
L 155.851701 177.785337 
L 158.35565 229.48863 
L 159.607374 193.228997 
L 160.859568 162.153639 
L 163.363516 220.378242 
L 164.615509 202.094374 
L 165.867525 163.494291 
L 167.1195 164.26594 
L 168.371322 216.040979 
L 169.623341 152.951143 
L 170.875331 211.804402 
L 172.127276 212.182768 
L 173.379225 234.465404 
L 174.631146 162.047116 
L 175.883154 208.028562 
L 177.135269 174.418825 
L 178.386864 149.731997 
L 180.890992 247.735622 
L 182.142863 196.159559 
L 184.646824 167.775828 
L 185.898809 197.361807 
L 187.150818 199.659029 
L 188.402813 210.939315 
L 189.654804 176.692029 
L 190.906879 217.175052 
L 194.662734 160.854184 
L 195.914774 200.65291 
L 197.166854 209.690824 
L 198.418607 180.056166 
L 199.670552 181.712777 
L 203.42651 183.582622 
L 204.678398 233.189145 
L 205.930512 199.392094 
L 207.182563 211.098596 
L 209.686263 159.958278 
L 210.938325 176.38542 
L 212.19041 215.091418 
L 214.694056 191.5942 
L 215.946285 204.369108 
L 217.198163 183.143614 
L 218.450185 198.22837 
L 220.954111 213.244816 
L 222.205975 180.648409 
L 225.961833 175.194227 
L 229.71772 240.803751 
L 232.221652 240.926921 
L 233.473626 184.298484 
L 234.725658 212.137858 
L 235.977503 191.272415 
L 237.229548 191.020299 
L 239.733462 202.271139 
L 240.985471 208.827055 
L 242.237283 146.149608 
L 243.48941 180.239718 
L 244.741381 189.138599 
L 245.993331 187.895554 
L 247.245308 152.09134 
L 248.497273 171.063203 
L 249.749273 173.711367 
L 251.001188 173.473366 
L 252.253155 175.817563 
L 253.505111 183.339583 
L 254.757089 166.544371 
L 256.009021 146.272298 
L 257.260955 179.147929 
L 258.512997 168.348395 
L 259.764943 168.624044 
L 261.016903 171.29573 
L 262.268796 166.639079 
L 263.520845 173.66685 
L 264.77281 187.697546 
L 266.02477 176.705771 
L 267.276708 171.646101 
L 268.528716 177.649285 
L 271.032612 152.997543 
L 272.284561 189.2881 
L 273.53661 155.326877 
L 274.788545 162.834264 
L 276.04054 176.699602 
L 277.292439 186.226836 
L 278.544481 171.263834 
L 279.796453 160.70631 
L 281.048437 167.224125 
L 282.300368 171.449956 
L 283.552357 174.519997 
L 284.804292 169.693848 
L 286.05627 162.531332 
L 288.560278 175.455561 
L 289.812186 169.981401 
L 291.064164 172.782251 
L 292.316159 164.910053 
L 293.568101 181.705197 
L 294.819878 149.846714 
L 296.072067 186.687705 
L 298.575946 152.308885 
L 299.827937 180.32553 
L 301.079903 168.225472 
L 302.331879 161.885623 
L 303.58388 147.987253 
L 304.835822 170.629392 
L 306.087758 155.105494 
L 307.339721 173.945357 
L 308.591744 163.897408 
L 309.843712 168.619209 
L 311.095648 163.558885 
L 312.347648 165.352404 
L 313.599583 170.331107 
L 314.851621 162.093207 
L 316.103569 163.621475 
L 317.355468 145.841727 
L 318.607473 171.950101 
L 319.859436 173.66916 
L 321.111436 164.116528 
L 322.363329 185.1539 
L 323.615325 146.387554 
L 324.867302 144.626894 
L 326.119287 153.306999 
L 327.371215 189.707098 
L 328.623203 148.274697 
L 329.875263 162.846642 
L 331.127193 162.634401 
L 333.631105 172.895494 
L 334.883098 185.815188 
L 336.135094 170.580556 
L 337.387062 168.178661 
L 338.638978 152.983897 
L 339.890942 159.06337 
L 341.142974 187.900177 
L 342.394899 167.802075 
L 343.646891 175.900027 
L 344.898855 158.725215 
L 346.150793 160.218775 
L 347.402732 151.061304 
L 348.654795 183.448699 
L 349.906709 157.60349 
L 351.158776 159.108096 
L 352.410705 141.672912 
L 354.914593 159.375346 
L 356.166669 174.566042 
L 357.418506 138.410471 
L 358.670589 164.854686 
L 359.922522 158.920735 
L 361.174467 181.171275 
L 362.42648 158.801816 
L 363.678461 154.161989 
L 364.930415 173.313855 
L 366.182285 169.415406 
L 367.434294 175.16338 
L 368.686311 165.393439 
L 369.93833 182.513027 
L 371.190277 175.016818 
L 372.442206 162.756758 
L 373.694184 180.307232 
L 374.946214 177.146092 
L 376.198118 183.089285 
L 377.450128 167.198586 
L 378.702064 178.395293 
L 379.954025 187.349296 
L 381.206038 186.171841 
L 382.457988 166.8088 
L 383.709927 165.166402 
L 384.961957 182.254505 
L 386.213854 170.833944 
L 387.465877 191.25294 
L 388.717821 181.290724 
L 389.9698 168.039394 
L 391.221833 187.540485 
L 392.473776 135.875369 
L 393.725892 145.160897 
L 394.97766 181.581394 
L 396.229656 163.856052 
L 397.48171 235.469747 
L 398.733683 204.441167 
L 399.985593 155.279154 
L 401.237498 185.087537 
L 403.741705 145.966621 
L 406.245467 156.908016 
L 407.497414 185.606069 
L 408.749457 210.011454 
L 412.505179 172.996769 
L 413.757368 159.259261 
L 415.008987 142.559497 
L 416.26113 169.167903 
L 417.513199 179.144865 
L 418.765166 179.518955 
L 420.017132 159.910056 
L 421.269066 175.51824 
L 422.521035 155.397095 
L 423.773007 153.340182 
L 425.02495 170.815501 
L 426.276927 181.743069 
L 427.528938 180.135473 
L 428.780847 187.614176 
L 430.032834 181.559894 
L 431.284821 187.341646 
L 432.536783 182.784622 
L 433.788748 164.846726 
L 435.040779 170.490537 
L 436.292723 198.707362 
L 437.54471 174.447391 
L 438.796644 174.919004 
L 440.04864 178.498961 
L 441.300602 188.764874 
L 442.552527 168.320798 
L 443.80448 166.596164 
L 445.056521 160.105834 
L 446.308465 161.376785 
L 447.560459 179.930522 
L 448.812431 177.056818 
L 450.064385 167.577785 
L 451.316394 174.621518 
L 452.568362 167.223301 
L 453.820334 179.929641 
L 455.072275 177.936146 
L 456.324204 168.624914 
L 457.576176 169.289576 
L 458.828161 155.498111 
L 460.080145 182.614125 
L 461.332116 167.334535 
L 462.584126 159.693195 
L 463.836018 158.884626 
L 465.088075 167.67044 
L 466.339991 162.32513 
L 467.591999 188.944549 
L 468.843913 186.617155 
L 470.095904 194.361519 
L 471.347924 180.056111 
L 472.599878 181.487831 
L 473.851822 162.243654 
L 475.103784 155.202015 
L 476.355713 159.08781 
L 477.607798 170.811036 
L 478.859715 172.808799 
L 480.111626 164.163682 
L 481.363635 159.731446 
L 483.867604 195.395495 
L 485.119549 183.530965 
L 486.37157 169.383499 
L 487.623488 137.017132 
L 488.87552 176.837693 
L 490.12739 197.196804 
L 491.379421 169.383722 
L 492.631401 182.454166 
L 493.883366 184.735682 
L 495.13527 172.722114 
L 496.38735 176.720832 
L 497.639229 158.8546 
L 498.891314 189.372881 
L 500.1432 154.937796 
L 501.395179 172.774263 
L 502.647193 169.167997 
L 503.899099 174.401712 
L 505.151113 188.754139 
L 506.403044 166.199484 
L 507.655033 156.39138 
L 508.90704 141.167876 
L 510.159025 175.137019 
L 511.410946 177.733979 
L 512.66289 151.483392 
L 513.914863 183.484044 
L 515.166869 169.98713 
L 516.418819 146.677249 
L 517.670836 170.360017 
L 518.922797 169.393572 
L 520.174757 151.33669 
L 521.426706 167.744335 
L 522.678729 165.261203 
L 523.930681 185.270822 
L 525.182654 182.246759 
L 526.434648 176.485964 
L 527.686574 176.491993 
L 528.938576 185.407189 
L 530.190563 171.294224 
L 531.442481 162.233967 
L 532.694556 183.376095 
L 533.946476 166.854822 
L 535.198483 187.679597 
L 536.450418 176.913169 
L 537.702432 175.747886 
L 538.954369 177.225658 
L 540.206341 178.289894 
L 541.45835 173.86903 
L 542.7103 183.287378 
L 543.96224 163.366101 
L 545.214274 163.003814 
L 546.466261 188.856475 
L 547.718223 179.323406 
L 548.970152 165.907372 
L 550.222093 158.112732 
L 551.474091 166.638729 
L 552.726045 181.852466 
L 553.978042 173.04991 
L 555.230003 162.730248 
L 556.481994 177.382594 
L 557.733926 161.637713 
L 558.985959 179.945182 
L 560.237877 173.465668 
L 561.489833 169.844714 
L 562.741815 174.37969 
L 563.993795 160.776246 
L 565.245774 177.121411 
L 566.497732 176.291563 
L 567.749741 163.888581 
L 569.001713 194.542632 
L 570.253656 167.960842 
L 571.505632 152.316271 
L 572.757633 157.79762 
L 574.009602 176.151075 
L 575.261552 154.729268 
L 576.513517 158.490629 
L 577.765502 178.769938 
L 579.017441 163.917626 
L 580.269391 177.021332 
L 581.521426 154.999935 
L 582.773471 175.359801 
L 584.025467 184.365296 
L 585.277434 174.255683 
L 586.529397 196.419551 
L 587.781371 181.542111 
L 589.033327 171.527416 
L 590.28529 182.374838 
L 591.537268 169.107884 
L 592.789177 165.500003 
L 594.041179 183.388081 
L 595.29319 175.631616 
L 596.545217 187.513322 
L 597.797126 166.98773 
L 599.049141 194.026015 
L 600.301037 181.519972 
L 601.553045 155.565086 
L 602.804979 188.667671 
L 604.056973 163.476998 
L 605.308986 183.395295 
L 606.56096 165.16556 
L 607.812908 192.499975 
L 609.064904 172.429549 
L 610.316901 179.478451 
L 611.568814 178.402431 
L 612.820878 172.250622 
L 614.072774 175.985288 
L 615.324778 160.247551 
L 616.576698 178.229203 
L 617.82873 192.73274 
L 619.080749 188.647598 
L 620.332684 198.866984 
L 621.584648 201.672179 
L 622.836637 188.111789 
L 624.088579 171.846081 
L 625.340505 167.77329 
L 626.592468 169.130322 
L 627.844476 174.272435 
L 629.09643 164.616685 
L 630.348391 178.883074 
L 631.600376 185.311999 
L 632.852304 171.772513 
L 634.104282 148.761269 
L 635.356305 148.977045 
L 636.608265 168.757248 
L 637.860286 185.459795 
L 639.112138 169.051848 
L 640.364188 191.909393 
L 641.616163 166.899382 
L 642.868077 167.717911 
L 644.120109 158.642901 
L 645.372107 174.623656 
L 646.624021 173.594631 
L 647.876016 174.276606 
L 649.128 181.152719 
L 650.379982 196.034171 
L 651.631931 163.9048 
L 652.883879 154.842838 
L 654.135891 169.583052 
L 655.387802 170.225561 
L 656.63984 179.663808 
L 657.891839 174.164644 
L 659.143731 181.664181 
L 660.395691 161.997124 
L 661.647701 181.508699 
L 662.899685 169.751497 
L 664.151736 183.309915 
L 665.403647 177.834814 
L 666.655646 171.803388 
L 667.907648 165.090226 
L 669.159618 165.574474 
L 670.411495 176.146556 
L 671.663584 194.699086 
L 672.91556 199.884342 
L 674.167532 175.288106 
L 675.419498 183.976501 
L 676.671472 178.690767 
L 677.923428 181.680284 
L 679.175382 194.561342 
L 680.427433 202.405234 
L 681.679366 170.12533 
L 682.931288 171.345977 
L 684.183308 162.958045 
L 685.435277 182.374773 
L 686.68723 194.411132 
L 687.939261 183.754709 
L 689.1912 187.224918 
L 690.443116 174.285346 
L 691.695143 151.378823 
L 692.947068 177.745453 
L 694.199094 189.417768 
L 695.451049 164.891481 
L 696.703046 177.491774 
L 697.954985 172.191415 
L 699.206925 163.216435 
L 700.458945 189.775234 
L 701.710886 156.723654 
L 702.9629 179.335832 
L 704.214828 192.866474 
L 705.46688 171.289826 
L 706.718807 200.725366 
L 707.970793 194.24084 
L 709.222729 175.473403 
L 710.474799 199.479441 
L 711.726775 184.855399 
L 712.978654 162.817615 
L 714.230686 179.364499 
L 715.482595 181.701993 
L 716.734646 182.85728 
L 717.986638 185.931614 
L 719.238508 187.861127 
L 720.490572 175.85944 
L 721.742553 174.081218 
L 722.994466 179.292754 
L 724.246472 200.922366 
L 725.498463 167.205453 
L 726.750445 175.772866 
L 728.002399 189.069662 
L 729.254385 174.666072 
L 730.506407 198.989011 
L 731.758372 189.538711 
L 734.262293 199.300779 
L 735.514241 193.569394 
L 736.766204 185.124603 
L 738.018148 186.172951 
L 739.270151 177.106863 
L 740.522176 179.790276 
L 741.774149 181.861669 
L 743.026079 187.813829 
L 744.278104 187.764644 
L 745.530042 167.636014 
L 746.782081 206.762078 
L 748.034014 212.510668 
L 749.285965 184.777919 
L 750.537994 196.45467 
L 751.789902 178.703914 
L 753.041891 184.188497 
L 754.293846 167.754114 
L 755.545852 187.729347 
L 756.797832 186.167864 
L 758.049824 196.857751 
L 759.30178 167.495543 
L 760.553714 175.467956 
L 761.805753 172.2537 
L 763.057713 189.482817 
L 764.309688 194.798916 
L 765.561641 180.693703 
L 766.813657 178.666635 
L 768.065605 176.18249 
L 769.317529 187.542672 
L 770.569507 172.388705 
L 771.821511 162.602761 
L 773.0735 198.046497 
L 774.325439 193.982026 
L 775.577463 180.526762 
L 776.829387 189.806342 
L 778.081439 181.693201 
L 779.333448 187.37713 
L 780.585421 189.318716 
L 783.089335 208.992953 
L 784.341328 177.741767 
L 790.601694 225.919267 
L 791.853617 217.341942 
L 793.105579 218.986454 
L 794.357532 232.457297 
L 795.609552 242.726696 
L 796.861507 236.660376 
L 798.113446 227.926011 
L 799.365384 226.998643 
L 800.617307 220.407852 
L 801.869313 209.678875 
L 803.121284 221.26864 
L 804.373222 218.89718 
L 805.625164 233.535193 
L 806.877141 202.50057 
L 808.129193 223.720325 
L 809.381121 214.259777 
L 810.63304 225.519181 
L 811.885076 233.555306 
L 813.13699 213.010131 
L 814.38893 207.304757 
L 815.640882 195.897414 
L 816.892834 214.654133 
L 816.892834 214.654133 
" clip-path="url(#pfa117d408c)" style="fill: none; stroke: #35e3b3; stroke-opacity: 0.3; stroke-width: 0.5; stroke-linecap: square"/>
   </g>
   <g id="line2d_12">
    <path d="M 90.74951 217.192128 
L 92.001322 217.192128 
L 93.253569 209.17409 
L 97.009331 209.17409 
L 98.261285 217.192128 
L 99.513313 209.17409 
L 100.765359 209.17409 
L 102.017398 205.791401 
L 103.269065 200.783653 
L 107.025099 200.783653 
L 108.277069 193.623847 
L 109.529025 193.623847 
L 110.781135 193.010915 
L 112.033025 193.010915 
L 113.284922 189.86038 
L 114.536771 188.476846 
L 115.788871 180.611605 
L 117.04046 180.611605 
L 118.292739 188.476846 
L 129.56047 188.476846 
L 130.812327 173.418195 
L 132.064254 173.418195 
L 133.316197 188.476846 
L 134.568264 188.477687 
L 135.820351 191.185018 
L 138.324277 191.185018 
L 139.576137 199.74867 
L 140.828092 201.838731 
L 142.080053 201.838731 
L 143.331886 201.510811 
L 145.835876 201.510811 
L 147.087945 199.74867 
L 148.339826 201.510811 
L 149.59201 201.510811 
L 150.84395 199.74867 
L 152.095832 199.74867 
L 153.347799 201.510811 
L 154.599687 199.74867 
L 158.35565 199.74867 
L 159.607374 197.994368 
L 163.363516 197.994368 
L 164.615509 202.094374 
L 168.371322 202.094374 
L 169.623341 193.228997 
L 170.875331 202.094374 
L 172.127276 202.094374 
L 173.379225 196.159559 
L 174.631146 196.159559 
L 175.883154 197.361807 
L 177.135269 199.659029 
L 178.386864 197.361807 
L 180.890992 199.659029 
L 182.142863 197.361807 
L 187.150818 197.361807 
L 188.402813 196.159559 
L 189.654804 196.159559 
L 190.906879 197.361807 
L 194.662734 197.361807 
L 195.914774 199.392094 
L 199.670552 199.392094 
L 203.42651 191.5942 
L 204.678398 199.392094 
L 205.930512 191.5942 
L 207.182563 198.22837 
L 209.686263 198.22837 
L 210.938325 191.5942 
L 212.19041 191.5942 
L 214.694056 198.22837 
L 215.946285 199.392094 
L 217.198163 198.22837 
L 218.450185 198.22837 
L 220.954111 191.5942 
L 222.205975 191.5942 
L 225.961833 198.22837 
L 232.221652 198.22837 
L 233.473626 191.272415 
L 234.725658 191.272415 
L 235.977503 191.020299 
L 237.229548 189.138599 
L 240.985471 189.138599 
L 242.237283 187.895554 
L 243.48941 184.298484 
L 244.741381 183.339583 
L 245.993331 180.239718 
L 247.245308 175.817563 
L 248.497273 175.817563 
L 249.749273 173.711367 
L 251.001188 173.473366 
L 252.253155 173.473366 
L 253.505111 171.29573 
L 256.009021 171.29573 
L 257.260955 173.473366 
L 259.764943 173.473366 
L 261.016903 171.646101 
L 262.268796 171.29573 
L 267.276708 171.29573 
L 268.528716 171.646101 
L 272.284561 171.646101 
L 273.53661 171.449956 
L 274.788545 171.449956 
L 276.04054 171.263834 
L 277.292439 169.693848 
L 278.544481 169.061525 
L 279.796453 169.693848 
L 281.048437 169.981401 
L 283.552357 169.981401 
L 284.804292 171.263834 
L 286.05627 169.981401 
L 287.30823 169.981401 
L 288.560278 169.693848 
L 289.812186 169.693848 
L 291.064164 169.981401 
L 292.316159 169.693848 
L 293.568101 169.061525 
L 294.819878 168.722998 
L 296.072067 169.061525 
L 297.323971 168.722998 
L 298.575946 168.722998 
L 299.827937 168.225472 
L 302.331879 168.225472 
L 303.58388 165.352404 
L 304.835822 168.225472 
L 306.087758 165.352404 
L 307.339721 163.897408 
L 311.095648 163.897408 
L 312.347648 164.116528 
L 313.599583 165.352404 
L 314.851621 164.116528 
L 316.103569 164.116528 
L 317.355468 163.897408 
L 318.607473 164.116528 
L 319.859436 163.621475 
L 321.111436 163.621475 
L 322.363329 162.846642 
L 323.615325 162.846642 
L 324.867302 163.621475 
L 326.119287 164.116528 
L 327.371215 168.178661 
L 328.623203 164.116528 
L 329.875263 162.846642 
L 333.631105 162.846642 
L 334.883098 167.802075 
L 337.387062 167.802075 
L 338.638978 162.846642 
L 339.890942 167.802075 
L 342.394899 167.802075 
L 343.646891 160.218775 
L 344.898855 159.375346 
L 346.150793 159.375346 
L 347.402732 159.108096 
L 348.654795 159.375346 
L 351.158776 159.375346 
L 352.410705 159.108096 
L 354.914593 158.920735 
L 356.166669 159.108096 
L 357.418506 159.108096 
L 358.670589 159.375346 
L 359.922522 159.375346 
L 361.174467 164.854686 
L 362.42648 165.393439 
L 363.678461 165.393439 
L 364.930415 169.415406 
L 366.182285 169.415406 
L 367.434294 173.313855 
L 368.686311 173.313855 
L 369.93833 175.016818 
L 371.190277 175.016818 
L 372.442206 175.16338 
L 374.946214 175.16338 
L 376.198118 177.146092 
L 377.450128 177.146092 
L 378.702064 178.395293 
L 381.206038 178.395293 
L 382.457988 180.307232 
L 383.709927 178.395293 
L 387.465877 178.395293 
L 388.717821 181.290724 
L 389.9698 181.290724 
L 391.221833 170.833944 
L 392.473776 181.290724 
L 393.725892 181.290724 
L 394.97766 170.833944 
L 396.229656 181.290724 
L 397.48171 181.290724 
L 398.733683 172.996769 
L 399.985593 172.996769 
L 401.237498 163.856052 
L 403.741705 169.167903 
L 406.245467 172.996769 
L 412.505179 172.996769 
L 413.757368 169.167903 
L 416.26113 169.167903 
L 417.513199 170.815501 
L 418.765166 172.996769 
L 421.269066 172.996769 
L 422.521035 175.51824 
L 423.773007 179.144865 
L 426.276927 179.144865 
L 427.528938 179.518955 
L 428.780847 175.51824 
L 430.032834 175.51824 
L 431.284821 178.498961 
L 432.536783 180.135473 
L 435.040779 180.135473 
L 436.292723 178.498961 
L 437.54471 174.919004 
L 440.04864 174.919004 
L 441.300602 174.447391 
L 443.80448 174.447391 
L 445.056521 174.621518 
L 447.560459 174.621518 
L 448.812431 169.289576 
L 450.064385 168.624914 
L 456.324204 168.624914 
L 457.576176 167.67044 
L 458.828161 167.67044 
L 460.080145 168.624914 
L 461.332116 168.624914 
L 462.584126 169.289576 
L 463.836018 169.289576 
L 465.088075 168.624914 
L 466.339991 167.67044 
L 467.591999 167.334535 
L 468.843913 167.67044 
L 472.599878 167.67044 
L 473.851822 170.811036 
L 475.103784 172.808799 
L 476.355713 172.808799 
L 477.607798 170.811036 
L 480.111626 170.811036 
L 481.363635 169.383722 
L 483.867604 169.383722 
L 485.119549 170.811036 
L 486.37157 172.722114 
L 488.87552 172.808799 
L 490.12739 176.720832 
L 492.631401 176.720832 
L 493.883366 172.774263 
L 495.13527 172.774263 
L 496.38735 174.401712 
L 497.639229 174.401712 
L 498.891314 172.774263 
L 501.395179 172.774263 
L 505.151113 172.774263 
L 506.403044 169.98713 
L 510.159025 169.98713 
L 511.410946 169.393572 
L 512.66289 169.393572 
L 513.914863 167.744335 
L 515.166869 167.744335 
L 516.418819 169.393572 
L 517.670836 169.98713 
L 518.922797 170.360017 
L 525.182654 170.360017 
L 526.434648 171.294224 
L 527.686574 176.485964 
L 530.190563 176.491993 
L 531.442481 176.913169 
L 533.946476 176.913169 
L 535.198483 176.491993 
L 536.450418 176.491993 
L 537.702432 176.913169 
L 541.45835 176.913169 
L 542.7103 175.747886 
L 543.96224 176.913169 
L 545.214274 175.747886 
L 546.466261 173.86903 
L 547.718223 173.86903 
L 548.970152 173.04991 
L 551.474091 173.04991 
L 552.726045 169.844714 
L 553.978042 173.04991 
L 558.985959 173.04991 
L 560.237877 173.465668 
L 561.489833 173.465668 
L 562.741815 173.04991 
L 563.993795 169.844714 
L 565.245774 173.465668 
L 566.497732 169.844714 
L 569.001713 169.844714 
L 570.253656 167.960842 
L 571.505632 167.960842 
L 572.757633 163.917626 
L 574.009602 167.960842 
L 576.513517 167.960842 
L 577.765502 174.255683 
L 580.269391 174.255683 
L 581.521426 175.359801 
L 582.773471 175.359801 
L 584.025467 174.255683 
L 585.277434 175.359801 
L 586.529397 175.631616 
L 590.28529 175.631616 
L 591.537268 181.519972 
L 596.545217 181.519972 
L 597.797126 175.631616 
L 599.049141 181.519972 
L 600.301037 175.631616 
L 601.553045 179.478451 
L 602.804979 179.478451 
L 604.056973 178.402431 
L 605.308986 178.402431 
L 606.56096 175.985288 
L 607.812908 178.229203 
L 610.316901 178.229203 
L 611.568814 178.402431 
L 612.820878 178.402431 
L 614.072774 179.478451 
L 615.324778 178.402431 
L 616.576698 178.402431 
L 617.82873 178.229203 
L 619.080749 178.229203 
L 620.332684 175.985288 
L 621.584648 175.985288 
L 622.836637 178.229203 
L 625.340505 178.229203 
L 626.592468 174.272435 
L 627.844476 171.846081 
L 631.600376 171.772513 
L 632.852304 169.130322 
L 635.356305 169.051848 
L 637.860286 169.051848 
L 639.112138 171.772513 
L 641.616163 171.772513 
L 642.868077 169.051848 
L 644.120109 169.051848 
L 646.624021 170.225561 
L 647.876016 170.225561 
L 649.128 173.594631 
L 651.631931 173.594631 
L 652.883879 174.164644 
L 655.387802 174.164644 
L 656.63984 174.276606 
L 657.891839 174.164644 
L 659.143731 171.803388 
L 660.395691 170.225561 
L 661.647701 171.803388 
L 662.899685 174.164644 
L 664.151736 176.146556 
L 666.655646 176.146556 
L 667.907648 177.834814 
L 669.159618 177.834814 
L 670.411495 178.690767 
L 672.91556 178.690767 
L 674.167532 177.834814 
L 675.419498 176.146556 
L 676.671472 178.690767 
L 677.923428 181.680284 
L 679.175382 182.374773 
L 680.427433 183.754709 
L 681.679366 182.374773 
L 682.931288 181.680284 
L 686.68723 181.680284 
L 687.939261 177.745453 
L 689.1912 177.491774 
L 690.443116 174.285346 
L 691.695143 177.491774 
L 692.947068 177.491774 
L 694.199094 177.745453 
L 695.451049 177.745453 
L 696.703046 177.491774 
L 700.458945 177.491774 
L 701.710886 177.745453 
L 702.9629 179.335832 
L 704.214828 177.491774 
L 705.46688 179.335832 
L 706.718807 179.364499 
L 707.970793 181.701993 
L 709.222729 182.85728 
L 712.978654 182.85728 
L 714.230686 181.701993 
L 715.482595 182.85728 
L 716.734646 181.701993 
L 717.986638 179.364499 
L 719.238508 181.701993 
L 720.490572 179.364499 
L 721.742553 179.364499 
L 722.994466 181.701993 
L 724.246472 182.85728 
L 725.498463 185.931614 
L 726.750445 187.861127 
L 728.002399 187.861127 
L 729.254385 186.172951 
L 734.262293 186.172951 
L 735.514241 187.764644 
L 741.774149 187.764644 
L 743.026079 186.172951 
L 744.278104 185.124603 
L 745.530042 184.777919 
L 748.034014 184.777919 
L 749.285965 186.167864 
L 751.789902 186.167864 
L 753.041891 184.777919 
L 754.293846 184.777919 
L 755.545852 186.167864 
L 756.797832 184.777919 
L 758.049824 184.188497 
L 759.30178 180.693703 
L 761.805753 180.693703 
L 763.057713 178.666635 
L 764.309688 180.693703 
L 765.561641 180.693703 
L 766.813657 180.526762 
L 768.065605 180.526762 
L 769.317529 180.693703 
L 770.569507 181.693201 
L 771.821511 187.37713 
L 775.577463 187.37713 
L 776.829387 187.542672 
L 778.081439 189.318716 
L 779.333448 189.806342 
L 781.837355 198.046497 
L 783.089335 198.858976 
L 784.341328 208.992953 
L 791.853617 218.986454 
L 793.105579 218.986454 
L 794.357532 220.407852 
L 795.609552 220.407852 
L 796.861507 221.26864 
L 798.113446 221.26864 
L 799.365384 223.720325 
L 800.617307 221.26864 
L 801.869313 223.720325 
L 803.121284 225.519181 
L 804.373222 223.720325 
L 805.625164 221.26864 
L 806.877141 220.407852 
L 808.129193 218.89718 
L 809.381121 214.654133 
L 810.63304 214.259777 
L 816.892834 214.259777 
L 816.892834 214.259777 
" clip-path="url(#pfa117d408c)" style="fill: none; stroke: #35e3b3; stroke-width: 1.8; stroke-linecap: square"/>
   </g>
   <g id="line2d_13">
    <path d="M 54.442344 180.038828 
L 853.2 180.038828 
" clip-path="url(#pfa117d408c)" style="fill: none; stroke-dasharray: 0.8,1.32; stroke-dashoffset: 0; stroke: #8b97a7; stroke-width: 0.8"/>
   </g>
   <g id="patch_6">
    <path d="M 54.442344 349.277656 
L 54.442344 10.8 
" style="fill: none; stroke: #2a3340; stroke-width: 0.8; stroke-linejoin: miter; stroke-linecap: square"/>
   </g>
   <g id="patch_7">
    <path d="M 853.2 349.277656 
L 853.2 10.8 
" style="fill: none; stroke: #2a3340; stroke-width: 0.8; stroke-linejoin: miter; stroke-linecap: square"/>
   </g>
   <g id="patch_8">
    <path d="M 54.442344 349.277656 
L 853.2 349.277656 
" style="fill: none; stroke: #2a3340; stroke-width: 0.8; stroke-linejoin: miter; stroke-linecap: square"/>
   </g>
   <g id="patch_9">
    <path d="M 54.442344 10.8 
L 853.2 10.8 
" style="fill: none; stroke: #2a3340; stroke-width: 0.8; stroke-linejoin: miter; stroke-linecap: square"/>
   </g>
   <g id="legend_1">
    <g id="patch_10">
     <path d="M 509.529375 31.500703 
L 846.9 31.500703 
Q 848.7 31.500703 848.7 29.700703 
L 848.7 17.1 
Q 848.7 15.3 846.9 15.3 
L 509.529375 15.3 
Q 507.729375 15.3 507.729375 17.1 
L 507.729375 29.700703 
Q 507.729375 31.500703 509.529375 31.500703 
z
" style="fill: #11151a; opacity: 0.8; stroke: #2a3340; stroke-linejoin: miter"/>
    </g>
    <g id="patch_11">
     <path d="M 511.329375 25.738594 
L 529.329375 25.738594 
L 529.329375 19.438594 
L 511.329375 19.438594 
z
" style="fill: #ffb454; opacity: 0.1"/>
    </g>
    <g id="text_8">
     <!-- ±p99 = ±398 µs -->
     <g style="fill: #e6edf3" transform="translate(536.529375 25.738594) scale(0.09 -0.09)">
      <defs>
       <path id="DejaVuSans-73" d="M 2944 4013 
L 2944 2803 
L 4684 2803 
L 4684 2272 
L 2944 2272 
L 2944 1063 
L 2419 1063 
L 2419 2272 
L 678 2272 
L 678 2803 
L 2419 2803 
L 2419 4013 
L 2944 4013 
z
M 678 531 
L 4684 531 
L 4684 0 
L 678 0 
L 678 531 
z
" transform="scale(0.015625)"/>
       <path id="DejaVuSans-53" d="M 1159 525 
L 1159 -1331 
L 581 -1331 
L 581 3500 
L 1159 3500 
L 1159 2969 
Q 1341 3281 1617 3432 
Q 1894 3584 2278 3584 
Q 2916 3584 3314 3078 
Q 3713 2572 3713 1747 
Q 3713 922 3314 415 
Q 2916 -91 2278 -91 
Q 1894 -91 1617 61 
Q 1341 213 1159 525 
z
M 3116 1747 
Q 3116 2381 2855 2742 
Q 2594 3103 2138 3103 
Q 1681 3103 1420 2742 
Q 1159 2381 1159 1747 
Q 1159 1113 1420 752 
Q 1681 391 2138 391 
Q 2594 391 2855 752 
Q 3116 1113 3116 1747 
z
" transform="scale(0.015625)"/>
       <path id="DejaVuSans-1c" d="M 703 97 
L 703 672 
Q 941 559 1184 500 
Q 1428 441 1663 441 
Q 2288 441 2617 861 
Q 2947 1281 2994 2138 
Q 2813 1869 2534 1725 
Q 2256 1581 1919 1581 
Q 1219 1581 811 2004 
Q 403 2428 403 3163 
Q 403 3881 828 4315 
Q 1253 4750 1959 4750 
Q 2769 4750 3195 4129 
Q 3622 3509 3622 2328 
Q 3622 1225 3098 567 
Q 2575 -91 1691 -91 
Q 1453 -91 1209 -44 
Q 966 3 703 97 
z
M 1959 2075 
Q 2384 2075 2632 2365 
Q 2881 2656 2881 3163 
Q 2881 3666 2632 3958 
Q 2384 4250 1959 4250 
Q 1534 4250 1286 3958 
Q 1038 3666 1038 3163 
Q 1038 2656 1286 2365 
Q 1534 2075 1959 2075 
z
" transform="scale(0.015625)"/>
       <path id="DejaVuSans-20" d="M 678 2906 
L 4684 2906 
L 4684 2381 
L 678 2381 
L 678 2906 
z
M 678 1631 
L 4684 1631 
L 4684 1100 
L 678 1100 
L 678 1631 
z
" transform="scale(0.015625)"/>
       <path id="DejaVuSans-16" d="M 2597 2516 
Q 3050 2419 3304 2112 
Q 3559 1806 3559 1356 
Q 3559 666 3084 287 
Q 2609 -91 1734 -91 
Q 1441 -91 1130 -33 
Q 819 25 488 141 
L 488 750 
Q 750 597 1062 519 
Q 1375 441 1716 441 
Q 2309 441 2620 675 
Q 2931 909 2931 1356 
Q 2931 1769 2642 2001 
Q 2353 2234 1838 2234 
L 1294 2234 
L 1294 2753 
L 1863 2753 
Q 2328 2753 2575 2939 
Q 2822 3125 2822 3475 
Q 2822 3834 2567 4026 
Q 2313 4219 1838 4219 
Q 1578 4219 1281 4162 
Q 984 4106 628 3988 
L 628 4550 
Q 988 4650 1302 4700 
Q 1616 4750 1894 4750 
Q 2613 4750 3031 4423 
Q 3450 4097 3450 3541 
Q 3450 3153 3228 2886 
Q 3006 2619 2597 2516 
z
" transform="scale(0.015625)"/>
       <path id="DejaVuSans-1b" d="M 2034 2216 
Q 1584 2216 1326 1975 
Q 1069 1734 1069 1313 
Q 1069 891 1326 650 
Q 1584 409 2034 409 
Q 2484 409 2743 651 
Q 3003 894 3003 1313 
Q 3003 1734 2745 1975 
Q 2488 2216 2034 2216 
z
M 1403 2484 
Q 997 2584 770 2862 
Q 544 3141 544 3541 
Q 544 4100 942 4425 
Q 1341 4750 2034 4750 
Q 2731 4750 3128 4425 
Q 3525 4100 3525 3541 
Q 3525 3141 3298 2862 
Q 3072 2584 2669 2484 
Q 3125 2378 3379 2068 
Q 3634 1759 3634 1313 
Q 3634 634 3220 271 
Q 2806 -91 2034 -91 
Q 1263 -91 848 271 
Q 434 634 434 1313 
Q 434 1759 690 2068 
Q 947 2378 1403 2484 
z
M 1172 3481 
Q 1172 3119 1398 2916 
Q 1625 2713 2034 2713 
Q 2441 2713 2670 2916 
Q 2900 3119 2900 3481 
Q 2900 3844 2670 4047 
Q 2441 4250 2034 4250 
Q 1625 4250 1398 4047 
Q 1172 3844 1172 3481 
z
" transform="scale(0.015625)"/>
       <path id="DejaVuSans-77" d="M 544 -1331 
L 544 3500 
L 1119 3500 
L 1119 1325 
Q 1119 872 1334 640 
Q 1550 409 1972 409 
Q 2434 409 2667 671 
Q 2900 934 2900 1459 
L 2900 3500 
L 3475 3500 
L 3475 806 
Q 3475 619 3529 530 
Q 3584 441 3700 441 
Q 3728 441 3778 458 
Q 3828 475 3916 513 
L 3916 50 
Q 3788 -22 3673 -56 
Q 3559 -91 3450 -91 
Q 3234 -91 3106 31 
Q 2978 153 2931 403 
Q 2775 156 2548 32 
Q 2322 -91 2016 -91 
Q 1697 -91 1473 31 
Q 1250 153 1119 397 
L 1119 -1331 
L 544 -1331 
z
" transform="scale(0.015625)"/>
      </defs>
      <use xlink:href="#DejaVuSans-73"/>
      <use xlink:href="#DejaVuSans-53" transform="translate(83.796875 0)"/>
      <use xlink:href="#DejaVuSans-1c" transform="translate(147.28125 0)"/>
      <use xlink:href="#DejaVuSans-1c" transform="translate(210.90625 0)"/>
      <use xlink:href="#DejaVuSans-3" transform="translate(274.53125 0)"/>
      <use xlink:href="#DejaVuSans-20" transform="translate(306.3125 0)"/>
      <use xlink:href="#DejaVuSans-3" transform="translate(390.109375 0)"/>
      <use xlink:href="#DejaVuSans-73" transform="translate(421.890625 0)"/>
      <use xlink:href="#DejaVuSans-16" transform="translate(505.6875 0)"/>
      <use xlink:href="#DejaVuSans-1c" transform="translate(569.3125 0)"/>
      <use xlink:href="#DejaVuSans-1b" transform="translate(632.9375 0)"/>
      <use xlink:href="#DejaVuSans-3" transform="translate(696.5625 0)"/>
      <use xlink:href="#DejaVuSans-77" transform="translate(728.34375 0)"/>
      <use xlink:href="#DejaVuSans-56" transform="translate(791.96875 0)"/>
     </g>
    </g>
    <g id="patch_12">
     <path d="M 630.495 25.738594 
L 648.495 25.738594 
L 648.495 19.438594 
L 630.495 19.438594 
z
" style="fill: #5bc8ff; opacity: 0.14"/>
    </g>
    <g id="text_9">
     <!-- ±p95 = ±310 µs -->
     <g style="fill: #e6edf3" transform="translate(655.695 25.738594) scale(0.09 -0.09)">
      <use xlink:href="#DejaVuSans-73"/>
      <use xlink:href="#DejaVuSans-53" transform="translate(83.796875 0)"/>
      <use xlink:href="#DejaVuSans-1c" transform="translate(147.28125 0)"/>
      <use xlink:href="#DejaVuSans-18" transform="translate(210.90625 0)"/>
      <use xlink:href="#DejaVuSans-3" transform="translate(274.53125 0)"/>
      <use xlink:href="#DejaVuSans-20" transform="translate(306.3125 0)"/>
      <use xlink:href="#DejaVuSans-3" transform="translate(390.109375 0)"/>
      <use xlink:href="#DejaVuSans-73" transform="translate(421.890625 0)"/>
      <use xlink:href="#DejaVuSans-16" transform="translate(505.6875 0)"/>
      <use xlink:href="#DejaVuSans-14" transform="translate(569.3125 0)"/>
      <use xlink:href="#DejaVuSans-13" transform="translate(632.9375 0)"/>
      <use xlink:href="#DejaVuSans-3" transform="translate(696.5625 0)"/>
      <use xlink:href="#DejaVuSans-77" transform="translate(728.34375 0)"/>
      <use xlink:href="#DejaVuSans-56" transform="translate(791.96875 0)"/>
     </g>
    </g>
    <g id="patch_13">
     <path d="M 749.660625 25.738594 
L 767.660625 25.738594 
L 767.660625 19.438594 
L 749.660625 19.438594 
z
" style="fill: #35e3b3; opacity: 0.2"/>
    </g>
    <g id="text_10">
     <!-- ±p50 = ±84 µs -->
     <g style="fill: #e6edf3" transform="translate(774.860625 25.738594) scale(0.09 -0.09)">
      <defs>
       <path id="DejaVuSans-17" d="M 2419 4116 
L 825 1625 
L 2419 1625 
L 2419 4116 
z
M 2253 4666 
L 3047 4666 
L 3047 1625 
L 3713 1625 
L 3713 1100 
L 3047 1100 
L 3047 0 
L 2419 0 
L 2419 1100 
L 313 1100 
L 313 1709 
L 2253 4666 
z
" transform="scale(0.015625)"/>
      </defs>
      <use xlink:href="#DejaVuSans-73"/>
      <use xlink:href="#DejaVuSans-53" transform="translate(83.796875 0)"/>
      <use xlink:href="#DejaVuSans-18" transform="translate(147.28125 0)"/>
      <use xlink:href="#DejaVuSans-13" transform="translate(210.90625 0)"/>
      <use xlink:href="#DejaVuSans-3" transform="translate(274.53125 0)"/>
      <use xlink:href="#DejaVuSans-20" transform="translate(306.3125 0)"/>
      <use xlink:href="#DejaVuSans-3" transform="translate(390.109375 0)"/>
      <use xlink:href="#DejaVuSans-73" transform="translate(421.890625 0)"/>
      <use xlink:href="#DejaVuSans-1b" transform="translate(505.6875 0)"/>
      <use xlink:href="#DejaVuSans-17" transform="translate(569.3125 0)"/>
      <use xlink:href="#DejaVuSans-3" transform="translate(632.9375 0)"/>
      <use xlink:href="#DejaVuSans-77" transform="translate(664.71875 0)"/>
      <use xlink:href="#DejaVuSans-56" transform="translate(728.34375 0)"/>
     </g>
    </g>
   </g>
  </g>
 </g>
 <defs>
  <clipPath id="pfa117d408c">
   <rect x="54.442344" y="10.8" width="798.757656" height="338.477656"/>
  </clipPath>
 </defs>
</svg>
