<svg xmlns="http://www.w3.org/2000/svg" width="760" height="520" viewBox="0 0 760 520" font-family="ui-monospace, Menlo, Consolas, monospace">
  <defs>
    <style>
      .board{fill:#15181f;stroke:#3a4150;stroke-width:2;rx:10}
      .lbl{fill:#cfd6e2;font-size:13px}
      .cap{fill:#8b93a3;font-size:12px}
      .title{fill:#e8edf5;font-size:15px;font-weight:700}
      .pin{stroke-width:2}
      .pad{fill:#0a0c10;stroke-width:1.5}
      .note{fill:#8b93a3;font-size:11px}
    </style>
    <marker id="dot" markerWidth="8" markerHeight="8" refX="4" refY="4">
      <circle cx="4" cy="4" r="3" fill="#cfd6e2"/>
    </marker>
  </defs>

  <rect x="0" y="0" width="760" height="520" fill="#0a0c10"/>
  <text x="24" y="34" class="title">Wiring — LilyGo T8 ESP32-S2  →  PCM5102A I2S DAC</text>
  <text x="24" y="54" class="cap">ensemble playback node · firmware defaults (board_esp32s2.h) · all pins re-provisionable over USB</text>

  <!-- LilyGo board -->
  <rect x="40" y="90" width="240" height="370" rx="12" class="board"/>
  <text x="160" y="118" text-anchor="middle" class="title" font-size="14">LilyGo T8</text>
  <text x="160" y="136" text-anchor="middle" class="cap">ESP32-S2-WROOM</text>

  <!-- PCM5102A board -->
  <rect x="480" y="90" width="240" height="370" rx="12" fill="#2a1240" stroke="#7a4bb0" stroke-width="2"/>
  <text x="600" y="118" text-anchor="middle" class="title" font-size="14">GY-PCM5102</text>
  <text x="600" y="136" text-anchor="middle" class="cap">PCM5102A DAC</text>

  <!-- helper: pin rows. left pins at x=280 (right edge of lilygo), right pins at x=480 (left edge of dac) -->
  <!-- Row y positions -->
  <!-- VIN / 3V3 -->
  <g>
    <circle cx="280" cy="180" r="5" class="pad" stroke="#e0533a"/>
    <text x="270" y="184" text-anchor="end" class="lbl">3V3</text>
    <line x1="280" y1="180" x2="480" y2="180" stroke="#e0533a" class="pin"/>
    <circle cx="480" cy="180" r="5" class="pad" stroke="#e0533a"/>
    <text x="492" y="184" class="lbl">VIN</text>
  </g>
  <!-- GND -->
  <g>
    <circle cx="280" cy="220" r="5" class="pad" stroke="#5b6472"/>
    <text x="270" y="224" text-anchor="end" class="lbl">GND</text>
    <line x1="280" y1="220" x2="430" y2="220" stroke="#5b6472" class="pin"/>
    <line x1="430" y1="220" x2="430" y2="260" stroke="#5b6472" class="pin"/>
    <line x1="430" y1="220" x2="480" y2="220" stroke="#5b6472" class="pin"/>
    <circle cx="480" cy="220" r="5" class="pad" stroke="#5b6472"/>
    <text x="492" y="224" class="lbl">GND</text>
    <!-- SCK tie to GND -->
    <line x1="430" y1="260" x2="480" y2="260" stroke="#5b6472" class="pin" stroke-dasharray="4 3"/>
    <circle cx="480" cy="260" r="5" class="pad" stroke="#5b6472"/>
    <text x="492" y="264" class="lbl">SCK</text>
    <text x="528" y="278" class="note">tie low → onboard PLL</text>
  </g>
  <!-- BCK GPIO36 -->
  <g>
    <circle cx="280" cy="300" r="5" class="pad" stroke="#3aa0e0"/>
    <text x="270" y="304" text-anchor="end" class="lbl">GPIO36</text>
    <line x1="280" y1="300" x2="480" y2="300" stroke="#3aa0e0" class="pin"/>
    <circle cx="480" cy="300" r="5" class="pad" stroke="#3aa0e0"/>
    <text x="492" y="304" class="lbl">BCK</text>
    <text x="528" y="304" class="note">I2S bit clock</text>
  </g>
  <!-- LCK GPIO35 -->
  <g>
    <circle cx="280" cy="340" r="5" class="pad" stroke="#3ad0b0"/>
    <text x="270" y="344" text-anchor="end" class="lbl">GPIO35</text>
    <line x1="280" y1="340" x2="480" y2="340" stroke="#3ad0b0" class="pin"/>
    <circle cx="480" cy="340" r="5" class="pad" stroke="#3ad0b0"/>
    <text x="492" y="344" class="lbl">LCK</text>
    <text x="528" y="344" class="note">word select (LRCLK)</text>
  </g>
  <!-- DIN GPIO37 -->
  <g>
    <circle cx="280" cy="380" r="5" class="pad" stroke="#e0b83a"/>
    <text x="270" y="384" text-anchor="end" class="lbl">GPIO37</text>
    <line x1="280" y1="380" x2="480" y2="380" stroke="#e0b83a" class="pin"/>
    <circle cx="480" cy="380" r="5" class="pad" stroke="#e0b83a"/>
    <text x="492" y="384" class="lbl">DIN</text>
    <text x="528" y="384" class="note">I2S data out</text>
  </g>

  <!-- line out -->
  <text x="600" y="424" text-anchor="middle" class="cap">L / R / G → onboard 3.5 mm jack</text>

  <!-- encoder note -->
  <rect x="40" y="478" width="680" height="30" rx="6" fill="#15181f" stroke="#3a4150"/>
  <text x="52" y="497" class="note">Rotary encoder (KY-040): CLK→GPIO4  ·  DT→GPIO5  ·  SW→GPIO6  ·  +→3V3  ·  GND→GND   (share common ground)</text>
</svg>
